<svg width="48" height="48" viewBox="0 0 48 48" fill="none" xmlns="http://www.w3.org/2000/svg">
<g clip-path="url(#clip0_631_9187)">
<rect width="48" height="48" rx="12" fill="#E9F2F4"/>
<path d="M34.4878 33.7269C38.9086 31.5907 41.3528 27.5006 39.947 24.5916C38.5413 21.6825 33.8179 21.056 29.3971 23.1923C24.9763 25.3285 22.5322 29.4186 23.9379 32.3276C25.3437 35.2367 30.067 35.8632 34.4878 33.7269Z" fill="#ABE2EC"/>
<path d="M55.0006 15.41C51.6806 18.48 52.4006 21.51 39.0506 30.73C33.0106 34.9 32.6106 46.29 32.9606 50.25C33.3206 54.31 34.7806 57.31 34.9606 59.48" stroke="#00365C" stroke-width="0.5" stroke-miterlimit="10"/>
<path d="M19.8701 7.66005C19.9801 9.26005 19.2101 15.64 22.3401 18.65C22.3501 18.66 22.3501 18.66 22.3601 18.67C23.4001 19.68 24.8301 20.17 26.2701 20.15L26.7701 20.14C27.5501 20.13 28.3401 20.05 29.0901 19.82C36.4001 17.67 44.1001 11.42 47.1001 9.00005L47.3301 8.81005C48.1001 8.19005 48.6101 7.31005 48.7701 6.33005C49.3001 3.10005 49.1501 -2.88995 49.0401 -4.94995" stroke="#00365C" stroke-width="0.5" stroke-miterlimit="10"/>
<path d="M-3.62988 20.5701C-0.359883 21.2201 1.09012 19.9601 2.40012 17.1701C4.00012 13.7701 3.68012 10.1001 3.46012 8.68005" stroke="#00365C" stroke-width="0.5" stroke-miterlimit="10"/>
<path d="M23.5597 -1.33997C23.5597 6.93003 14.3497 13.4 11.6797 13.4H11.3997C10.6297 13.4 9.21973 12.86 7.60973 11.88C3.64973 9.51003 -1.53027 4.54003 -1.53027 -1.33997" stroke="#00365C" stroke-width="0.5" stroke-miterlimit="10"/>
<path d="M23.1006 24.3301C23.1006 24.3301 24.9106 21.1701 28.0406 20.1801" stroke="#333333" stroke-width="0.5" stroke-miterlimit="10" stroke-linecap="round" stroke-linejoin="round"/>
<path d="M28.5 31.16C28.5 31.16 32.06 26.13 36.98 25.16" stroke="#333333" stroke-width="0.5" stroke-miterlimit="10" stroke-linecap="round" stroke-linejoin="round"/>
<path d="M32.2002 30.9C32.2002 30.9 33.3802 28.76 32.9402 27.12" stroke="#333333" stroke-width="0.5" stroke-miterlimit="10" stroke-linecap="round" stroke-linejoin="round"/>
</g>
<defs>
<clipPath id="clip0_631_9187">
<rect width="48" height="48" rx="12" fill="white"/>
</clipPath>
</defs>
</svg>
