<svg width="26" height="14" viewBox="0 0 26 14" fill="none" xmlns="http://www.w3.org/2000/svg">
<path d="M0.5 2.66667C0.5 1.47005 1.47005 0.5 2.66667 0.5H21.4762C22.6728 0.5 23.6429 1.47005 23.6429 2.66667V11.3333C23.6429 12.53 22.6728 13.5 21.4762 13.5H2.66666C1.47005 13.5 0.5 12.53 0.5 11.3333V2.66667Z" stroke="#212121"/>
<path d="M25.0713 4V10C25.634 9.49184 25.9999 8.3097 25.9999 7C25.9999 5.6903 25.634 4.50816 25.0713 4Z" fill="#212121"/>
<path d="M2.78564 4C2.78564 3.44772 3.23336 3 3.78564 3H16.7856C17.3379 3 17.7856 3.44772 17.7856 4V10C17.7856 10.5523 17.3379 11 16.7856 11H3.78564C3.23336 11 2.78564 10.5523 2.78564 10V4Z" fill="#757575"/>
</svg>
