<svg width="26" height="14" viewBox="0 0 26 14" fill="none" xmlns="http://www.w3.org/2000/svg">
<path d="M0.5 2.66667C0.5 1.47005 1.47005 0.5 2.66667 0.5H21.4762C22.6728 0.5 23.6429 1.47005 23.6429 2.66667V11.3333C23.6429 12.53 22.6728 13.5 21.4762 13.5H2.66666C1.47005 13.5 0.5 12.53 0.5 11.3333V2.66667Z" stroke="#F06D65"/>
<path d="M25.0713 4V10C25.634 9.49184 25.9999 8.3097 25.9999 7C25.9999 5.6903 25.634 4.50816 25.0713 4Z" fill="#F06D65"/>
<path d="M2.78564 4.33333C2.78564 3.59695 3.3826 3 4.11898 3H6.45231C7.18869 3 7.78564 3.59695 7.78564 4.33333V9.66667C7.78564 10.403 7.18869 11 6.45231 11H4.11898C3.3826 11 2.78564 10.403 2.78564 9.66667V4.33333Z" fill="#F06D65"/>
</svg>
