<svg width="48" height="48" viewBox="0 0 48 48" fill="none" xmlns="http://www.w3.org/2000/svg">
<g clip-path="url(#clip0_631_9174)">
<rect width="48" height="48" rx="12" fill="#E9F2F4"/>
<path d="M13.1602 12.1599C13.4102 11.9499 13.6702 11.7099 13.9302 11.4399C17.1402 8.09995 18.5402 4.44995 16.6802 0.319946" stroke="#00365C" stroke-width="0.5" stroke-miterlimit="10" stroke-linecap="round" stroke-linejoin="round"/>
<path d="M-2.62012 66.5199C-2.55012 66.5199 -2.48012 66.4699 -2.46012 66.3999C-2.46012 66.3999 4.39988 37.4199 6.57988 34.2899" stroke="#00365C" stroke-width="0.5" stroke-miterlimit="10" stroke-linecap="round" stroke-linejoin="round"/>
<path d="M13.16 12.1599C11.06 13.9399 9.28 13.7499 6.38 14.5499C3.18 15.4399 1.09 16.4399 -0.28 17.8099C-2.75 20.2699 -5.86 33.6099 -6.74 43.4999C-7.14 48.0299 -7.67 48.4199 -8.72 52.2999C-9.71 55.9699 -11.07 59.4299 -11.75 63.0899" stroke="#00365C" stroke-width="0.5" stroke-miterlimit="10" stroke-linecap="round" stroke-linejoin="round"/>
<path d="M40.9198 66.13C40.3498 64.59 39.2498 59.85 39.0998 58.53C38.8498 56.37 39.2998 52.94 39.5298 49.87C40.1398 41.82 41.7398 38.63 42.5798 36.96" stroke="#00365C" stroke-width="0.5" stroke-miterlimit="10" stroke-linecap="round" stroke-linejoin="round"/>
<path d="M5.91992 35.8899C7.08992 40.0799 8.18992 49.7899 8.18992 49.7899C8.65992 53.6299 8.87992 56.3899 8.96992 58.3399C9.09992 61.0899 8.54992 63.7999 7.48992 66.3299" stroke="#00365C" stroke-width="0.5" stroke-miterlimit="10" stroke-linecap="round" stroke-linejoin="round"/>
<path d="M34.8896 12.23C36.9696 13.96 38.7396 13.77 41.6096 14.57C44.8096 15.46 46.8996 16.46 48.2696 17.83C50.7396 20.29 53.8496 33.63 54.7296 43.52C55.1296 48.05 55.6596 48.44 56.7096 52.32C57.6996 55.99 59.0597 59.45 59.7397 63.11" stroke="#00365C" stroke-width="0.5" stroke-miterlimit="10" stroke-linecap="round" stroke-linejoin="round"/>
<path d="M41.6201 34.6C44.0101 38.34 50.4601 66.42 50.4601 66.42" stroke="#00365C" stroke-width="0.5" stroke-miterlimit="10" stroke-linecap="round" stroke-linejoin="round"/>
<path d="M31.3201 0.339966C29.4701 4.46997 30.8701 8.11997 34.0701 11.46C34.3501 11.75 34.6201 12 34.8901 12.23" stroke="#00365C" stroke-width="0.5" stroke-miterlimit="10" stroke-linecap="round" stroke-linejoin="round"/>
<path d="M38.5 16.08C38.5 18.12 31.73 20.55 23.72 20.55C15.71 20.55 9.5 18.12 9.5 16.08C9.5 14.04 16.27 14.21 24.28 14.21C32.29 14.21 38.5 14.04 38.5 16.08Z" fill="#ABE2EC"/>
<path d="M11.9404 15.71C11.9404 15.71 12.7504 16.68 14.0404 17.02C16.1504 17.56 20.9004 17.1 22.0904 17.81" fill="#ABE2EC"/>
<path d="M11.9404 15.71C11.9404 15.71 12.7504 16.68 14.0404 17.02C16.1504 17.56 20.9004 17.1 22.0904 17.81" stroke="#00365C" stroke-width="0.5" stroke-miterlimit="10" stroke-linecap="round" stroke-linejoin="round"/>
<path d="M36.0602 15.71C36.0602 15.71 35.2502 16.68 33.9602 17.02C31.8502 17.56 27.1002 17.1 25.9102 17.81" fill="#ABE2EC"/>
<path d="M36.0602 15.71C36.0602 15.71 35.2502 16.68 33.9602 17.02C31.8502 17.56 27.1002 17.1 25.9102 17.81" stroke="#00365C" stroke-width="0.5" stroke-miterlimit="10" stroke-linecap="round" stroke-linejoin="round"/>
<path d="M40.9501 65.95C40.3501 64.15 39.3601 59.89 39.2101 58.65C38.9701 56.63 39.3601 53.49 39.6001 50.58C39.6301 50.17 39.6901 49.77 39.7601 49.36L41.9801 38.89C40.9701 38.67 40.7601 37.71 40.7601 37.71C38.6701 30.25 43.4601 14.94 43.4601 14.94C41.8301 14.14 38.1301 13.54 38.1301 13.54C38.1301 13.54 35.9501 25.57 24.2001 25.5C10.9801 25.41 10.0601 13.49 10.0601 13.49C10.0601 13.49 5.68012 14.16 4.87012 14.85C4.87012 14.85 9.25012 29.91 7.15012 37.37C7.15012 37.37 6.82012 38.42 6.32012 38.68L7.72012 49.89C8.20012 53.74 8.42012 56.51 8.51012 58.46C8.64012 61.11 8.12012 63.73 7.12012 66.19" fill="#E9F2F4"/>
<path d="M40.9501 65.95C40.3501 64.15 39.3601 59.89 39.2101 58.65C38.9701 56.63 39.3601 53.49 39.6001 50.58C39.6301 50.17 39.6901 49.77 39.7601 49.36L41.9801 38.89C40.9701 38.67 40.7601 37.71 40.7601 37.71C38.6701 30.25 43.4601 14.94 43.4601 14.94C41.8301 14.14 38.1301 13.54 38.1301 13.54C38.1301 13.54 35.9501 25.57 24.2001 25.5C10.9801 25.41 10.0601 13.49 10.0601 13.49C10.0601 13.49 5.68012 14.16 4.87012 14.85C4.87012 14.85 9.25012 29.91 7.15012 37.37C7.15012 37.37 6.82012 38.42 6.32012 38.68L7.72012 49.89C8.20012 53.74 8.42012 56.51 8.51012 58.46C8.64012 61.11 8.12012 63.73 7.12012 66.19" stroke="#00365C" stroke-width="0.5" stroke-miterlimit="10" stroke-linecap="round" stroke-linejoin="round"/>
</g>
<defs>
<clipPath id="clip0_631_9174">
<rect width="48" height="48" rx="12" fill="white"/>
</clipPath>
</defs>
</svg>
