<svg width="48" height="48" viewBox="0 0 48 48" fill="none" xmlns="http://www.w3.org/2000/svg">
<g clip-path="url(#clip0_250_3583)">
<rect width="48" height="48" rx="12" fill="white"/>
<path d="M13.16 12.16C13.41 11.95 13.67 11.71 13.93 11.44C17.14 8.10001 18.54 4.45001 16.68 0.320007" stroke="#212121" stroke-width="0.5" stroke-miterlimit="10" stroke-linecap="round" stroke-linejoin="round"/>
<path d="M-2.62 66.52C-2.55 66.52 -2.48 66.47 -2.46 66.4C-2.46 66.4 4.4 37.42 6.58 34.29" stroke="#212121" stroke-width="0.5" stroke-miterlimit="10" stroke-linecap="round" stroke-linejoin="round"/>
<path d="M13.16 12.16C11.06 13.94 9.28 13.75 6.38 14.55C3.18 15.44 1.09 16.44 -0.28 17.81C-2.75 20.27 -5.86 33.61 -6.74 43.5C-7.14 48.03 -7.67 48.42 -8.72 52.3C-9.71 55.97 -11.07 59.43 -11.75 63.09" stroke="#212121" stroke-width="0.5" stroke-miterlimit="10" stroke-linecap="round" stroke-linejoin="round"/>
<path d="M40.92 66.13C40.35 64.59 39.25 59.85 39.1 58.53C38.85 56.37 39.3 52.94 39.53 49.87C40.14 41.82 41.74 38.63 42.58 36.96" stroke="#212121" stroke-width="0.5" stroke-miterlimit="10" stroke-linecap="round" stroke-linejoin="round"/>
<path d="M5.92004 35.89C7.09004 40.08 8.19004 49.79 8.19004 49.79C8.66004 53.63 8.88004 56.39 8.97004 58.34C9.10004 61.09 8.55004 63.8 7.49004 66.33" stroke="#212121" stroke-width="0.5" stroke-miterlimit="10" stroke-linecap="round" stroke-linejoin="round"/>
<path d="M34.89 12.23C36.97 13.96 38.74 13.77 41.61 14.57C44.81 15.46 46.9 16.46 48.27 17.83C50.74 20.29 53.85 33.63 54.73 43.52C55.13 48.05 55.66 48.44 56.71 52.32C57.7 55.99 59.06 59.45 59.74 63.11" stroke="#212121" stroke-width="0.5" stroke-miterlimit="10" stroke-linecap="round" stroke-linejoin="round"/>
<path d="M41.62 34.6C44.01 38.34 50.46 66.42 50.46 66.42" stroke="#212121" stroke-width="0.5" stroke-miterlimit="10" stroke-linecap="round" stroke-linejoin="round"/>
<path d="M31.3201 0.340027C29.4701 4.47003 30.8701 8.12003 34.0701 11.46C34.3501 11.75 34.6201 12 34.8901 12.23" stroke="#212121" stroke-width="0.5" stroke-miterlimit="10" stroke-linecap="round" stroke-linejoin="round"/>
<path d="M38.5 16.08C38.5 18.12 31.73 20.55 23.72 20.55C15.71 20.55 9.5 18.12 9.5 16.08C9.5 14.04 16.27 14.21 24.28 14.21C32.29 14.21 38.5 14.04 38.5 16.08Z" fill="#B5EED1"/>
<path d="M11.9399 15.71C11.9399 15.71 12.7499 16.68 14.0399 17.02C16.1499 17.56 20.8999 17.1 22.0899 17.81" stroke="#212121" stroke-width="0.5" stroke-miterlimit="10" stroke-linecap="round" stroke-linejoin="round"/>
<path d="M36.0599 15.71C36.0599 15.71 35.2499 16.68 33.9599 17.02C31.8499 17.56 27.0999 17.1 25.9099 17.81" stroke="#212121" stroke-width="0.5" stroke-miterlimit="10" stroke-linecap="round" stroke-linejoin="round"/>
<path d="M40.95 65.95C40.35 64.15 39.36 59.89 39.21 58.65C38.97 56.63 39.36 53.49 39.6 50.58C39.63 50.17 39.69 49.77 39.76 49.36L41.98 38.89C40.97 38.67 40.76 37.71 40.76 37.71C38.67 30.25 43.46 14.94 43.46 14.94C41.83 14.14 38.13 13.54 38.13 13.54C38.13 13.54 35.95 25.57 24.2 25.5C10.98 25.41 10.06 13.49 10.06 13.49C10.06 13.49 5.68 14.16 4.87 14.85C4.87 14.85 9.25 29.91 7.15 37.37C7.15 37.37 6.82 38.42 6.32 38.68L7.72 49.89C8.2 53.74 8.42 56.51 8.51 58.46C8.64 61.11 8.12 63.73 7.12 66.19" fill="white"/>
<path d="M40.95 65.95C40.35 64.15 39.36 59.89 39.21 58.65C38.97 56.63 39.36 53.49 39.6 50.58C39.63 50.17 39.69 49.77 39.76 49.36L41.98 38.89C40.97 38.67 40.76 37.71 40.76 37.71C38.67 30.25 43.46 14.94 43.46 14.94C41.83 14.14 38.13 13.54 38.13 13.54C38.13 13.54 35.95 25.57 24.2 25.5C10.98 25.41 10.06 13.49 10.06 13.49C10.06 13.49 5.68 14.16 4.87 14.85C4.87 14.85 9.25 29.91 7.15 37.37C7.15 37.37 6.82 38.42 6.32 38.68L7.72 49.89C8.2 53.74 8.42 56.51 8.51 58.46C8.64 61.11 8.12 63.73 7.12 66.19" stroke="#212121" stroke-width="0.5" stroke-miterlimit="10" stroke-linecap="round" stroke-linejoin="round"/>
</g>
<rect x="0.5" y="0.5" width="47" height="47" rx="11.5" stroke="#EEEEEE"/>
<defs>
<clipPath id="clip0_250_3583">
<rect width="48" height="48" rx="12" fill="white"/>
</clipPath>
</defs>
</svg>
