<svg width="154" height="32" viewBox="0 0 154 32" fill="none" xmlns="http://www.w3.org/2000/svg">
<path d="M12.1137 4.098C12.1137 4.91 11.8337 5.58667 11.2737 6.128C10.7231 6.66 9.87839 6.926 8.73972 6.926H6.86372V11H5.58972V1.242H8.73972C9.84105 1.242 10.6764 1.508 11.2457 2.04C11.8244 2.572 12.1137 3.258 12.1137 4.098ZM8.73972 5.876C9.44905 5.876 9.97172 5.722 10.3077 5.414C10.6437 5.106 10.8117 4.66733 10.8117 4.098C10.8117 2.894 10.1211 2.292 8.73972 2.292H6.86372V5.876H8.73972ZM14.9711 4.574C15.1951 4.13533 15.5125 3.79467 15.9231 3.552C16.3431 3.30933 16.8518 3.188 17.4491 3.188V4.504H17.1131C15.6851 4.504 14.9711 5.27867 14.9711 6.828V11H13.6971V3.328H14.9711V4.574ZM25.9198 6.87C25.9198 7.11267 25.9058 7.36933 25.8778 7.64H19.7458C19.7925 8.396 20.0491 8.98867 20.5158 9.418C20.9918 9.838 21.5658 10.048 22.2378 10.048C22.7885 10.048 23.2458 9.922 23.6098 9.67C23.9831 9.40867 24.2445 9.06333 24.3938 8.634H25.7658C25.5605 9.37133 25.1498 9.97333 24.5338 10.44C23.9178 10.8973 23.1525 11.126 22.2378 11.126C21.5098 11.126 20.8565 10.9627 20.2778 10.636C19.7085 10.3093 19.2605 9.84733 18.9338 9.25C18.6071 8.64333 18.4438 7.94333 18.4438 7.15C18.4438 6.35667 18.6025 5.66133 18.9198 5.064C19.2371 4.46667 19.6805 4.00933 20.2498 3.692C20.8285 3.36533 21.4911 3.202 22.2378 3.202C22.9658 3.202 23.6098 3.36067 24.1698 3.678C24.7298 3.99533 25.1591 4.434 25.4578 4.994C25.7658 5.54467 25.9198 6.17 25.9198 6.87ZM24.6038 6.604C24.6038 6.11867 24.4965 5.70333 24.2818 5.358C24.0671 5.00333 23.7731 4.73733 23.3998 4.56C23.0358 4.37333 22.6298 4.28 22.1818 4.28C21.5378 4.28 20.9871 4.48533 20.5298 4.896C20.0818 5.30667 19.8251 5.876 19.7598 6.604H24.6038ZM30.3174 11.126C29.7294 11.126 29.2021 11.028 28.7354 10.832C28.2688 10.6267 27.9001 10.3467 27.6294 9.992C27.3588 9.628 27.2094 9.21267 27.1814 8.746H28.4974C28.5348 9.12867 28.7121 9.44133 29.0294 9.684C29.3561 9.92667 29.7808 10.048 30.3034 10.048C30.7888 10.048 31.1714 9.94067 31.4514 9.726C31.7314 9.51133 31.8714 9.24067 31.8714 8.914C31.8714 8.578 31.7221 8.33067 31.4234 8.172C31.1248 8.004 30.6628 7.84067 30.0374 7.682C29.4681 7.53267 29.0014 7.38333 28.6374 7.234C28.2828 7.07533 27.9748 6.84667 27.7134 6.548C27.4614 6.24 27.3354 5.83867 27.3354 5.344C27.3354 4.952 27.4521 4.59267 27.6854 4.266C27.9188 3.93933 28.2501 3.68267 28.6794 3.496C29.1088 3.3 29.5988 3.202 30.1494 3.202C30.9988 3.202 31.6848 3.41667 32.2074 3.846C32.7301 4.27533 33.0101 4.86333 33.0474 5.61H31.7734C31.7454 5.20867 31.5821 4.88667 31.2834 4.644C30.9941 4.40133 30.6021 4.28 30.1074 4.28C29.6501 4.28 29.2861 4.378 29.0154 4.574C28.7448 4.77 28.6094 5.02667 28.6094 5.344C28.6094 5.596 28.6888 5.806 28.8474 5.974C29.0154 6.13267 29.2208 6.26333 29.4634 6.366C29.7154 6.45933 30.0608 6.56667 30.4994 6.688C31.0501 6.83733 31.4981 6.98667 31.8434 7.136C32.1888 7.276 32.4828 7.49067 32.7254 7.78C32.9774 8.06933 33.1081 8.44733 33.1174 8.914C33.1174 9.334 33.0008 9.712 32.7674 10.048C32.5341 10.384 32.2028 10.65 31.7734 10.846C31.3534 11.0327 30.8681 11.126 30.3174 11.126ZM37.6319 11.126C37.0439 11.126 36.5166 11.028 36.0499 10.832C35.5832 10.6267 35.2146 10.3467 34.9439 9.992C34.6732 9.628 34.5239 9.21267 34.4959 8.746H35.8119C35.8492 9.12867 36.0266 9.44133 36.3439 9.684C36.6706 9.92667 37.0952 10.048 37.6179 10.048C38.1032 10.048 38.4859 9.94067 38.7659 9.726C39.0459 9.51133 39.1859 9.24067 39.1859 8.914C39.1859 8.578 39.0366 8.33067 38.7379 8.172C38.4392 8.004 37.9772 7.84067 37.3519 7.682C36.7826 7.53267 36.3159 7.38333 35.9519 7.234C35.5972 7.07533 35.2892 6.84667 35.0279 6.548C34.7759 6.24 34.6499 5.83867 34.6499 5.344C34.6499 4.952 34.7666 4.59267 34.9999 4.266C35.2332 3.93933 35.5646 3.68267 35.9939 3.496C36.4232 3.3 36.9132 3.202 37.4639 3.202C38.3132 3.202 38.9992 3.41667 39.5219 3.846C40.0446 4.27533 40.3246 4.86333 40.3619 5.61H39.0879C39.0599 5.20867 38.8966 4.88667 38.5979 4.644C38.3086 4.40133 37.9166 4.28 37.4219 4.28C36.9646 4.28 36.6006 4.378 36.3299 4.574C36.0592 4.77 35.9239 5.02667 35.9239 5.344C35.9239 5.596 36.0032 5.806 36.1619 5.974C36.3299 6.13267 36.5352 6.26333 36.7779 6.366C37.0299 6.45933 37.3752 6.56667 37.8139 6.688C38.3646 6.83733 38.8126 6.98667 39.1579 7.136C39.5032 7.276 39.7972 7.49067 40.0399 7.78C40.2919 8.06933 40.4226 8.44733 40.4319 8.914C40.4319 9.334 40.3152 9.712 40.0819 10.048C39.8486 10.384 39.5172 10.65 39.0879 10.846C38.6679 11.0327 38.1826 11.126 37.6319 11.126ZM47.5168 4.378V8.9C47.5168 9.27333 47.5961 9.53933 47.7548 9.698C47.9134 9.84733 48.1888 9.922 48.5808 9.922H49.5188V11H48.3708C47.6614 11 47.1294 10.8367 46.7748 10.51C46.4201 10.1833 46.2428 9.64667 46.2428 8.9V4.378H45.2488V3.328H46.2428V1.396H47.5168V3.328H49.5188V4.378H47.5168ZM54.8704 3.188C55.449 3.188 55.9717 3.314 56.4384 3.566C56.905 3.80867 57.269 4.17733 57.5304 4.672C57.801 5.16667 57.9364 5.76867 57.9364 6.478V11H56.6764V6.66C56.6764 5.89467 56.485 5.31133 56.1024 4.91C55.7197 4.49933 55.197 4.294 54.5344 4.294C53.8624 4.294 53.3257 4.504 52.9244 4.924C52.5324 5.344 52.3364 5.95533 52.3364 6.758V11H51.0624V0.64H52.3364V4.42C52.5884 4.028 52.9337 3.72467 53.3724 3.51C53.8204 3.29533 54.3197 3.188 54.8704 3.188ZM67.0175 6.87C67.0175 7.11267 67.0035 7.36933 66.9755 7.64H60.8435C60.8901 8.396 61.1468 8.98867 61.6135 9.418C62.0895 9.838 62.6635 10.048 63.3355 10.048C63.8861 10.048 64.3435 9.922 64.7075 9.67C65.0808 9.40867 65.3421 9.06333 65.4915 8.634H66.8635C66.6581 9.37133 66.2475 9.97333 65.6315 10.44C65.0155 10.8973 64.2501 11.126 63.3355 11.126C62.6075 11.126 61.9541 10.9627 61.3755 10.636C60.8061 10.3093 60.3581 9.84733 60.0315 9.25C59.7048 8.64333 59.5415 7.94333 59.5415 7.15C59.5415 6.35667 59.7001 5.66133 60.0175 5.064C60.3348 4.46667 60.7781 4.00933 61.3475 3.692C61.9261 3.36533 62.5888 3.202 63.3355 3.202C64.0635 3.202 64.7075 3.36067 65.2675 3.678C65.8275 3.99533 66.2568 4.434 66.5555 4.994C66.8635 5.54467 67.0175 6.17 67.0175 6.87ZM65.7015 6.604C65.7015 6.11867 65.5941 5.70333 65.3795 5.358C65.1648 5.00333 64.8708 4.73733 64.4975 4.56C64.1335 4.37333 63.7275 4.28 63.2795 4.28C62.6355 4.28 62.0848 4.48533 61.6275 4.896C61.1795 5.30667 60.9228 5.876 60.8575 6.604H65.7015ZM73.7055 4.756C73.9668 4.29867 74.3495 3.92533 74.8535 3.636C75.3575 3.34667 75.9315 3.202 76.5755 3.202C77.2662 3.202 77.8868 3.36533 78.4375 3.692C78.9882 4.01867 79.4222 4.48067 79.7395 5.078C80.0568 5.666 80.2155 6.352 80.2155 7.136C80.2155 7.91067 80.0568 8.60133 79.7395 9.208C79.4222 9.81467 78.9835 10.286 78.4235 10.622C77.8728 10.958 77.2568 11.126 76.5755 11.126C75.9128 11.126 75.3295 10.9813 74.8255 10.692C74.3308 10.4027 73.9575 10.034 73.7055 9.586V11H72.4315V0.64H73.7055V4.756ZM78.9135 7.136C78.9135 6.55733 78.7968 6.05333 78.5635 5.624C78.3302 5.19467 78.0128 4.868 77.6115 4.644C77.2195 4.42 76.7855 4.308 76.3095 4.308C75.8428 4.308 75.4088 4.42467 75.0075 4.658C74.6155 4.882 74.2982 5.21333 74.0555 5.652C73.8222 6.08133 73.7055 6.58067 73.7055 7.15C73.7055 7.72867 73.8222 8.23733 74.0555 8.676C74.2982 9.10533 74.6155 9.43667 75.0075 9.67C75.4088 9.894 75.8428 10.006 76.3095 10.006C76.7855 10.006 77.2195 9.894 77.6115 9.67C78.0128 9.43667 78.3302 9.10533 78.5635 8.676C78.7968 8.23733 78.9135 7.724 78.9135 7.136ZM88.6965 3.328V11H87.4225V9.866C87.1798 10.258 86.8391 10.566 86.4005 10.79C85.9711 11.0047 85.4951 11.112 84.9725 11.112C84.3751 11.112 83.8385 10.9907 83.3625 10.748C82.8865 10.496 82.5085 10.1227 82.2285 9.628C81.9578 9.13333 81.8225 8.53133 81.8225 7.822V3.328H83.0825V7.654C83.0825 8.41 83.2738 8.99333 83.6565 9.404C84.0391 9.80533 84.5618 10.006 85.2245 10.006C85.9058 10.006 86.4425 9.796 86.8345 9.376C87.2265 8.956 87.4225 8.34467 87.4225 7.542V3.328H88.6965ZM92.4015 4.378V8.9C92.4015 9.27333 92.4809 9.53933 92.6395 9.698C92.7982 9.84733 93.0735 9.922 93.4655 9.922H94.4035V11H93.2555C92.5462 11 92.0142 10.8367 91.6595 10.51C91.3049 10.1833 91.1275 9.64667 91.1275 8.9V4.378H90.1335V3.328H91.1275V1.396H92.4015V3.328H94.4035V4.378H92.4015ZM97.5011 4.378V8.9C97.5011 9.27333 97.5805 9.53933 97.7391 9.698C97.8978 9.84733 98.1731 9.922 98.5651 9.922H99.5031V11H98.3551C97.6458 11 97.1138 10.8367 96.7591 10.51C96.4045 10.1833 96.2271 9.64667 96.2271 8.9V4.378H95.2331V3.328H96.2271V1.396H97.5011V3.328H99.5031V4.378H97.5011ZM104.393 11.126C103.674 11.126 103.021 10.9627 102.433 10.636C101.854 10.3093 101.397 9.84733 101.061 9.25C100.734 8.64333 100.571 7.94333 100.571 7.15C100.571 6.366 100.739 5.67533 101.075 5.078C101.42 4.47133 101.887 4.00933 102.475 3.692C103.063 3.36533 103.721 3.202 104.449 3.202C105.177 3.202 105.835 3.36533 106.423 3.692C107.011 4.00933 107.473 4.46667 107.809 5.064C108.154 5.66133 108.327 6.35667 108.327 7.15C108.327 7.94333 108.149 8.64333 107.795 9.25C107.449 9.84733 106.978 10.3093 106.381 10.636C105.783 10.9627 105.121 11.126 104.393 11.126ZM104.393 10.006C104.85 10.006 105.279 9.89867 105.681 9.684C106.082 9.46933 106.404 9.14733 106.647 8.718C106.899 8.28867 107.025 7.766 107.025 7.15C107.025 6.534 106.903 6.01133 106.661 5.582C106.418 5.15267 106.101 4.83533 105.709 4.63C105.317 4.41533 104.892 4.308 104.435 4.308C103.968 4.308 103.539 4.41533 103.147 4.63C102.764 4.83533 102.456 5.15267 102.223 5.582C101.989 6.01133 101.873 6.534 101.873 7.15C101.873 7.77533 101.985 8.30267 102.209 8.732C102.442 9.16133 102.75 9.48333 103.133 9.698C103.515 9.90333 103.935 10.006 104.393 10.006ZM113.74 3.188C114.673 3.188 115.429 3.47267 116.008 4.042C116.586 4.602 116.876 5.414 116.876 6.478V11H115.616V6.66C115.616 5.89467 115.424 5.31133 115.042 4.91C114.659 4.49933 114.136 4.294 113.474 4.294C112.802 4.294 112.265 4.504 111.864 4.924C111.472 5.344 111.276 5.95533 111.276 6.758V11H110.002V3.328H111.276V4.42C111.528 4.028 111.868 3.72467 112.298 3.51C112.736 3.29533 113.217 3.188 113.74 3.188ZM122.213 7.136C122.213 6.352 122.372 5.666 122.689 5.078C123.007 4.48067 123.441 4.01867 123.991 3.692C124.551 3.36533 125.172 3.202 125.853 3.202C126.525 3.202 127.109 3.34667 127.603 3.636C128.098 3.92533 128.467 4.28933 128.709 4.728V3.328H129.997V11H128.709V9.572C128.457 10.02 128.079 10.3933 127.575 10.692C127.081 10.9813 126.502 11.126 125.839 11.126C125.158 11.126 124.542 10.958 123.991 10.622C123.441 10.286 123.007 9.81467 122.689 9.208C122.372 8.60133 122.213 7.91067 122.213 7.136ZM128.709 7.15C128.709 6.57133 128.593 6.06733 128.359 5.638C128.126 5.20867 127.809 4.882 127.407 4.658C127.015 4.42467 126.581 4.308 126.105 4.308C125.629 4.308 125.195 4.42 124.803 4.644C124.411 4.868 124.099 5.19467 123.865 5.624C123.632 6.05333 123.515 6.55733 123.515 7.136C123.515 7.724 123.632 8.23733 123.865 8.676C124.099 9.10533 124.411 9.43667 124.803 9.67C125.195 9.894 125.629 10.006 126.105 10.006C126.581 10.006 127.015 9.894 127.407 9.67C127.809 9.43667 128.126 9.10533 128.359 8.676C128.593 8.23733 128.709 7.72867 128.709 7.15ZM135.888 3.188C136.822 3.188 137.578 3.47267 138.156 4.042C138.735 4.602 139.024 5.414 139.024 6.478V11H137.764V6.66C137.764 5.89467 137.573 5.31133 137.19 4.91C136.808 4.49933 136.285 4.294 135.622 4.294C134.95 4.294 134.414 4.504 134.012 4.924C133.62 5.344 133.424 5.95533 133.424 6.758V11H132.15V3.328H133.424V4.42C133.676 4.028 134.017 3.72467 134.446 3.51C134.885 3.29533 135.366 3.188 135.888 3.188ZM140.629 7.136C140.629 6.352 140.788 5.666 141.105 5.078C141.423 4.48067 141.857 4.01867 142.407 3.692C142.967 3.36533 143.593 3.202 144.283 3.202C144.881 3.202 145.436 3.342 145.949 3.622C146.463 3.89267 146.855 4.252 147.125 4.7V0.64H148.413V11H147.125V9.558C146.873 10.0153 146.5 10.3933 146.005 10.692C145.511 10.9813 144.932 11.126 144.269 11.126C143.588 11.126 142.967 10.958 142.407 10.622C141.857 10.286 141.423 9.81467 141.105 9.208C140.788 8.60133 140.629 7.91067 140.629 7.136ZM147.125 7.15C147.125 6.57133 147.009 6.06733 146.775 5.638C146.542 5.20867 146.225 4.882 145.823 4.658C145.431 4.42467 144.997 4.308 144.521 4.308C144.045 4.308 143.611 4.42 143.219 4.644C142.827 4.868 142.515 5.19467 142.281 5.624C142.048 6.05333 141.931 6.55733 141.931 7.136C141.931 7.724 142.048 8.23733 142.281 8.676C142.515 9.10533 142.827 9.43667 143.219 9.67C143.611 9.894 144.045 10.006 144.521 10.006C144.997 10.006 145.431 9.894 145.823 9.67C146.225 9.43667 146.542 9.10533 146.775 8.676C147.009 8.23733 147.125 7.72867 147.125 7.15ZM0.00043752 27.15C0.00043752 26.3567 0.159104 25.666 0.476438 25.078C0.793771 24.4807 1.23244 24.0187 1.79244 23.692C2.36177 23.3653 3.01044 23.202 3.73844 23.202C4.6811 23.202 5.45577 23.4307 6.06244 23.888C6.67844 24.3453 7.08444 24.98 7.28044 25.792H5.90844C5.77777 25.3253 5.5211 24.9567 5.13844 24.686C4.7651 24.4153 4.29844 24.28 3.73844 24.28C3.01044 24.28 2.42244 24.532 1.97444 25.036C1.52644 25.5307 1.30244 26.2353 1.30244 27.15C1.30244 28.074 1.52644 28.788 1.97444 29.292C2.42244 29.796 3.01044 30.048 3.73844 30.048C4.29844 30.048 4.7651 29.9173 5.13844 29.656C5.51177 29.3947 5.76844 29.0213 5.90844 28.536H7.28044C7.0751 29.32 6.66444 29.95 6.04844 30.426C5.43244 30.8927 4.66244 31.126 3.73844 31.126C3.01044 31.126 2.36177 30.9627 1.79244 30.636C1.23244 30.3093 0.793771 29.8473 0.476438 29.25C0.159104 28.6527 0.00043752 27.9527 0.00043752 27.15ZM12.3263 31.126C11.6077 31.126 10.9543 30.9627 10.3663 30.636C9.78768 30.3093 9.33034 29.8473 8.99434 29.25C8.66768 28.6433 8.50434 27.9433 8.50434 27.15C8.50434 26.366 8.67234 25.6753 9.00834 25.078C9.35368 24.4713 9.82034 24.0093 10.4083 23.692C10.9963 23.3653 11.6543 23.202 12.3823 23.202C13.1103 23.202 13.7683 23.3653 14.3563 23.692C14.9443 24.0093 15.4063 24.4667 15.7423 25.064C16.0877 25.6613 16.2603 26.3567 16.2603 27.15C16.2603 27.9433 16.083 28.6433 15.7283 29.25C15.383 29.8473 14.9117 30.3093 14.3143 30.636C13.717 30.9627 13.0543 31.126 12.3263 31.126ZM12.3263 30.006C12.7837 30.006 13.213 29.8987 13.6143 29.684C14.0157 29.4693 14.3377 29.1473 14.5803 28.718C14.8323 28.2887 14.9583 27.766 14.9583 27.15C14.9583 26.534 14.837 26.0113 14.5943 25.582C14.3517 25.1527 14.0343 24.8353 13.6423 24.63C13.2503 24.4153 12.8257 24.308 12.3683 24.308C11.9017 24.308 11.4723 24.4153 11.0803 24.63C10.6977 24.8353 10.3897 25.1527 10.1563 25.582C9.92301 26.0113 9.80634 26.534 9.80634 27.15C9.80634 27.7753 9.91834 28.3027 10.1423 28.732C10.3757 29.1613 10.6837 29.4833 11.0663 29.698C11.449 29.9033 11.869 30.006 12.3263 30.006ZM21.6734 23.188C22.6068 23.188 23.3628 23.4727 23.9414 24.042C24.5201 24.602 24.8094 25.414 24.8094 26.478V31H23.5494V26.66C23.5494 25.8947 23.3581 25.3113 22.9754 24.91C22.5928 24.4993 22.0701 24.294 21.4074 24.294C20.7354 24.294 20.1988 24.504 19.7974 24.924C19.4054 25.344 19.2094 25.9553 19.2094 26.758V31H17.9354V23.328H19.2094V24.42C19.4614 24.028 19.8021 23.7247 20.2314 23.51C20.6701 23.2953 21.1508 23.188 21.6734 23.188ZM30.6285 23.188C31.5618 23.188 32.3178 23.4727 32.8965 24.042C33.4752 24.602 33.7645 25.414 33.7645 26.478V31H32.5045V26.66C32.5045 25.8947 32.3132 25.3113 31.9305 24.91C31.5478 24.4993 31.0252 24.294 30.3625 24.294C29.6905 24.294 29.1538 24.504 28.7525 24.924C28.3605 25.344 28.1645 25.9553 28.1645 26.758V31H26.8905V23.328H28.1645V24.42C28.4165 24.028 28.7572 23.7247 29.1865 23.51C29.6252 23.2953 30.1058 23.188 30.6285 23.188ZM42.8456 26.87C42.8456 27.1127 42.8316 27.3693 42.8036 27.64H36.6716C36.7182 28.396 36.9749 28.9887 37.4416 29.418C37.9176 29.838 38.4916 30.048 39.1636 30.048C39.7142 30.048 40.1716 29.922 40.5356 29.67C40.9089 29.4087 41.1702 29.0633 41.3196 28.634H42.6916C42.4862 29.3713 42.0756 29.9733 41.4596 30.44C40.8436 30.8973 40.0782 31.126 39.1636 31.126C38.4356 31.126 37.7822 30.9627 37.2036 30.636C36.6342 30.3093 36.1862 29.8473 35.8596 29.25C35.5329 28.6433 35.3696 27.9433 35.3696 27.15C35.3696 26.3567 35.5282 25.6613 35.8456 25.064C36.1629 24.4667 36.6062 24.0093 37.1756 23.692C37.7542 23.3653 38.4169 23.202 39.1636 23.202C39.8916 23.202 40.5356 23.3607 41.0956 23.678C41.6556 23.9953 42.0849 24.434 42.3836 24.994C42.6916 25.5447 42.8456 26.17 42.8456 26.87ZM41.5296 26.604C41.5296 26.1187 41.4222 25.7033 41.2076 25.358C40.9929 25.0033 40.6989 24.7373 40.3256 24.56C39.9616 24.3733 39.5556 24.28 39.1076 24.28C38.4636 24.28 37.9129 24.4853 37.4556 24.896C37.0076 25.3067 36.7509 25.876 36.6856 26.604H41.5296ZM44.0512 27.15C44.0512 26.3567 44.2099 25.666 44.5272 25.078C44.8446 24.4807 45.2832 24.0187 45.8432 23.692C46.4126 23.3653 47.0612 23.202 47.7892 23.202C48.7319 23.202 49.5066 23.4307 50.1132 23.888C50.7292 24.3453 51.1352 24.98 51.3312 25.792H49.9592C49.8286 25.3253 49.5719 24.9567 49.1892 24.686C48.8159 24.4153 48.3492 24.28 47.7892 24.28C47.0612 24.28 46.4732 24.532 46.0252 25.036C45.5772 25.5307 45.3532 26.2353 45.3532 27.15C45.3532 28.074 45.5772 28.788 46.0252 29.292C46.4732 29.796 47.0612 30.048 47.7892 30.048C48.3492 30.048 48.8159 29.9173 49.1892 29.656C49.5626 29.3947 49.8192 29.0213 49.9592 28.536H51.3312C51.1259 29.32 50.7152 29.95 50.0992 30.426C49.4832 30.8927 48.7132 31.126 47.7892 31.126C47.0612 31.126 46.4126 30.9627 45.8432 30.636C45.2832 30.3093 44.8446 29.8473 44.5272 29.25C44.2099 28.6527 44.0512 27.9527 44.0512 27.15ZM54.5851 24.378V28.9C54.5851 29.2733 54.6645 29.5393 54.8231 29.698C54.9818 29.8473 55.2571 29.922 55.6491 29.922H56.5871V31H55.4391C54.7298 31 54.1978 30.8367 53.8431 30.51C53.4885 30.1833 53.3111 29.6467 53.3111 28.9V24.378H52.3171V23.328H53.3111V21.396H54.5851V23.328H56.5871V24.378H54.5851ZM63.4172 24.378V28.9C63.4172 29.2733 63.4965 29.5393 63.6552 29.698C63.8138 29.8473 64.0892 29.922 64.4812 29.922H65.4192V31H64.2712C63.5618 31 63.0298 30.8367 62.6752 30.51C62.3205 30.1833 62.1432 29.6467 62.1432 28.9V24.378H61.1492V23.328H62.1432V21.396H63.4172V23.328H65.4192V24.378H63.4172ZM70.3088 31.126C69.5901 31.126 68.9368 30.9627 68.3488 30.636C67.7701 30.3093 67.3128 29.8473 66.9768 29.25C66.6501 28.6433 66.4868 27.9433 66.4868 27.15C66.4868 26.366 66.6548 25.6753 66.9908 25.078C67.3361 24.4713 67.8028 24.0093 68.3908 23.692C68.9788 23.3653 69.6368 23.202 70.3648 23.202C71.0928 23.202 71.7508 23.3653 72.3388 23.692C72.9268 24.0093 73.3888 24.4667 73.7248 25.064C74.0701 25.6613 74.2428 26.3567 74.2428 27.15C74.2428 27.9433 74.0654 28.6433 73.7108 29.25C73.3654 29.8473 72.8941 30.3093 72.2968 30.636C71.6994 30.9627 71.0368 31.126 70.3088 31.126ZM70.3088 30.006C70.7661 30.006 71.1954 29.8987 71.5968 29.684C71.9981 29.4693 72.3201 29.1473 72.5628 28.718C72.8148 28.2887 72.9408 27.766 72.9408 27.15C72.9408 26.534 72.8194 26.0113 72.5768 25.582C72.3341 25.1527 72.0168 24.8353 71.6248 24.63C71.2328 24.4153 70.8081 24.308 70.3508 24.308C69.8841 24.308 69.4548 24.4153 69.0628 24.63C68.6801 24.8353 68.3721 25.1527 68.1388 25.582C67.9054 26.0113 67.7888 26.534 67.7888 27.15C67.7888 27.7753 67.9008 28.3027 68.1248 28.732C68.3581 29.1613 68.6661 29.4833 69.0488 29.698C69.4314 29.9033 69.8514 30.006 70.3088 30.006ZM81.2043 24.378V28.9C81.2043 29.2733 81.2836 29.5393 81.4423 29.698C81.6009 29.8473 81.8763 29.922 82.2683 29.922H83.2063V31H82.0583C81.3489 31 80.8169 30.8367 80.4623 30.51C80.1076 30.1833 79.9303 29.6467 79.9303 28.9V24.378H78.9363V23.328H79.9303V21.396H81.2043V23.328H83.2063V24.378H81.2043ZM88.5579 23.188C89.1365 23.188 89.6592 23.314 90.1259 23.566C90.5925 23.8087 90.9565 24.1773 91.2179 24.672C91.4885 25.1667 91.6239 25.7687 91.6239 26.478V31H90.3639V26.66C90.3639 25.8947 90.1725 25.3113 89.7899 24.91C89.4072 24.4993 88.8845 24.294 88.2219 24.294C87.5499 24.294 87.0132 24.504 86.6119 24.924C86.2199 25.344 86.0239 25.9553 86.0239 26.758V31H84.7499V20.64H86.0239V24.42C86.2759 24.028 86.6212 23.7247 87.0599 23.51C87.5079 23.2953 88.0072 23.188 88.5579 23.188ZM100.705 26.87C100.705 27.1127 100.691 27.3693 100.663 27.64H94.531C94.5776 28.396 94.8343 28.9887 95.301 29.418C95.777 29.838 96.351 30.048 97.023 30.048C97.5736 30.048 98.031 29.922 98.395 29.67C98.7683 29.4087 99.0296 29.0633 99.179 28.634H100.551C100.346 29.3713 99.935 29.9733 99.319 30.44C98.703 30.8973 97.9376 31.126 97.023 31.126C96.295 31.126 95.6416 30.9627 95.063 30.636C94.4936 30.3093 94.0456 29.8473 93.719 29.25C93.3923 28.6433 93.229 27.9433 93.229 27.15C93.229 26.3567 93.3876 25.6613 93.705 25.064C94.0223 24.4667 94.4656 24.0093 95.035 23.692C95.6136 23.3653 96.2763 23.202 97.023 23.202C97.751 23.202 98.395 23.3607 98.955 23.678C99.515 23.9953 99.9443 24.434 100.243 24.994C100.551 25.5447 100.705 26.17 100.705 26.87ZM99.389 26.604C99.389 26.1187 99.2816 25.7033 99.067 25.358C98.8523 25.0033 98.5583 24.7373 98.185 24.56C97.821 24.3733 97.415 24.28 96.967 24.28C96.323 24.28 95.7723 24.4853 95.315 24.896C94.867 25.3067 94.6103 25.876 94.545 26.604H99.389ZM105.643 27.136C105.643 26.352 105.802 25.666 106.119 25.078C106.436 24.4807 106.87 24.0187 107.421 23.692C107.981 23.3653 108.606 23.202 109.297 23.202C109.894 23.202 110.45 23.342 110.963 23.622C111.476 23.8927 111.868 24.252 112.139 24.7V20.64H113.427V31H112.139V29.558C111.887 30.0153 111.514 30.3933 111.019 30.692C110.524 30.9813 109.946 31.126 109.283 31.126C108.602 31.126 107.981 30.958 107.421 30.622C106.87 30.286 106.436 29.8147 106.119 29.208C105.802 28.6013 105.643 27.9107 105.643 27.136ZM112.139 27.15C112.139 26.5713 112.022 26.0673 111.789 25.638C111.556 25.2087 111.238 24.882 110.837 24.658C110.445 24.4247 110.011 24.308 109.535 24.308C109.059 24.308 108.625 24.42 108.233 24.644C107.841 24.868 107.528 25.1947 107.295 25.624C107.062 26.0533 106.945 26.5573 106.945 27.136C106.945 27.724 107.062 28.2373 107.295 28.676C107.528 29.1053 107.841 29.4367 108.233 29.67C108.625 29.894 109.059 30.006 109.535 30.006C110.011 30.006 110.445 29.894 110.837 29.67C111.238 29.4367 111.556 29.1053 111.789 28.676C112.022 28.2373 112.139 27.7287 112.139 27.15ZM122.58 26.87C122.58 27.1127 122.566 27.3693 122.538 27.64H116.406C116.453 28.396 116.709 28.9887 117.176 29.418C117.652 29.838 118.226 30.048 118.898 30.048C119.449 30.048 119.906 29.922 120.27 29.67C120.643 29.4087 120.905 29.0633 121.054 28.634H122.426C122.221 29.3713 121.81 29.9733 121.194 30.44C120.578 30.8973 119.813 31.126 118.898 31.126C118.17 31.126 117.517 30.9627 116.938 30.636C116.369 30.3093 115.921 29.8473 115.594 29.25C115.267 28.6433 115.104 27.9433 115.104 27.15C115.104 26.3567 115.263 25.6613 115.58 25.064C115.897 24.4667 116.341 24.0093 116.91 23.692C117.489 23.3653 118.151 23.202 118.898 23.202C119.626 23.202 120.27 23.3607 120.83 23.678C121.39 23.9953 121.819 24.434 122.118 24.994C122.426 25.5447 122.58 26.17 122.58 26.87ZM121.264 26.604C121.264 26.1187 121.157 25.7033 120.942 25.358C120.727 25.0033 120.433 24.7373 120.06 24.56C119.696 24.3733 119.29 24.28 118.842 24.28C118.198 24.28 117.647 24.4853 117.19 24.896C116.742 25.3067 116.485 25.876 116.42 26.604H121.264ZM127.118 29.824L129.498 23.328H130.856L127.846 31H126.362L123.352 23.328H124.724L127.118 29.824ZM132.767 22.082C132.525 22.082 132.319 21.998 132.151 21.83C131.983 21.662 131.899 21.4567 131.899 21.214C131.899 20.9713 131.983 20.766 132.151 20.598C132.319 20.43 132.525 20.346 132.767 20.346C133.001 20.346 133.197 20.43 133.355 20.598C133.523 20.766 133.607 20.9713 133.607 21.214C133.607 21.4567 133.523 21.662 133.355 21.83C133.197 21.998 133.001 22.082 132.767 22.082ZM133.383 23.328V31H132.109V23.328H133.383ZM135.079 27.15C135.079 26.3567 135.237 25.666 135.555 25.078C135.872 24.4807 136.311 24.0187 136.871 23.692C137.44 23.3653 138.089 23.202 138.817 23.202C139.759 23.202 140.534 23.4307 141.141 23.888C141.757 24.3453 142.163 24.98 142.359 25.792H140.987C140.856 25.3253 140.599 24.9567 140.217 24.686C139.843 24.4153 139.377 24.28 138.817 24.28C138.089 24.28 137.501 24.532 137.053 25.036C136.605 25.5307 136.381 26.2353 136.381 27.15C136.381 28.074 136.605 28.788 137.053 29.292C137.501 29.796 138.089 30.048 138.817 30.048C139.377 30.048 139.843 29.9173 140.217 29.656C140.59 29.3947 140.847 29.0213 140.987 28.536H142.359C142.153 29.32 141.743 29.95 141.127 30.426C140.511 30.8927 139.741 31.126 138.817 31.126C138.089 31.126 137.44 30.9627 136.871 30.636C136.311 30.3093 135.872 29.8473 135.555 29.25C135.237 28.6527 135.079 27.9527 135.079 27.15ZM151.058 26.87C151.058 27.1127 151.044 27.3693 151.016 27.64H144.884C144.931 28.396 145.188 28.9887 145.654 29.418C146.13 29.838 146.704 30.048 147.376 30.048C147.927 30.048 148.384 29.922 148.748 29.67C149.122 29.4087 149.383 29.0633 149.532 28.634H150.904C150.699 29.3713 150.288 29.9733 149.672 30.44C149.056 30.8973 148.291 31.126 147.376 31.126C146.648 31.126 145.995 30.9627 145.416 30.636C144.847 30.3093 144.399 29.8473 144.072 29.25C143.746 28.6433 143.582 27.9433 143.582 27.15C143.582 26.3567 143.741 25.6613 144.058 25.064C144.376 24.4667 144.819 24.0093 145.388 23.692C145.967 23.3653 146.63 23.202 147.376 23.202C148.104 23.202 148.748 23.3607 149.308 23.678C149.868 23.9953 150.298 24.434 150.596 24.994C150.904 25.5447 151.058 26.17 151.058 26.87ZM149.742 26.604C149.742 26.1187 149.635 25.7033 149.42 25.358C149.206 25.0033 148.912 24.7373 148.538 24.56C148.174 24.3733 147.768 24.28 147.32 24.28C146.676 24.28 146.126 24.4853 145.668 24.896C145.22 25.3067 144.964 25.876 144.898 26.604H149.742ZM153.146 31.084C152.903 31.084 152.698 31 152.53 30.832C152.362 30.664 152.278 30.4587 152.278 30.216C152.278 29.9733 152.362 29.768 152.53 29.6C152.698 29.432 152.903 29.348 153.146 29.348C153.379 29.348 153.575 29.432 153.734 29.6C153.902 29.768 153.986 29.9733 153.986 30.216C153.986 30.4587 153.902 30.664 153.734 30.832C153.575 31 153.379 31.084 153.146 31.084Z" fill="#757575"/>
</svg>
