<svg width="207" height="38" viewBox="0 0 207 38" fill="none" xmlns="http://www.w3.org/2000/svg">
<path d="M2.07863 11.816H5.98263V13H0.622625V1.848H2.07863V11.816ZM15.0809 4.232L9.80088 17.128H8.29688L10.0249 12.904L6.48888 4.232H8.10488L10.8569 11.336L13.5769 4.232H15.0809ZM27.0885 4.072C27.7712 4.072 28.3792 4.216 28.9125 4.504C29.4458 4.78133 29.8672 5.20267 30.1765 5.768C30.4858 6.33333 30.6405 7.02133 30.6405 7.832V13H29.2005V8.04C29.2005 7.16533 28.9818 6.49867 28.5445 6.04C28.1178 5.57067 27.5365 5.336 26.8005 5.336C26.0432 5.336 25.4405 5.58133 24.9925 6.072C24.5445 6.552 24.3205 7.25067 24.3205 8.168V13H22.8805V8.04C22.8805 7.16533 22.6618 6.49867 22.2245 6.04C21.7978 5.57067 21.2165 5.336 20.4805 5.336C19.7232 5.336 19.1205 5.58133 18.6725 6.072C18.2245 6.552 18.0005 7.25067 18.0005 8.168V13H16.5445V4.232H18.0005V5.496C18.2885 5.03733 18.6725 4.68533 19.1525 4.44C19.6432 4.19467 20.1818 4.072 20.7685 4.072C21.5045 4.072 22.1552 4.23733 22.7205 4.568C23.2858 4.89867 23.7072 5.384 23.9845 6.024C24.2298 5.40533 24.6352 4.92533 25.2005 4.584C25.7658 4.24267 26.3952 4.072 27.0885 4.072ZM34.4849 5.848C34.7729 5.34667 35.1995 4.93067 35.7649 4.6C36.3409 4.25867 37.0075 4.088 37.7649 4.088C38.5435 4.088 39.2475 4.27467 39.8769 4.648C40.5169 5.02133 41.0182 5.54933 41.3809 6.232C41.7435 6.904 41.9249 7.688 41.9249 8.584C41.9249 9.46933 41.7435 10.2587 41.3809 10.952C41.0182 11.6453 40.5169 12.184 39.8769 12.568C39.2475 12.952 38.5435 13.144 37.7649 13.144C37.0182 13.144 36.3569 12.9787 35.7809 12.648C35.2155 12.3067 34.7835 11.8853 34.4849 11.384V17.16H33.0289V4.232H34.4849V5.848ZM40.4369 8.584C40.4369 7.92267 40.3035 7.34667 40.0369 6.856C39.7702 6.36533 39.4075 5.992 38.9489 5.736C38.5009 5.48 38.0049 5.352 37.4609 5.352C36.9275 5.352 36.4315 5.48533 35.9729 5.752C35.5249 6.008 35.1622 6.38667 34.8849 6.888C34.6182 7.37867 34.4849 7.94933 34.4849 8.6C34.4849 9.26133 34.6182 9.84267 34.8849 10.344C35.1622 10.8347 35.5249 11.2133 35.9729 11.48C36.4315 11.736 36.9275 11.864 37.4609 11.864C38.0049 11.864 38.5009 11.736 38.9489 11.48C39.4075 11.2133 39.7702 10.8347 40.0369 10.344C40.3035 9.84267 40.4369 9.256 40.4369 8.584ZM48.1934 4.072C48.8547 4.072 49.452 4.216 49.9854 4.504C50.5187 4.78133 50.9347 5.20267 51.2334 5.768C51.5427 6.33333 51.6974 7.02133 51.6974 7.832V13H50.2574V8.04C50.2574 7.16533 50.0387 6.49867 49.6014 6.04C49.164 5.57067 48.5667 5.336 47.8094 5.336C47.0414 5.336 46.428 5.576 45.9694 6.056C45.5214 6.536 45.2974 7.23467 45.2974 8.152V13H43.8414V1.16H45.2974V5.48C45.5854 5.032 45.98 4.68533 46.4814 4.44C46.9934 4.19467 47.564 4.072 48.1934 4.072ZM57.8998 13.144C57.0784 13.144 56.3318 12.9573 55.6598 12.584C54.9984 12.2107 54.4758 11.6827 54.0918 11C53.7184 10.3067 53.5318 9.50667 53.5318 8.6C53.5318 7.704 53.7238 6.91467 54.1078 6.232C54.5024 5.53867 55.0358 5.01067 55.7078 4.648C56.3798 4.27467 57.1318 4.088 57.9638 4.088C58.7958 4.088 59.5478 4.27467 60.2198 4.648C60.8918 5.01067 61.4198 5.53333 61.8038 6.216C62.1984 6.89867 62.3958 7.69333 62.3958 8.6C62.3958 9.50667 62.1931 10.3067 61.7878 11C61.3931 11.6827 60.8544 12.2107 60.1718 12.584C59.4891 12.9573 58.7318 13.144 57.8998 13.144ZM57.8998 11.864C58.4224 11.864 58.9131 11.7413 59.3718 11.496C59.8304 11.2507 60.1984 10.8827 60.4758 10.392C60.7638 9.90133 60.9078 9.304 60.9078 8.6C60.9078 7.896 60.7691 7.29867 60.4918 6.808C60.2144 6.31733 59.8518 5.95467 59.4038 5.72C58.9558 5.47467 58.4704 5.352 57.9478 5.352C57.4144 5.352 56.9238 5.47467 56.4758 5.72C56.0384 5.95467 55.6864 6.31733 55.4198 6.808C55.1531 7.29867 55.0198 7.896 55.0198 8.6C55.0198 9.31467 55.1478 9.91733 55.4038 10.408C55.6704 10.8987 56.0224 11.2667 56.4598 11.512C56.8971 11.7467 57.3771 11.864 57.8998 11.864ZM78.3261 1.848L75.0941 13H73.4621L70.8701 4.024L68.1821 13L66.5661 13.016L63.4461 1.848H64.9981L67.4301 11.304L70.1181 1.848H71.7501L74.3101 11.272L76.7581 1.848H78.3261ZM87.9195 8.28C87.9195 8.55733 87.9035 8.85067 87.8715 9.16H80.8635C80.9168 10.024 81.2102 10.7013 81.7435 11.192C82.2875 11.672 82.9435 11.912 83.7115 11.912C84.3408 11.912 84.8635 11.768 85.2795 11.48C85.7062 11.1813 86.0048 10.7867 86.1755 10.296H87.7435C87.5088 11.1387 87.0395 11.8267 86.3355 12.36C85.6315 12.8827 84.7568 13.144 83.7115 13.144C82.8795 13.144 82.1328 12.9573 81.4715 12.584C80.8208 12.2107 80.3088 11.6827 79.9355 11C79.5622 10.3067 79.3755 9.50667 79.3755 8.6C79.3755 7.69333 79.5568 6.89867 79.9195 6.216C80.2822 5.53333 80.7888 5.01067 81.4395 4.648C82.1008 4.27467 82.8582 4.088 83.7115 4.088C84.5435 4.088 85.2795 4.26933 85.9195 4.632C86.5595 4.99467 87.0502 5.496 87.3915 6.136C87.7435 6.76533 87.9195 7.48 87.9195 8.28ZM86.4155 7.976C86.4155 7.42133 86.2928 6.94667 86.0475 6.552C85.8022 6.14667 85.4662 5.84267 85.0395 5.64C84.6235 5.42667 84.1595 5.32 83.6475 5.32C82.9115 5.32 82.2822 5.55467 81.7595 6.024C81.2475 6.49333 80.9542 7.144 80.8795 7.976H86.4155ZM89.2974 8.584C89.2974 7.688 89.4787 6.904 89.8414 6.232C90.204 5.54933 90.7 5.02133 91.3294 4.648C91.9694 4.27467 92.6787 4.088 93.4574 4.088C94.2254 4.088 94.892 4.25333 95.4574 4.584C96.0227 4.91467 96.444 5.33067 96.7214 5.832V4.232H98.1934V13H96.7214V11.368C96.4334 11.88 96.0014 12.3067 95.4254 12.648C94.86 12.9787 94.1987 13.144 93.4414 13.144C92.6627 13.144 91.9587 12.952 91.3294 12.568C90.7 12.184 90.204 11.6453 89.8414 10.952C89.4787 10.2587 89.2974 9.46933 89.2974 8.584ZM96.7214 8.6C96.7214 7.93867 96.588 7.36267 96.3214 6.872C96.0547 6.38133 95.692 6.008 95.2334 5.752C94.7854 5.48533 94.2894 5.352 93.7454 5.352C93.2014 5.352 92.7054 5.48 92.2574 5.736C91.8094 5.992 91.452 6.36533 91.1854 6.856C90.9187 7.34667 90.7854 7.92267 90.7854 8.584C90.7854 9.256 90.9187 9.84267 91.1854 10.344C91.452 10.8347 91.8094 11.2133 92.2574 11.48C92.7054 11.736 93.2014 11.864 93.7454 11.864C94.2894 11.864 94.7854 11.736 95.2334 11.48C95.692 11.2133 96.0547 10.8347 96.3214 10.344C96.588 9.84267 96.7214 9.26133 96.7214 8.6ZM102.11 5.656C102.366 5.15467 102.729 4.76533 103.198 4.488C103.678 4.21067 104.259 4.072 104.942 4.072V5.576H104.558C102.926 5.576 102.11 6.46133 102.11 8.232V13H100.654V4.232H102.11V5.656ZM111.64 2.808C111.363 2.808 111.128 2.712 110.936 2.52C110.744 2.328 110.648 2.09333 110.648 1.816C110.648 1.53867 110.744 1.304 110.936 1.112C111.128 0.919999 111.363 0.823999 111.64 0.823999C111.907 0.823999 112.131 0.919999 112.312 1.112C112.504 1.304 112.6 1.53867 112.6 1.816C112.6 2.09333 112.504 2.328 112.312 2.52C112.131 2.712 111.907 2.808 111.64 2.808ZM112.344 4.232V13H110.888V4.232H112.344ZM117.93 13.144C117.258 13.144 116.655 13.032 116.122 12.808C115.588 12.5733 115.167 12.2533 114.858 11.848C114.548 11.432 114.378 10.9573 114.346 10.424H115.85C115.892 10.8613 116.095 11.2187 116.458 11.496C116.831 11.7733 117.316 11.912 117.914 11.912C118.468 11.912 118.906 11.7893 119.226 11.544C119.546 11.2987 119.706 10.9893 119.706 10.616C119.706 10.232 119.535 9.94933 119.194 9.768C118.852 9.576 118.324 9.38933 117.61 9.208C116.959 9.03733 116.426 8.86667 116.01 8.696C115.604 8.51467 115.252 8.25333 114.954 7.912C114.666 7.56 114.522 7.10133 114.522 6.536C114.522 6.088 114.655 5.67733 114.922 5.304C115.188 4.93067 115.567 4.63733 116.058 4.424C116.548 4.2 117.108 4.088 117.738 4.088C118.708 4.088 119.492 4.33333 120.09 4.824C120.687 5.31467 121.007 5.98667 121.05 6.84H119.594C119.562 6.38133 119.375 6.01333 119.034 5.736C118.703 5.45867 118.255 5.32 117.69 5.32C117.167 5.32 116.751 5.432 116.442 5.656C116.132 5.88 115.978 6.17333 115.978 6.536C115.978 6.824 116.068 7.064 116.25 7.256C116.442 7.43733 116.676 7.58667 116.954 7.704C117.242 7.81067 117.636 7.93333 118.138 8.072C118.767 8.24267 119.279 8.41333 119.674 8.584C120.068 8.744 120.404 8.98933 120.682 9.32C120.97 9.65067 121.119 10.0827 121.13 10.616C121.13 11.096 120.996 11.528 120.73 11.912C120.463 12.296 120.084 12.6 119.594 12.824C119.114 13.0373 118.559 13.144 117.93 13.144ZM129.227 5.432V10.6C129.227 11.0267 129.317 11.3307 129.499 11.512C129.68 11.6827 129.995 11.768 130.443 11.768H131.515V13H130.203C129.392 13 128.784 12.8133 128.379 12.44C127.973 12.0667 127.771 11.4533 127.771 10.6V5.432H126.635V4.232H127.771V2.024H129.227V4.232H131.515V5.432H129.227ZM141.055 4.232V13H139.599V11.704C139.322 12.152 138.932 12.504 138.431 12.76C137.94 13.0053 137.396 13.128 136.799 13.128C136.116 13.128 135.503 12.9893 134.959 12.712C134.415 12.424 133.983 11.9973 133.663 11.432C133.354 10.8667 133.199 10.1787 133.199 9.368V4.232H134.639V9.176C134.639 10.04 134.858 10.7067 135.295 11.176C135.732 11.6347 136.33 11.864 137.087 11.864C137.866 11.864 138.479 11.624 138.927 11.144C139.375 10.664 139.599 9.96533 139.599 9.048V4.232H141.055ZM144.969 5.656C145.225 5.15467 145.588 4.76533 146.057 4.488C146.537 4.21067 147.119 4.072 147.801 4.072V5.576H147.417C145.785 5.576 144.969 6.46133 144.969 8.232V13H143.513V4.232H144.969V5.656ZM153.754 4.072C154.821 4.072 155.685 4.39733 156.346 5.048C157.007 5.688 157.338 6.616 157.338 7.832V13H155.898V8.04C155.898 7.16533 155.679 6.49867 155.242 6.04C154.805 5.57067 154.207 5.336 153.45 5.336C152.682 5.336 152.069 5.576 151.61 6.056C151.162 6.536 150.938 7.23467 150.938 8.152V13H149.482V4.232H150.938V5.48C151.226 5.032 151.615 4.68533 152.106 4.44C152.607 4.19467 153.157 4.072 153.754 4.072ZM167.716 8.28C167.716 8.55733 167.7 8.85067 167.668 9.16H160.66C160.714 10.024 161.007 10.7013 161.54 11.192C162.084 11.672 162.74 11.912 163.508 11.912C164.138 11.912 164.66 11.768 165.076 11.48C165.503 11.1813 165.802 10.7867 165.972 10.296H167.54C167.306 11.1387 166.836 11.8267 166.132 12.36C165.428 12.8827 164.554 13.144 163.508 13.144C162.676 13.144 161.93 12.9573 161.268 12.584C160.618 12.2107 160.106 11.6827 159.732 11C159.359 10.3067 159.172 9.50667 159.172 8.6C159.172 7.69333 159.354 6.89867 159.716 6.216C160.079 5.53333 160.586 5.01067 161.236 4.648C161.898 4.27467 162.655 4.088 163.508 4.088C164.34 4.088 165.076 4.26933 165.716 4.632C166.356 4.99467 166.847 5.496 167.188 6.136C167.54 6.76533 167.716 7.48 167.716 8.28ZM166.212 7.976C166.212 7.42133 166.09 6.94667 165.844 6.552C165.599 6.14667 165.263 5.84267 164.836 5.64C164.42 5.42667 163.956 5.32 163.444 5.32C162.708 5.32 162.079 5.55467 161.556 6.024C161.044 6.49333 160.751 7.144 160.676 7.976H166.212ZM169.094 8.584C169.094 7.688 169.276 6.904 169.638 6.232C170.001 5.54933 170.497 5.02133 171.126 4.648C171.766 4.27467 172.481 4.088 173.27 4.088C173.953 4.088 174.588 4.248 175.174 4.568C175.761 4.87733 176.209 5.288 176.518 5.8V1.16H177.99V13H176.518V11.352C176.23 11.8747 175.804 12.3067 175.238 12.648C174.673 12.9787 174.012 13.144 173.254 13.144C172.476 13.144 171.766 12.952 171.126 12.568C170.497 12.184 170.001 11.6453 169.638 10.952C169.276 10.2587 169.094 9.46933 169.094 8.584ZM176.518 8.6C176.518 7.93867 176.385 7.36267 176.118 6.872C175.852 6.38133 175.489 6.008 175.03 5.752C174.582 5.48533 174.086 5.352 173.542 5.352C172.998 5.352 172.502 5.48 172.054 5.736C171.606 5.992 171.249 6.36533 170.982 6.856C170.716 7.34667 170.582 7.92267 170.582 8.584C170.582 9.256 170.716 9.84267 170.982 10.344C171.249 10.8347 171.606 11.2133 172.054 11.48C172.502 11.736 172.998 11.864 173.542 11.864C174.086 11.864 174.582 11.736 175.03 11.48C175.489 11.2133 175.852 10.8347 176.118 10.344C176.385 9.84267 176.518 9.26133 176.518 8.6ZM188.54 13.144C187.719 13.144 186.972 12.9573 186.3 12.584C185.639 12.2107 185.116 11.6827 184.732 11C184.359 10.3067 184.172 9.50667 184.172 8.6C184.172 7.704 184.364 6.91467 184.748 6.232C185.143 5.53867 185.676 5.01067 186.348 4.648C187.02 4.27467 187.772 4.088 188.604 4.088C189.436 4.088 190.188 4.27467 190.86 4.648C191.532 5.01067 192.06 5.53333 192.444 6.216C192.839 6.89867 193.036 7.69333 193.036 8.6C193.036 9.50667 192.834 10.3067 192.428 11C192.034 11.6827 191.495 12.2107 190.812 12.584C190.13 12.9573 189.372 13.144 188.54 13.144ZM188.54 11.864C189.063 11.864 189.554 11.7413 190.012 11.496C190.471 11.2507 190.839 10.8827 191.116 10.392C191.404 9.90133 191.548 9.304 191.548 8.6C191.548 7.896 191.41 7.29867 191.132 6.808C190.855 6.31733 190.492 5.95467 190.044 5.72C189.596 5.47467 189.111 5.352 188.588 5.352C188.055 5.352 187.564 5.47467 187.116 5.72C186.679 5.95467 186.327 6.31733 186.06 6.808C185.794 7.29867 185.66 7.896 185.66 8.6C185.66 9.31467 185.788 9.91733 186.044 10.408C186.311 10.8987 186.663 11.2667 187.1 11.512C187.538 11.7467 188.018 11.864 188.54 11.864ZM198.519 5.432H196.679V13H195.223V5.432H194.087V4.232H195.223V3.608C195.223 2.62667 195.473 1.912 195.975 1.464C196.487 1.00533 197.303 0.775999 198.423 0.775999V1.992C197.783 1.992 197.329 2.12 197.063 2.376C196.807 2.62133 196.679 3.032 196.679 3.608V4.232H198.519V5.432ZM203.784 5.432H201.944V13H200.488V5.432H199.352V4.232H200.488V3.608C200.488 2.62667 200.739 1.912 201.24 1.464C201.752 1.00533 202.568 0.775999 203.688 0.775999V1.992C203.048 1.992 202.595 2.12 202.328 2.376C202.072 2.62133 201.944 3.032 201.944 3.608V4.232H203.784V5.432ZM205.946 13.096C205.669 13.096 205.434 13 205.242 12.808C205.05 12.616 204.954 12.3813 204.954 12.104C204.954 11.8267 205.05 11.592 205.242 11.4C205.434 11.208 205.669 11.112 205.946 11.112C206.213 11.112 206.437 11.208 206.618 11.4C206.81 11.592 206.906 11.8267 206.906 12.104C206.906 12.3813 206.81 12.616 206.618 12.808C206.437 13 206.213 13.096 205.946 13.096ZM26.5491 21.848V23.032H23.5091V33H22.0531V23.032H18.9971V21.848H26.5491ZM36.1174 24.232V33H34.6614V31.704C34.384 32.152 33.9947 32.504 33.4934 32.76C33.0027 33.0053 32.4587 33.128 31.8614 33.128C31.1787 33.128 30.5654 32.9893 30.0214 32.712C29.4774 32.424 29.0454 31.9973 28.7254 31.432C28.416 30.8667 28.2614 30.1787 28.2614 29.368V24.232H29.7014V29.176C29.7014 30.04 29.92 30.7067 30.3574 31.176C30.7947 31.6347 31.392 31.864 32.1494 31.864C32.928 31.864 33.5414 31.624 33.9894 31.144C34.4374 30.664 34.6614 29.9653 34.6614 29.048V24.232H36.1174ZM40.0318 25.656C40.2878 25.1547 40.6504 24.7653 41.1198 24.488C41.5998 24.2107 42.1811 24.072 42.8638 24.072V25.576H42.4798C40.8478 25.576 40.0318 26.4613 40.0318 28.232V33H38.5758V24.232H40.0318V25.656ZM48.8165 24.072C49.8832 24.072 50.7472 24.3973 51.4085 25.048C52.0698 25.688 52.4005 26.616 52.4005 27.832V33H50.9605V28.04C50.9605 27.1653 50.7418 26.4987 50.3045 26.04C49.8672 25.5707 49.2698 25.336 48.5125 25.336C47.7445 25.336 47.1312 25.576 46.6725 26.056C46.2245 26.536 46.0005 27.2347 46.0005 28.152V33H44.5445V24.232H46.0005V25.48C46.2885 25.032 46.6778 24.6853 47.1685 24.44C47.6698 24.1947 48.2192 24.072 48.8165 24.072ZM62.8685 33.144C62.0472 33.144 61.3005 32.9573 60.6285 32.584C59.9672 32.2107 59.4445 31.6827 59.0605 31C58.6872 30.3067 58.5005 29.5067 58.5005 28.6C58.5005 27.704 58.6925 26.9147 59.0765 26.232C59.4712 25.5387 60.0045 25.0107 60.6765 24.648C61.3485 24.2747 62.1005 24.088 62.9325 24.088C63.7645 24.088 64.5165 24.2747 65.1885 24.648C65.8605 25.0107 66.3885 25.5333 66.7725 26.216C67.1672 26.8987 67.3645 27.6933 67.3645 28.6C67.3645 29.5067 67.1618 30.3067 66.7565 31C66.3618 31.6827 65.8232 32.2107 65.1405 32.584C64.4578 32.9573 63.7005 33.144 62.8685 33.144ZM62.8685 31.864C63.3912 31.864 63.8818 31.7413 64.3405 31.496C64.7992 31.2507 65.1672 30.8827 65.4445 30.392C65.7325 29.9013 65.8765 29.304 65.8765 28.6C65.8765 27.896 65.7378 27.2987 65.4605 26.808C65.1832 26.3173 64.8205 25.9547 64.3725 25.72C63.9245 25.4747 63.4392 25.352 62.9165 25.352C62.3832 25.352 61.8925 25.4747 61.4445 25.72C61.0072 25.9547 60.6552 26.3173 60.3885 26.808C60.1218 27.2987 59.9885 27.896 59.9885 28.6C59.9885 29.3147 60.1165 29.9173 60.3725 30.408C60.6392 30.8987 60.9912 31.2667 61.4285 31.512C61.8658 31.7467 62.3458 31.864 62.8685 31.864ZM73.5509 24.072C74.6175 24.072 75.4815 24.3973 76.1429 25.048C76.8042 25.688 77.1349 26.616 77.1349 27.832V33H75.6949V28.04C75.6949 27.1653 75.4762 26.4987 75.0389 26.04C74.6015 25.5707 74.0042 25.336 73.2469 25.336C72.4789 25.336 71.8655 25.576 71.4069 26.056C70.9589 26.536 70.7349 27.2347 70.7349 28.152V33H69.2789V24.232H70.7349V25.48C71.0229 25.032 71.4122 24.6853 71.9029 24.44C72.4042 24.1947 72.9535 24.072 73.5509 24.072ZM85.2349 31.816H89.1389V33H83.7789V21.848H85.2349V31.816ZM98.2371 24.232L92.9571 37.128H91.4531L93.1811 32.904L89.6451 24.232H91.2611L94.0131 31.336L96.7331 24.232H98.2371ZM110.245 24.072C110.927 24.072 111.535 24.216 112.069 24.504C112.602 24.7813 113.023 25.2027 113.333 25.768C113.642 26.3333 113.797 27.0213 113.797 27.832V33H112.357V28.04C112.357 27.1653 112.138 26.4987 111.701 26.04C111.274 25.5707 110.693 25.336 109.957 25.336C109.199 25.336 108.597 25.5813 108.149 26.072C107.701 26.552 107.477 27.2507 107.477 28.168V33H106.037V28.04C106.037 27.1653 105.818 26.4987 105.381 26.04C104.954 25.5707 104.373 25.336 103.637 25.336C102.879 25.336 102.277 25.5813 101.829 26.072C101.381 26.552 101.157 27.2507 101.157 28.168V33H99.7008V24.232H101.157V25.496C101.445 25.0373 101.829 24.6853 102.309 24.44C102.799 24.1947 103.338 24.072 103.925 24.072C104.661 24.072 105.311 24.2373 105.877 24.568C106.442 24.8987 106.863 25.384 107.141 26.024C107.386 25.4053 107.791 24.9253 108.357 24.584C108.922 24.2427 109.551 24.072 110.245 24.072ZM117.641 25.848C117.929 25.3467 118.356 24.9307 118.921 24.6C119.497 24.2587 120.164 24.088 120.921 24.088C121.7 24.088 122.404 24.2747 123.033 24.648C123.673 25.0213 124.174 25.5493 124.537 26.232C124.9 26.904 125.081 27.688 125.081 28.584C125.081 29.4693 124.9 30.2587 124.537 30.952C124.174 31.6453 123.673 32.184 123.033 32.568C122.404 32.952 121.7 33.144 120.921 33.144C120.174 33.144 119.513 32.9787 118.937 32.648C118.372 32.3067 117.94 31.8853 117.641 31.384V37.16H116.185V24.232H117.641V25.848ZM123.593 28.584C123.593 27.9227 123.46 27.3467 123.193 26.856C122.926 26.3653 122.564 25.992 122.105 25.736C121.657 25.48 121.161 25.352 120.617 25.352C120.084 25.352 119.588 25.4853 119.129 25.752C118.681 26.008 118.318 26.3867 118.041 26.888C117.774 27.3787 117.641 27.9493 117.641 28.6C117.641 29.2613 117.774 29.8427 118.041 30.344C118.318 30.8347 118.681 31.2133 119.129 31.48C119.588 31.736 120.084 31.864 120.617 31.864C121.161 31.864 121.657 31.736 122.105 31.48C122.564 31.2133 122.926 30.8347 123.193 30.344C123.46 29.8427 123.593 29.256 123.593 28.584ZM131.35 24.072C132.011 24.072 132.608 24.216 133.142 24.504C133.675 24.7813 134.091 25.2027 134.39 25.768C134.699 26.3333 134.854 27.0213 134.854 27.832V33H133.414V28.04C133.414 27.1653 133.195 26.4987 132.758 26.04C132.32 25.5707 131.723 25.336 130.966 25.336C130.198 25.336 129.584 25.576 129.126 26.056C128.678 26.536 128.454 27.2347 128.454 28.152V33H126.998V21.16H128.454V25.48C128.742 25.032 129.136 24.6853 129.638 24.44C130.15 24.1947 130.72 24.072 131.35 24.072ZM141.056 33.144C140.235 33.144 139.488 32.9573 138.816 32.584C138.155 32.2107 137.632 31.6827 137.248 31C136.875 30.3067 136.688 29.5067 136.688 28.6C136.688 27.704 136.88 26.9147 137.264 26.232C137.659 25.5387 138.192 25.0107 138.864 24.648C139.536 24.2747 140.288 24.088 141.12 24.088C141.952 24.088 142.704 24.2747 143.376 24.648C144.048 25.0107 144.576 25.5333 144.96 26.216C145.355 26.8987 145.552 27.6933 145.552 28.6C145.552 29.5067 145.349 30.3067 144.944 31C144.549 31.6827 144.011 32.2107 143.328 32.584C142.645 32.9573 141.888 33.144 141.056 33.144ZM141.056 31.864C141.579 31.864 142.069 31.7413 142.528 31.496C142.987 31.2507 143.355 30.8827 143.632 30.392C143.92 29.9013 144.064 29.304 144.064 28.6C144.064 27.896 143.925 27.2987 143.648 26.808C143.371 26.3173 143.008 25.9547 142.56 25.72C142.112 25.4747 141.627 25.352 141.104 25.352C140.571 25.352 140.08 25.4747 139.632 25.72C139.195 25.9547 138.843 26.3173 138.576 26.808C138.309 27.2987 138.176 27.896 138.176 28.6C138.176 29.3147 138.304 29.9173 138.56 30.408C138.827 30.8987 139.179 31.2667 139.616 31.512C140.053 31.7467 140.533 31.864 141.056 31.864ZM161.482 21.848L158.25 33H156.618L154.026 24.024L151.338 33L149.722 33.016L146.602 21.848H148.154L150.586 31.304L153.274 21.848H154.906L157.466 31.272L159.914 21.848H161.482ZM171.076 28.28C171.076 28.5573 171.06 28.8507 171.028 29.16H164.02C164.073 30.024 164.366 30.7013 164.9 31.192C165.444 31.672 166.1 31.912 166.868 31.912C167.497 31.912 168.02 31.768 168.436 31.48C168.862 31.1813 169.161 30.7867 169.332 30.296H170.9C170.665 31.1387 170.196 31.8267 169.492 32.36C168.788 32.8827 167.913 33.144 166.868 33.144C166.036 33.144 165.289 32.9573 164.628 32.584C163.977 32.2107 163.465 31.6827 163.092 31C162.718 30.3067 162.532 29.5067 162.532 28.6C162.532 27.6933 162.713 26.8987 163.076 26.216C163.438 25.5333 163.945 25.0107 164.596 24.648C165.257 24.2747 166.014 24.088 166.868 24.088C167.7 24.088 168.436 24.2693 169.076 24.632C169.716 24.9947 170.206 25.496 170.548 26.136C170.9 26.7653 171.076 27.48 171.076 28.28ZM169.572 27.976C169.572 27.4213 169.449 26.9467 169.204 26.552C168.958 26.1467 168.622 25.8427 168.196 25.64C167.78 25.4267 167.316 25.32 166.804 25.32C166.068 25.32 165.438 25.5547 164.916 26.024C164.404 26.4933 164.11 27.144 164.036 27.976H169.572ZM172.454 28.584C172.454 27.688 172.635 26.904 172.998 26.232C173.36 25.5493 173.856 25.0213 174.486 24.648C175.126 24.2747 175.835 24.088 176.614 24.088C177.382 24.088 178.048 24.2533 178.614 24.584C179.179 24.9147 179.6 25.3307 179.878 25.832V24.232H181.35V33H179.878V31.368C179.59 31.88 179.158 32.3067 178.582 32.648C178.016 32.9787 177.355 33.144 176.598 33.144C175.819 33.144 175.115 32.952 174.486 32.568C173.856 32.184 173.36 31.6453 172.998 30.952C172.635 30.2587 172.454 29.4693 172.454 28.584ZM179.878 28.6C179.878 27.9387 179.744 27.3627 179.478 26.872C179.211 26.3813 178.848 26.008 178.39 25.752C177.942 25.4853 177.446 25.352 176.902 25.352C176.358 25.352 175.862 25.48 175.414 25.736C174.966 25.992 174.608 26.3653 174.342 26.856C174.075 27.3467 173.942 27.9227 173.942 28.584C173.942 29.256 174.075 29.8427 174.342 30.344C174.608 30.8347 174.966 31.2133 175.414 31.48C175.862 31.736 176.358 31.864 176.902 31.864C177.446 31.864 177.942 31.736 178.39 31.48C178.848 31.2133 179.211 30.8347 179.478 30.344C179.744 29.8427 179.878 29.2613 179.878 28.6ZM185.266 25.656C185.522 25.1547 185.885 24.7653 186.354 24.488C186.834 24.2107 187.415 24.072 188.098 24.072V25.576H187.714C186.082 25.576 185.266 26.4613 185.266 28.232V33H183.81V24.232H185.266V25.656Z" fill="#212121"/>
</svg>
