<svg width="16" height="16" viewBox="0 0 16 16" fill="none" xmlns="http://www.w3.org/2000/svg">
<path fill-rule="evenodd" clip-rule="evenodd" d="M7.99999 2C8.23501 2 8.42553 2.19052 8.42553 2.42553V3.56028C8.42553 3.7953 8.23501 3.98582 7.99999 3.98582C7.76498 3.98582 7.57446 3.7953 7.57446 3.56028V2.42553C7.57446 2.19052 7.76498 2 7.99999 2Z" fill="#424242"/>
<path fill-rule="evenodd" clip-rule="evenodd" d="M7.99999 13.3477C8.23501 13.3477 8.42553 13.5382 8.42553 13.7732V14.9079C8.42553 15.143 8.23501 15.3335 7.99999 15.3335C7.76498 15.3335 7.57446 15.143 7.57446 14.9079V13.7732C7.57446 13.5382 7.76498 13.3477 7.99999 13.3477Z" fill="#424242"/>
<path fill-rule="evenodd" clip-rule="evenodd" d="M3.28504 3.95178C3.45122 3.7856 3.72065 3.7856 3.88683 3.95178L4.6925 4.75746C4.85868 4.92364 4.85868 5.19307 4.6925 5.35925C4.52632 5.52543 4.25689 5.52543 4.09071 5.35925L3.28504 4.55358C3.11886 4.3874 3.11886 4.11796 3.28504 3.95178Z" fill="#424242"/>
<path fill-rule="evenodd" clip-rule="evenodd" d="M11.3075 11.9742C11.4737 11.8081 11.7431 11.8081 11.9093 11.9742L12.715 12.7799C12.8811 12.9461 12.8811 13.2155 12.715 13.3817C12.5488 13.5479 12.2794 13.5479 12.1132 13.3817L11.3075 12.576C11.1413 12.4099 11.1413 12.1404 11.3075 11.9742Z" fill="#424242"/>
<path fill-rule="evenodd" clip-rule="evenodd" d="M1.33325 8.66674C1.33325 8.43173 1.52377 8.24121 1.75878 8.24121H2.89354C3.12855 8.24121 3.31907 8.43173 3.31907 8.66674C3.31907 8.90176 3.12855 9.09227 2.89354 9.09227H1.75878C1.52377 9.09227 1.33325 8.90176 1.33325 8.66674Z" fill="#424242"/>
<path fill-rule="evenodd" clip-rule="evenodd" d="M12.6809 8.66674C12.6809 8.43173 12.8714 8.24121 13.1064 8.24121H14.2412C14.4762 8.24121 14.6667 8.43173 14.6667 8.66674C14.6667 8.90176 14.4762 9.09227 14.2412 9.09227H13.1064C12.8714 9.09227 12.6809 8.90176 12.6809 8.66674Z" fill="#424242"/>
<path fill-rule="evenodd" clip-rule="evenodd" d="M4.6925 11.9742C4.85868 12.1404 4.85868 12.4099 4.6925 12.576L3.88683 13.3817C3.72065 13.5479 3.45122 13.5479 3.28504 13.3817C3.11886 13.2155 3.11886 12.9461 3.28504 12.7799L4.09071 11.9742C4.25689 11.8081 4.52632 11.8081 4.6925 11.9742Z" fill="#424242"/>
<path fill-rule="evenodd" clip-rule="evenodd" d="M12.715 3.95178C12.8811 4.11796 12.8811 4.3874 12.715 4.55358L11.9093 5.35925C11.7431 5.52543 11.4737 5.52543 11.3075 5.35925C11.1413 5.19307 11.1413 4.92364 11.3075 4.75746L12.1132 3.95178C12.2794 3.7856 12.5488 3.7856 12.715 3.95178Z" fill="#424242"/>
<path d="M7.99996 12.0707C6.12175 12.0707 4.5957 10.5447 4.5957 8.66646C4.5957 6.78825 6.12175 5.26221 7.99996 5.26221C9.87817 5.26221 11.4042 6.78825 11.4042 8.66646C11.4042 10.5447 9.87817 12.0707 7.99996 12.0707ZM7.99996 5.96654C6.51148 5.96654 5.30003 7.17798 5.30003 8.66646C5.30003 10.1549 6.51148 11.3664 7.99996 11.3664C9.48844 11.3664 10.6999 10.1549 10.6999 8.66646C10.6999 7.17798 9.48844 5.96654 7.99996 5.96654Z" fill="#424242"/>
</svg>
