<svg width="24" height="24" viewBox="0 0 24 24" fill="none" xmlns="http://www.w3.org/2000/svg">
<path fill-rule="evenodd" clip-rule="evenodd" d="M12 2.75C6.89137 2.75 2.75 6.89137 2.75 12C2.75 17.1086 6.89137 21.25 12 21.25C17.1086 21.25 21.25 17.1086 21.25 12C21.25 6.89137 17.1086 2.75 12 2.75ZM1.25 12C1.25 6.06294 6.06294 1.25 12 1.25C17.9371 1.25 22.75 6.06294 22.75 12C22.75 17.9371 17.9371 22.75 12 22.75C6.06294 22.75 1.25 17.9371 1.25 12Z" fill="#212121"/>
<path d="M12.7628 8.74512V15.0001H11.7368V10.7161L9.82881 15.0001H9.1178L7.2008 10.7161V15.0001H6.1748V8.74512H7.2818L9.4778 13.6501L11.6648 8.74512H12.7628Z" fill="black"/>
<path d="M18.5753 10.0411L15.5333 17.3311H14.4713L15.4793 14.9191L13.5263 10.0411H14.6693L16.0643 13.8211L17.5133 10.0411H18.5753Z" fill="black"/>
</svg>
