<svg width="24" height="24" viewBox="0 0 24 24" fill="none" xmlns="http://www.w3.org/2000/svg">
<path fill-rule="evenodd" clip-rule="evenodd" d="M12 12.25C12.4142 12.25 12.75 12.5858 12.75 13V19C12.75 19.4142 12.4142 19.75 12 19.75C11.5858 19.75 11.25 19.4142 11.25 19V13C11.25 12.5858 11.5858 12.25 12 12.25Z" fill="#9E9E9E"/>
<path fill-rule="evenodd" clip-rule="evenodd" d="M18 9.25C18.4142 9.25 18.75 9.58579 18.75 10V19C18.75 19.4142 18.4142 19.75 18 19.75C17.5858 19.75 17.25 19.4142 17.25 19V10C17.25 9.58579 17.5858 9.25 18 9.25Z" fill="#9E9E9E"/>
<path fill-rule="evenodd" clip-rule="evenodd" d="M6 15.25C6.41421 15.25 6.75 15.5858 6.75 16V19C6.75 19.4142 6.41421 19.75 6 19.75C5.58579 19.75 5.25 19.4142 5.25 19V16C5.25 15.5858 5.58579 15.25 6 15.25Z" fill="#9E9E9E"/>
</svg>
