<svg width="32" height="32" viewBox="0 0 32 32" fill="none" xmlns="http://www.w3.org/2000/svg">
<circle opacity="0.24" cx="16" cy="16" r="16" fill="#7F53FA"/>
<path fill-rule="evenodd" clip-rule="evenodd" d="M16.6561 5.74055C16.8109 6.01525 16.7899 6.35528 16.6024 6.60885C15.6806 7.85594 15.2371 9.39246 15.3524 10.939C15.4677 12.4854 16.1343 13.9392 17.2309 15.0358C18.3274 16.1323 19.7812 16.7989 21.3277 16.9142C22.8742 17.0295 24.4107 16.586 25.6578 15.6642C25.9113 15.4767 26.2514 15.4557 26.5261 15.6106C26.8008 15.7654 26.9589 16.0671 26.9299 16.3811C26.7524 18.3014 26.0317 20.1315 24.8522 21.6571C23.6726 23.1828 22.0829 24.341 20.2691 24.9961C18.4553 25.6513 16.4924 25.7763 14.6102 25.3566C12.7279 24.9369 11.0041 23.9898 9.64042 22.6262C8.27678 21.2625 7.32969 19.5387 6.90999 17.6565C6.49029 15.7742 6.61533 13.8113 7.27049 11.9975C7.92564 10.1837 9.08381 8.59405 10.6095 7.41446C12.1351 6.23487 13.9652 5.51418 15.8855 5.33672C16.1995 5.3077 16.5012 5.46584 16.6561 5.74055Z" fill="#7F53FA"/>
</svg>
