<svg width="148" height="24" viewBox="0 0 148 24" fill="none" xmlns="http://www.w3.org/2000/svg">
<g clip-path="url(#clip0_783_15966)">
<path d="M80.1202 5.75977C76.6002 5.75977 73.7402 8.61977 73.7402 12.1398C73.7402 15.6598 76.6002 18.5198 80.1202 18.5198C83.6402 18.5198 86.5002 15.6598 86.5002 12.1398C86.5002 8.61977 83.6402 5.75977 80.1202 5.75977V5.75977ZM80.1202 16.0898C77.9402 16.0898 76.1602 14.3198 76.1602 12.1298C76.1602 9.93977 77.9302 8.16977 80.1202 8.16977C82.3102 8.16977 84.0802 9.93977 84.0802 12.1298C84.0802 14.3198 82.3002 16.0898 80.1202 16.0898Z" fill="#757575"/>
<path d="M51.4796 5.76023C49.9896 5.76023 48.6096 6.28023 47.5196 7.14023V6.96023C47.5196 6.29023 46.9796 5.75023 46.3096 5.75023C45.6396 5.75023 45.0996 6.29023 45.0996 6.96023V22.1802C45.0996 22.8502 45.6396 23.3902 46.3096 23.3902C46.9796 23.3902 47.5196 22.8502 47.5196 22.1802V17.1202C48.6096 17.9802 49.9796 18.5002 51.4796 18.5002C54.9996 18.5002 57.8596 15.6402 57.8596 12.1202C57.8596 8.60023 54.9996 5.74023 51.4796 5.74023V5.76023ZM51.4796 16.0902C49.2996 16.0902 47.5196 14.3202 47.5196 12.1302C47.5196 9.95023 49.2896 8.17023 51.4796 8.17023C53.6696 8.17023 55.4396 9.94023 55.4396 12.1302C55.4396 14.3202 53.6596 16.0902 51.4796 16.0902Z" fill="#757575"/>
<path d="M37.4697 5.8102C36.0397 5.8102 34.6996 6.4302 33.7596 7.5102C32.8196 6.4302 31.4796 5.8102 30.0496 5.8102C29.1496 5.8102 28.2696 6.0602 27.4996 6.5302C27.3396 6.0402 26.8796 5.7002 26.3496 5.7002C25.6796 5.7002 25.1396 6.2402 25.1396 6.9102V17.3002C25.1396 17.9702 25.6896 18.5102 26.3596 18.5102C27.0296 18.5102 27.5696 17.9702 27.5696 17.3002V10.7202C27.5696 9.3502 28.6796 8.2302 30.0496 8.2302C31.4196 8.2302 32.5396 9.3402 32.5396 10.7202V17.3002C32.5396 17.9802 33.0796 18.5102 33.7796 18.5102C34.4796 18.5102 34.9897 17.9702 34.9897 17.3002V10.7202C34.9897 9.3502 36.0996 8.2302 37.4796 8.2302C38.8596 8.2302 39.9596 9.3402 39.9596 10.7202V17.3002C39.9596 17.9702 40.4996 18.5102 41.1696 18.5102C41.8396 18.5102 42.3797 17.9702 42.3797 17.3002V10.7202C42.3797 8.0202 40.1796 5.8202 37.4796 5.8202L37.4697 5.8102Z" fill="#757575"/>
<path d="M10.57 17.69C11.04 17.5 11.38 17.03 11.38 16.49C11.38 15.77 10.8 15.19 10.08 15.19C9.84 15.19 9.62 15.26 9.42 15.37C8.9 15.6 8.03 15.99 6.65 15.99C4.71 15.99 2.62 14.76 2.62 12.07V1.74996C2.62 1.66996 2.61 1.59996 2.6 1.52996C2.6 1.52996 2.6 1.50996 2.6 1.49996C2.6 1.46996 2.58 1.43996 2.57 1.39996C2.41 0.859961 1.92 0.459961 1.32 0.459961C0.72 0.459961 0.2 0.869961 0.05 1.41996C0.05 1.44996 0.03 1.46996 0.03 1.49996C0.03 1.53996 0.03 1.56996 0.02 1.60996C0.02 1.65996 0 1.69996 0 1.75996V12.07C0 16.35 3.34 18.59 6.64 18.59C8.56 18.59 9.67 18.13 10.55 17.7C10.55 17.7 10.56 17.7 10.57 17.7V17.69Z" fill="#757575"/>
<path d="M21.8199 5.7998C21.3199 5.7998 20.8999 6.0998 20.7199 6.5298L17.6399 13.6198L14.0099 6.6298C14.0099 6.6298 13.9799 6.5698 13.9599 6.5398C13.9499 6.4998 13.9299 6.4698 13.9099 6.4398C13.7099 6.0598 13.3199 5.7998 12.8599 5.7998C12.1999 5.7998 11.6599 6.3398 11.6599 6.9898C11.6599 7.1298 11.6899 7.2598 11.7299 7.3898C11.7399 7.4498 11.7599 7.5098 11.7799 7.5698L16.2399 16.4998C16.2899 16.6498 16.2999 16.7698 16.2399 16.9098L15.4899 18.6498C14.7999 20.2498 13.6099 21.1398 12.1399 21.1398C11.6299 21.1398 11.0999 21.0298 10.5199 20.7898C10.4199 20.7498 10.3299 20.7398 10.2299 20.7298C10.1799 20.7298 10.1199 20.7098 10.0699 20.7098C9.40988 20.7098 8.87988 21.2498 8.87988 21.9098C8.87988 22.3198 9.08988 22.6898 9.40988 22.8998C9.46988 22.9498 9.53988 22.9898 9.60988 23.0198C10.4499 23.3698 11.2899 23.5498 12.1299 23.5498C14.5899 23.5498 16.6699 22.0698 17.6999 19.5998L22.9099 7.4998C22.9099 7.4998 22.9099 7.4998 22.9099 7.4898C22.9699 7.3398 23.0099 7.1798 23.0099 7.0198C23.0099 6.3598 22.4799 5.8198 21.8099 5.8198L21.8199 5.7998Z" fill="#757575"/>
<path d="M65.8005 5.34992C64.5305 5.34992 63.3605 5.75992 62.4005 6.44992V1.87992C62.4005 1.20992 61.8605 0.669922 61.1905 0.669922C60.5205 0.669922 59.9805 1.20992 59.9805 1.87992V17.3099C59.9805 17.9799 60.5205 18.5199 61.1905 18.5199C61.8605 18.5199 62.4005 17.9799 62.4005 17.3099V11.1799C62.4005 9.30992 63.9205 7.78992 65.8005 7.78992C67.6805 7.78992 69.2005 9.30992 69.2005 11.1799V17.3099C69.2005 17.9799 69.7405 18.5199 70.4105 18.5199C71.0805 18.5199 71.6205 17.9799 71.6205 17.3099V11.1799C71.6205 7.96992 69.0105 5.35992 65.8005 5.35992V5.34992Z" fill="#757575"/>
<path d="M134.4 6.2398C133.91 6.2398 133.5 6.6398 133.5 7.1398V7.8298L133.35 7.6798C132.15 6.4698 130.56 5.7998 128.86 5.7998C125.38 5.7998 122.56 8.6298 122.56 12.0998C122.56 15.5698 125.39 18.3998 128.86 18.3998C130.56 18.3998 132.15 17.7298 133.35 16.5198L133.5 16.3698V17.5198C133.5 18.0098 133.9 18.4198 134.4 18.4198C134.9 18.4198 135.3 18.0198 135.3 17.5198V7.1298C135.3 6.6398 134.9 6.2298 134.4 6.2298V6.2398ZM128.86 16.7198C126.3 16.7198 124.22 14.6398 124.22 12.0898C124.22 9.5398 126.3 7.4598 128.86 7.4598C131.42 7.4598 133.5 9.5398 133.5 12.0898C133.5 14.6398 131.42 16.7198 128.86 16.7198Z" fill="#757575"/>
<path d="M147.42 6.54022C146.61 6.14022 145.6 5.72021 143.83 5.72021C140.85 5.72021 137.84 7.74022 137.84 11.6002V17.4802C137.84 17.4802 137.84 17.5002 137.84 17.5302V17.6502L137.87 17.7002C137.98 18.0802 138.32 18.3502 138.72 18.3502C139.12 18.3502 139.45 18.0802 139.57 17.7002C139.57 17.6802 139.58 17.6702 139.59 17.6502V17.6202C139.59 17.6202 139.61 17.5302 139.61 17.4702V11.5902C139.61 8.76022 141.8 7.48022 143.84 7.48022C145.25 7.48022 146.14 7.88021 146.68 8.12021C146.82 8.20021 146.97 8.25022 147.12 8.25022C147.61 8.25022 148 7.85021 148 7.37021C148 7.01021 147.78 6.69022 147.42 6.54022V6.54022Z" fill="#757575"/>
<path d="M120.88 10.8401C120.28 7.9501 117.7 5.8501 114.75 5.8501C111.8 5.8501 109.09 8.0401 108.57 11.0501C108.5 11.4301 108.47 11.7801 108.47 12.1201C108.47 12.2601 108.47 12.4001 108.49 12.5401V12.5901C108.73 15.8501 111.48 18.4001 114.74 18.4001C116.98 18.4001 119.07 17.1801 120.18 15.2201C120.19 15.2001 120.2 15.1701 120.21 15.1501L120.24 15.0601C120.24 15.0601 120.25 15.0201 120.26 14.9901C120.28 14.9101 120.29 14.8501 120.29 14.7801C120.29 14.3501 119.94 13.9901 119.5 13.9901C119.28 13.9901 119.07 14.0801 118.91 14.2601C118.84 14.3201 118.79 14.3901 118.76 14.4501C117.92 15.8801 116.38 16.7801 114.73 16.7801C112.39 16.7801 110.4 15.0301 110.1 12.7101V12.6101H119.48C120.27 12.6101 120.91 11.9601 120.91 11.1701C120.91 11.0801 120.9 10.9901 120.89 10.9201L120.87 10.8201L120.88 10.8401ZM110.22 11.0201L110.25 10.9101C110.8 8.8801 112.65 7.4601 114.75 7.4601C116.43 7.4601 117.99 8.3701 118.81 9.8401C118.96 10.1101 119.09 10.3901 119.18 10.6601V10.6901C119.21 10.7601 119.24 10.8401 119.26 10.9101L119.29 11.0201H110.23H110.22Z" fill="#757575"/>
<path d="M107.03 2.56982C106.64 2.56982 106.31 2.83982 106.21 3.19982L103.3 14.6598L103.19 15.0898L102.85 16.3898C102.81 16.5598 102.66 16.6798 102.48 16.6798C102.3 16.6798 102.16 16.5598 102.12 16.3998L101.77 15.0998L101.65 14.6798L98.7199 4.24982C98.6999 4.19982 98.6899 4.15982 98.6699 4.12982C98.6099 4.00982 98.5399 3.91982 98.4599 3.84982C98.4399 3.82982 98.4199 3.80982 98.3999 3.79982C98.3799 3.78982 98.3599 3.77982 98.3399 3.75982C98.3099 3.73982 98.2899 3.72982 98.2599 3.71982C98.2399 3.71982 98.2299 3.69982 98.2099 3.69982C98.1799 3.68982 98.1399 3.67982 98.0999 3.66982H98.0599C98.0099 3.64982 97.9599 3.63982 97.8999 3.63982C97.8499 3.63982 97.7899 3.63982 97.7399 3.65982H97.6999C97.6999 3.65982 97.6299 3.68982 97.5899 3.69982C97.5699 3.69982 97.5499 3.70982 97.5399 3.71982C97.5099 3.72982 97.4799 3.74982 97.4599 3.75982C97.4399 3.76982 97.4199 3.77982 97.3999 3.79982C97.3799 3.80982 97.3599 3.82982 97.3399 3.84982C97.2599 3.91982 97.1899 4.00982 97.1299 4.12982C97.1099 4.15982 97.0999 4.19982 97.0799 4.24982L94.1499 14.6798L94.0299 15.0998L93.6799 16.3998C93.6299 16.5598 93.4899 16.6798 93.3199 16.6798C93.1499 16.6798 92.9999 16.5498 92.9499 16.3898L92.6099 15.0898L92.4999 14.6598L89.5899 3.19982C89.4899 2.83982 89.1599 2.56982 88.7699 2.56982C88.2999 2.56982 87.9199 2.94982 87.9199 3.41982C87.9199 3.53982 87.9499 3.64982 87.9499 3.64982C87.9499 3.64982 91.4099 17.2198 91.3999 17.1898C91.6799 17.9798 92.4299 18.5498 93.3199 18.5498C94.2099 18.5498 94.9099 18.0198 95.2099 17.2598C95.2099 17.2398 95.2299 17.2098 95.2399 17.1898C95.2399 17.2098 95.2899 17.0298 95.2899 17.0398L97.9099 7.13982L100.53 17.0398C100.53 17.0398 100.58 17.1998 100.58 17.1898C100.58 17.2198 100.6 17.2398 100.61 17.2598C100.91 18.0098 101.64 18.5498 102.5 18.5498C103.36 18.5498 104.14 17.9798 104.42 17.1898C104.42 17.2198 107.87 3.64982 107.87 3.64982C107.87 3.64982 107.9 3.53982 107.9 3.41982C107.9 2.94982 107.52 2.56982 107.05 2.56982H107.03Z" fill="#757575"/>
</g>
<defs>
<clipPath id="clip0_783_15966">
<rect width="148" height="24" fill="white"/>
</clipPath>
</defs>
</svg>
