<svg width="148" height="24" viewBox="0 0 148 24" fill="none" xmlns="http://www.w3.org/2000/svg">
<g clip-path="url(#clip0_251_4185)">
<path d="M147.559 6.2763C146.892 5.88482 145.725 5.71118 144.948 5.71118C141.343 5.71118 138.949 8.41047 138.949 11.9811V17.0545C138.949 18.0774 140.717 18.0774 140.717 17.0545V11.9811C140.717 9.38916 142.316 7.49492 144.948 7.49492C145.963 7.49492 146.676 7.88956 147.171 7.88956C147.357 7.88305 147.536 7.8152 147.681 7.69637C147.825 7.57754 147.927 7.41426 147.971 7.23144C148.015 7.04862 147.999 6.8563 147.924 6.68384C147.85 6.51138 147.721 6.36825 147.559 6.2763Z" fill="#757575"/>
<path d="M122.37 10.7214C122.128 9.29768 121.394 8.0062 120.299 7.07518C119.204 6.14417 117.818 5.63354 116.386 5.63354C114.954 5.63354 113.568 6.14417 112.473 7.07518C111.378 8.0062 110.645 9.29768 110.402 10.7214C110.342 11.0665 110.31 11.416 110.308 11.7664C110.308 11.9053 110.308 12.0379 110.327 12.1737V12.221C110.422 13.5306 110.932 14.7748 111.781 15.7697C112.631 16.7646 113.775 17.4576 115.045 17.7464C116.315 18.0351 117.643 17.9043 118.834 17.3733C120.024 16.8422 121.014 15.9391 121.657 14.7972C121.731 14.6689 121.771 14.5229 121.771 14.3741C121.771 14.2254 121.731 14.0794 121.657 13.9511C121.586 13.826 121.483 13.722 121.36 13.6499C121.236 13.5778 121.096 13.5401 120.953 13.5407H120.893C120.745 13.5423 120.6 13.5831 120.473 13.6591C120.345 13.735 120.24 13.8433 120.167 13.9732C119.708 14.7727 119.012 15.4071 118.177 15.7871C117.343 16.1672 116.411 16.2737 115.513 16.0919C114.615 15.91 113.796 15.4489 113.171 14.7732C112.546 14.0976 112.147 13.2415 112.03 12.3252H121.294C121.452 12.3255 121.608 12.2919 121.753 12.2266C121.897 12.1612 122.026 12.0656 122.13 11.9462C122.235 11.8267 122.314 11.6861 122.36 11.5337C122.407 11.3814 122.421 11.2207 122.402 11.0624C122.405 10.9456 122.389 10.8319 122.37 10.7214ZM112.164 10.6204C112.419 9.68675 112.97 8.86314 113.733 8.27612C114.496 7.68911 115.43 7.37118 116.389 7.37118C117.349 7.37118 118.283 7.68911 119.046 8.27612C119.809 8.86314 120.36 9.68675 120.615 10.6204H112.164Z" fill="#757575"/>
<path d="M135.581 5.81535C135.345 5.81534 135.118 5.90961 134.951 6.07757C134.783 6.24554 134.688 6.47358 134.686 6.71196V7.60541C133.861 6.72425 132.793 6.11312 131.621 5.85113C130.448 5.58915 129.224 5.68839 128.107 6.13599C126.991 6.58359 126.034 7.35894 125.359 8.36166C124.684 9.36438 124.324 10.5483 124.324 11.7601C124.324 12.9719 124.684 14.1558 125.359 15.1585C126.034 16.1613 126.991 16.9366 128.107 17.3842C129.224 17.8318 130.448 17.9311 131.621 17.6691C132.793 17.4071 133.861 16.796 134.686 15.9148V16.8146C134.686 17.054 134.78 17.2837 134.948 17.453C135.116 17.6224 135.344 17.7175 135.581 17.7175C135.819 17.7175 136.046 17.6224 136.214 17.453C136.382 17.2837 136.476 17.054 136.476 16.8146V6.71196C136.475 6.47358 136.38 6.24554 136.212 6.07757C136.044 5.90961 135.818 5.81534 135.581 5.81535V5.81535ZM130.336 16.0127C129.503 16.0152 128.688 15.7683 127.994 15.3034C127.3 14.8385 126.759 14.1764 126.438 13.4009C126.117 12.6254 126.032 11.7714 126.193 10.9469C126.354 10.1225 126.753 9.36471 127.341 8.76947C127.929 8.17424 128.679 7.76832 129.495 7.60309C130.312 7.43787 131.159 7.52076 131.929 7.84129C132.699 8.16182 133.357 8.70557 133.821 9.40372C134.284 10.1019 134.532 10.923 134.533 11.7633C134.533 12.8875 134.091 13.966 133.304 14.7625C132.518 15.5589 131.45 16.0085 130.336 16.0127V16.0127Z" fill="#757575"/>
<path d="M80.7854 5.34814C79.5268 5.34814 78.2965 5.72465 77.2501 6.43004C76.2037 7.13544 75.3881 8.13803 74.9067 9.31101C74.4252 10.484 74.2993 11.7747 74.5451 13.0198C74.7909 14.2649 75.3972 15.4085 76.2873 16.306C77.1775 17.2035 78.3115 17.8145 79.546 18.0618C80.7805 18.3091 82.0599 18.1816 83.2225 17.6953C84.3851 17.209 85.3786 16.3859 86.0774 15.33C86.7762 14.2741 87.1488 13.0329 87.1482 11.7633C87.1457 10.0621 86.4745 8.43138 85.2817 7.22875C84.0888 6.02613 82.4719 5.34981 80.7854 5.34814ZM80.7854 15.6465C80.0248 15.6465 79.2812 15.419 78.6488 14.9928C78.0163 14.5666 77.5233 13.9608 77.232 13.252C76.9408 12.5432 76.8645 11.7632 77.0126 11.0107C77.1608 10.2581 77.5268 9.56673 78.0644 9.02397C78.6021 8.48122 79.2871 8.11143 80.0331 7.96136C80.779 7.8113 81.5523 7.88768 82.2552 8.18087C82.9581 8.47405 83.5591 8.97088 83.9821 9.60853C84.4052 10.2462 84.6313 10.996 84.6319 11.7633C84.6319 12.7926 84.2267 13.7799 83.5055 14.508C82.7842 15.2362 81.8058 15.6457 80.7854 15.6465V15.6465Z" fill="#757575"/>
<path d="M10.103 16.5588C10.1084 16.3984 10.0819 16.2385 10.025 16.0886C9.96802 15.9387 9.88184 15.8018 9.77153 15.6861C9.66121 15.5704 9.52899 15.4783 9.38271 15.415C9.23643 15.3518 9.07906 15.3189 8.91992 15.3181C8.74144 15.3088 8.56386 15.3492 8.40664 15.4349C7.8615 15.6775 7.27171 15.8012 6.67589 15.798C4.89192 15.798 2.49453 14.7246 2.49453 11.6938V1.12079C2.49453 0.388353 1.86858 0.00634766 1.24263 0.00634766C0.616674 0.00634766 -0.00927734 0.388353 -0.00927734 1.12079V11.7001C-0.00927734 16.2463 3.60246 18.3299 6.6665 18.3299C7.62798 18.3481 8.58048 18.1406 9.44885 17.7238C9.65742 17.6137 9.83006 17.4452 9.94608 17.2385C10.0621 17.0319 10.1166 16.7959 10.103 16.5588V16.5588Z" fill="#757575"/>
<path d="M20.7127 5.76468C20.4285 5.64946 20.1122 5.64333 19.8238 5.74748C19.5355 5.85162 19.2949 6.0588 19.1478 6.3298L16.0712 13.6131L13.0229 6.3961C12.9723 6.25564 12.8937 6.12713 12.792 6.01852C12.6902 5.90992 12.5675 5.82352 12.4313 5.76468C12.2685 5.70143 12.0945 5.67245 11.9201 5.67951C11.7457 5.68656 11.5746 5.72952 11.4173 5.80573C11.263 5.85525 11.1207 5.93696 10.9997 6.04555C10.8787 6.15414 10.7817 6.28718 10.715 6.43604C10.6483 6.5849 10.6134 6.74625 10.6125 6.90961C10.6116 7.07297 10.6448 7.23468 10.71 7.38426L14.6315 16.6155C14.6848 16.7525 14.6848 16.9047 14.6315 17.0417L13.8554 18.8697C13.1387 20.5524 11.8993 21.4805 10.3688 21.4805C9.7879 21.4705 9.21465 21.345 8.68188 21.1112C8.53246 21.0563 8.37361 21.0324 8.21482 21.0408C8.05603 21.0493 7.90056 21.09 7.7577 21.1604C7.61484 21.2308 7.48752 21.3296 7.38335 21.4508C7.27919 21.572 7.20031 21.7131 7.15143 21.8657C7.02905 22.1525 7.01986 22.4756 7.12574 22.769C7.23161 23.0624 7.44454 23.3039 7.72104 23.4442C8.55047 23.8012 9.44205 23.9879 10.3438 23.9936C12.9008 23.9936 15.0666 22.4466 16.1401 19.8515L21.4043 7.3148C21.461 7.16732 21.488 7.00994 21.4839 6.85182C21.4797 6.6937 21.4444 6.53799 21.38 6.39375C21.3157 6.24952 21.2235 6.11962 21.109 6.01163C20.9944 5.90364 20.8597 5.81969 20.7127 5.76468V5.76468Z" fill="#757575"/>
<path d="M50.9212 5.29126C49.4841 5.29192 48.0896 5.78381 46.9652 6.68668C46.9374 6.35176 46.7788 6.0417 46.5244 5.82471C46.27 5.60772 45.9405 5.50157 45.6085 5.52962C45.2764 5.55767 44.9691 5.71762 44.754 5.97428C44.5388 6.23094 44.4336 6.56328 44.4614 6.89821V22.5793C44.4614 22.9164 44.5941 23.2396 44.8304 23.4779C45.0666 23.7162 45.387 23.8501 45.7211 23.8501C46.0552 23.8501 46.3757 23.7162 46.6119 23.4779C46.8481 23.2396 46.9809 22.9164 46.9809 22.5793V16.7451C47.7773 17.3781 48.7122 17.8099 49.7076 18.0045C50.7031 18.199 51.7302 18.1506 52.7033 17.8634C53.6765 17.5761 54.5674 17.0583 55.3018 16.3531C56.0363 15.6479 56.5929 14.7759 56.9253 13.8096C57.2578 12.8433 57.3563 11.8109 57.2128 10.7984C57.0693 9.78587 56.6878 8.82266 56.1003 7.98908C55.5127 7.1555 54.7361 6.47571 53.8352 6.00641C52.9343 5.53712 51.9352 5.29191 50.9212 5.29126V5.29126ZM54.7677 11.7096C54.7677 12.477 54.5421 13.2271 54.1195 13.8652C53.6968 14.5033 53.0961 15.0006 52.3932 15.2943C51.6904 15.5879 50.917 15.6648 50.1708 15.515C49.4247 15.3653 48.7393 14.9958 48.2014 14.4532C47.6634 13.9105 47.2971 13.2192 47.1487 12.4665C47.0003 11.7139 47.0764 10.9337 47.3676 10.2247C47.6587 9.51576 48.1517 8.90979 48.7843 8.48344C49.4168 8.0571 50.1605 7.82954 50.9212 7.82954C51.9409 7.83121 52.9183 8.24053 53.6393 8.96782C54.3603 9.6951 54.7661 10.681 54.7677 11.7096V11.7096Z" fill="#757575"/>
<path d="M66.0911 5.13342C64.6982 5.12212 63.3413 5.57985 62.2353 6.43413V1.26917C62.2353 0.934251 62.1034 0.613047 61.8686 0.376221C61.6338 0.139395 61.3154 0.00634766 60.9833 0.00634766C60.6513 0.00634766 60.3329 0.139395 60.0981 0.376221C59.8633 0.613047 59.7314 0.934251 59.7314 1.26917V17.446C59.7314 17.7809 59.8633 18.1021 60.0981 18.3389C60.3329 18.5757 60.6513 18.7088 60.9833 18.7088C61.3154 18.7088 61.6338 18.5757 61.8686 18.3389C62.1034 18.1021 62.2353 17.7809 62.2353 17.446V11.5265C62.2353 10.4974 62.6405 9.51053 63.3619 8.78288C64.0832 8.05523 65.0616 7.64644 66.0817 7.64644C67.1019 7.64644 68.0802 8.05523 68.8016 8.78288C69.5229 9.51053 69.9282 10.4974 69.9282 11.5265V17.446C69.9282 17.7809 70.0601 18.1021 70.2949 18.3389C70.5297 18.5757 70.8481 18.7088 71.1801 18.7088C71.5121 18.7088 71.8305 18.5757 72.0653 18.3389C72.3001 18.1021 72.432 17.7809 72.432 17.446V11.5391C72.4271 9.84338 71.7577 8.2184 70.5699 7.01845C69.3821 5.8185 67.7722 5.14091 66.0911 5.13342Z" fill="#757575"/>
<path d="M36.6995 5.40483C35.9671 5.40466 35.2433 5.56426 34.5777 5.87269C33.9122 6.18112 33.3206 6.63108 32.8436 7.19173C32.0567 6.26685 30.9688 5.65519 29.7751 5.46656C28.5814 5.27793 27.3602 5.52469 26.3306 6.16253C26.2457 5.86632 26.0564 5.61166 25.7983 5.44656C25.5401 5.28146 25.231 5.21732 24.9292 5.26625C24.6274 5.31517 24.3538 5.47377 24.16 5.71215C23.9661 5.95053 23.8654 6.25221 23.8769 6.56032V17.4459C23.8769 17.7837 24.0099 18.1077 24.2467 18.3466C24.4836 18.5855 24.8048 18.7198 25.1397 18.7198C25.4746 18.7198 25.7959 18.5855 26.0327 18.3466C26.2695 18.1077 26.4026 17.7837 26.4026 17.4459V10.5508C26.3905 10.201 26.4484 9.85222 26.5728 9.52539C26.6972 9.19857 26.8856 8.90036 27.1267 8.64854C27.3678 8.39672 27.6567 8.19645 27.9761 8.05966C28.2956 7.92288 28.6391 7.85239 28.9862 7.85239C29.3332 7.85239 29.6768 7.92288 29.9962 8.05966C30.3157 8.19645 30.6046 8.39672 30.8457 8.64854C31.0868 8.90036 31.2752 9.19857 31.3996 9.52539C31.524 9.85222 31.5819 10.201 31.5698 10.5508V17.4459C31.586 17.7752 31.7271 18.0857 31.9639 18.313C32.2007 18.5403 32.5151 18.6671 32.842 18.6671C33.169 18.6671 33.4833 18.5403 33.7202 18.313C33.957 18.0857 34.0981 17.7752 34.1143 17.4459V10.5508C34.1143 9.85923 34.3867 9.19594 34.8715 8.7069C35.3563 8.21785 36.0138 7.94311 36.6995 7.94311C37.3851 7.94311 38.0427 8.21785 38.5275 8.7069C39.0123 9.19594 39.2847 9.85923 39.2847 10.5508V17.4459C39.2847 17.7808 39.4165 18.102 39.6513 18.3388C39.8861 18.5757 40.2045 18.7087 40.5366 18.7087C40.8686 18.7087 41.187 18.5757 41.4218 18.3388C41.6566 18.102 41.7885 17.7808 41.7885 17.4459V10.5508C41.7868 9.18874 41.2505 7.8827 40.2969 6.91836C39.3432 5.95401 38.0498 5.40984 36.6995 5.40483V5.40483Z" fill="#757575"/>
<path d="M108.343 1.55959C108.104 1.55866 107.872 1.64364 107.69 1.79928C107.508 1.95492 107.386 2.17103 107.347 2.40884L105.069 14.6835C104.941 15.4917 104.568 15.8863 103.927 15.8863C103.363 15.8863 102.969 15.4475 102.812 14.6582L100.309 2.64562C100.249 2.34137 100.087 2.06737 99.8494 1.87043C99.6119 1.67349 99.3141 1.56583 99.0066 1.56583C98.6992 1.56583 98.4013 1.67349 98.1639 1.87043C97.9264 2.06737 97.7641 2.34137 97.7047 2.64562L95.2009 14.6582C95.0412 15.4601 94.6563 15.8863 94.0867 15.8863C93.4607 15.8863 93.0726 15.4917 92.9443 14.6835L90.6658 2.40884C90.6422 2.277 90.5931 2.15115 90.5212 2.03846C90.4494 1.92578 90.3562 1.82848 90.2471 1.75211C90.138 1.67574 90.015 1.62181 89.8852 1.59338C89.7554 1.56495 89.6213 1.56259 89.4906 1.58643C89.3599 1.61026 89.2352 1.65984 89.1234 1.73231C89.0117 1.80479 88.9153 1.89875 88.8396 2.00884C88.7639 2.11892 88.7104 2.24296 88.6822 2.37389C88.654 2.50482 88.6517 2.64006 88.6753 2.7719L91.2949 15.2707C91.5234 16.4704 92.3903 17.869 94.0867 17.869C95.783 17.869 96.6218 16.5272 96.8815 15.2707L98.9785 5.02605L99.0505 5.41437L101.132 15.2707C101.392 16.5335 102.262 17.869 103.927 17.869C105.592 17.869 106.493 16.4704 106.722 15.2707L109.338 2.7719C109.367 2.62409 109.363 2.47167 109.326 2.32568C109.289 2.17969 109.22 2.04378 109.125 1.92776C109.03 1.81174 108.91 1.71853 108.775 1.65485C108.64 1.59118 108.492 1.55864 108.343 1.55959V1.55959Z" fill="#757575"/>
</g>
<defs>
<clipPath id="clip0_251_4185">
<rect width="148" height="24" fill="white"/>
</clipPath>
</defs>
</svg>
