<svg width="310" height="128" viewBox="0 0 310 128" fill="none" xmlns="http://www.w3.org/2000/svg">
<rect width="310" height="128" rx="13" fill="#E0E0E0"/>
<mask id="mask0_375_6854" style="mask-type:alpha" maskUnits="userSpaceOnUse" x="141" y="50" width="28" height="28">
<path fill-rule="evenodd" clip-rule="evenodd" d="M141.667 50.667H168.28V77.2667H141.667V50.667Z" fill="white"/>
</mask>
<g mask="url(#mask0_375_6854)">
<path fill-rule="evenodd" clip-rule="evenodd" d="M149.201 52.6665C145.839 52.6665 143.667 54.9692 143.667 58.5318V69.4012C143.667 72.9652 145.839 75.2665 149.201 75.2665H160.734C164.103 75.2665 166.281 72.9652 166.281 69.4012V58.5318C166.281 54.9692 164.103 52.6665 160.734 52.6665H149.201ZM160.734 77.2665H149.201C144.694 77.2665 141.667 74.1052 141.667 69.4012V58.5318C141.667 53.8278 144.694 50.6665 149.201 50.6665H160.734C165.247 50.6665 168.281 53.8278 168.281 58.5318V69.4012C168.281 74.1052 165.247 77.2665 160.734 77.2665V77.2665Z" fill="#BDBDBD"/>
<path fill-rule="evenodd" clip-rule="evenodd" d="M146.042 70.9072C145.794 70.9072 145.547 70.8165 145.354 70.6325C144.953 70.2538 144.937 69.6192 145.317 69.2205L147.354 67.0698C148.433 65.9245 150.253 65.8685 151.403 66.9485L152.681 68.2445C153.037 68.6045 153.615 68.6112 153.973 68.2592C154.107 68.1005 157.011 64.5738 157.011 64.5738C157.563 63.9045 158.342 63.4912 159.207 63.4058C160.074 63.3298 160.915 63.5818 161.586 64.1325C161.643 64.1792 161.695 64.2245 164.623 67.2312C165.009 67.6258 165.002 68.2592 164.606 68.6445C164.211 69.0325 163.577 69.0205 163.191 68.6258C163.191 68.6258 160.459 65.8218 160.265 65.6325C160.058 65.4632 159.726 65.3645 159.399 65.3965C159.067 65.4298 158.769 65.5885 158.557 65.8458C155.458 69.6045 155.421 69.6405 155.37 69.6898C154.226 70.8125 152.379 70.7938 151.255 69.6472C151.255 69.6472 150.015 68.3885 149.994 68.3632C149.686 68.0778 149.137 68.0965 148.807 68.4445L146.767 70.5952C146.57 70.8032 146.306 70.9072 146.042 70.9072V70.9072Z" fill="#BDBDBD"/>
<path fill-rule="evenodd" clip-rule="evenodd" d="M150.41 58.8384C149.673 58.8384 149.073 59.4384 149.073 60.177C149.073 60.9157 149.673 61.517 150.411 61.517C151.15 61.517 151.751 60.9157 151.751 60.177C151.751 59.4397 151.15 58.8397 150.41 58.8384M150.411 63.517C148.57 63.517 147.073 62.0184 147.073 60.177C147.073 58.3357 148.57 56.8384 150.411 56.8384C152.254 56.8397 153.751 58.3384 153.751 60.177C153.751 62.0184 152.253 63.517 150.411 63.517" fill="#BDBDBD"/>
</g>
</svg>
