<svg width="233" height="14" viewBox="0 0 233 14" fill="none" xmlns="http://www.w3.org/2000/svg">
<path d="M8.54913 1.848V3.032H5.50913V13H4.05313V3.032H0.997125V1.848H8.54913ZM14.6934 4.072C15.3547 4.072 15.952 4.216 16.4854 4.504C17.0187 4.78133 17.4347 5.20267 17.7334 5.768C18.0427 6.33333 18.1974 7.02133 18.1974 7.832V13H16.7574V8.04C16.7574 7.16533 16.5387 6.49867 16.1014 6.04C15.664 5.57067 15.0667 5.336 14.3094 5.336C13.5414 5.336 12.928 5.576 12.4694 6.056C12.0214 6.536 11.7974 7.23467 11.7974 8.152V13H10.3414V1.16H11.7974V5.48C12.0854 5.032 12.48 4.68533 12.9814 4.44C13.4934 4.19467 14.064 4.072 14.6934 4.072ZM28.5758 8.28C28.5758 8.55733 28.5598 8.85067 28.5278 9.16H21.5198C21.5731 10.024 21.8664 10.7013 22.3998 11.192C22.9438 11.672 23.5998 11.912 24.3678 11.912C24.9971 11.912 25.5198 11.768 25.9358 11.48C26.3624 11.1813 26.6611 10.7867 26.8318 10.296H28.3998C28.1651 11.1387 27.6958 11.8267 26.9918 12.36C26.2878 12.8827 25.4131 13.144 24.3678 13.144C23.5358 13.144 22.7891 12.9573 22.1278 12.584C21.4771 12.2107 20.9651 11.6827 20.5918 11C20.2184 10.3067 20.0318 9.50667 20.0318 8.6C20.0318 7.69333 20.2131 6.89867 20.5758 6.216C20.9384 5.53333 21.4451 5.01067 22.0958 4.648C22.7571 4.27467 23.5144 4.088 24.3678 4.088C25.1998 4.088 25.9358 4.26933 26.5758 4.632C27.2158 4.99467 27.7064 5.496 28.0478 6.136C28.3998 6.76533 28.5758 7.48 28.5758 8.28ZM27.0718 7.976C27.0718 7.42133 26.9491 6.94667 26.7038 6.552C26.4584 6.14667 26.1224 5.84267 25.6958 5.64C25.2798 5.42667 24.8158 5.32 24.3038 5.32C23.5678 5.32 22.9384 5.55467 22.4158 6.024C21.9038 6.49333 21.6104 7.144 21.5358 7.976H27.0718ZM31.9536 5.656C32.2096 5.15467 32.5723 4.76533 33.0416 4.488C33.5216 4.21067 34.103 4.072 34.7856 4.072V5.576H34.4016C32.7696 5.576 31.9536 6.46133 31.9536 8.232V13H30.4976V4.232H31.9536V5.656ZM44.4664 8.28C44.4664 8.55733 44.4504 8.85067 44.4184 9.16H37.4104C37.4637 10.024 37.757 10.7013 38.2904 11.192C38.8344 11.672 39.4904 11.912 40.2584 11.912C40.8877 11.912 41.4104 11.768 41.8264 11.48C42.253 11.1813 42.5517 10.7867 42.7224 10.296H44.2904C44.0557 11.1387 43.5864 11.8267 42.8824 12.36C42.1784 12.8827 41.3037 13.144 40.2584 13.144C39.4264 13.144 38.6797 12.9573 38.0184 12.584C37.3677 12.2107 36.8557 11.6827 36.4824 11C36.109 10.3067 35.9224 9.50667 35.9224 8.6C35.9224 7.69333 36.1037 6.89867 36.4664 6.216C36.829 5.53333 37.3357 5.01067 37.9864 4.648C38.6477 4.27467 39.405 4.088 40.2584 4.088C41.0904 4.088 41.8264 4.26933 42.4664 4.632C43.1064 4.99467 43.597 5.496 43.9384 6.136C44.2904 6.76533 44.4664 7.48 44.4664 8.28ZM42.9624 7.976C42.9624 7.42133 42.8397 6.94667 42.5944 6.552C42.349 6.14667 42.013 5.84267 41.5864 5.64C41.1704 5.42667 40.7064 5.32 40.1944 5.32C39.4584 5.32 38.829 5.55467 38.3064 6.024C37.7944 6.49333 37.501 7.144 37.4264 7.976H42.9624ZM46.6123 1.848H48.2283L46.6923 5.48H45.6683L46.6123 1.848ZM52.9923 13.144C52.3203 13.144 51.7176 13.032 51.1843 12.808C50.6509 12.5733 50.2296 12.2533 49.9203 11.848C49.6109 11.432 49.4403 10.9573 49.4083 10.424H50.9123C50.9549 10.8613 51.1576 11.2187 51.5203 11.496C51.8936 11.7733 52.3789 11.912 52.9763 11.912C53.5309 11.912 53.9683 11.7893 54.2883 11.544C54.6083 11.2987 54.7683 10.9893 54.7683 10.616C54.7683 10.232 54.5976 9.94933 54.2563 9.768C53.9149 9.576 53.3869 9.38933 52.6723 9.208C52.0216 9.03733 51.4883 8.86667 51.0723 8.696C50.6669 8.51467 50.3149 8.25333 50.0163 7.912C49.7283 7.56 49.5843 7.10133 49.5843 6.536C49.5843 6.088 49.7176 5.67733 49.9843 5.304C50.2509 4.93067 50.6296 4.63733 51.1203 4.424C51.6109 4.2 52.1709 4.088 52.8003 4.088C53.7709 4.088 54.5549 4.33333 55.1523 4.824C55.7496 5.31467 56.0696 5.98667 56.1123 6.84H54.6563C54.6243 6.38133 54.4376 6.01333 54.0963 5.736C53.7656 5.45867 53.3176 5.32 52.7523 5.32C52.2296 5.32 51.8136 5.432 51.5043 5.656C51.1949 5.88 51.0403 6.17333 51.0403 6.536C51.0403 6.824 51.1309 7.064 51.3123 7.256C51.5043 7.43733 51.7389 7.58667 52.0163 7.704C52.3043 7.81067 52.6989 7.93333 53.2003 8.072C53.8296 8.24267 54.3416 8.41333 54.7363 8.584C55.1309 8.744 55.4669 8.98933 55.7443 9.32C56.0323 9.65067 56.1816 10.0827 56.1923 10.616C56.1923 11.096 56.0589 11.528 55.7923 11.912C55.5256 12.296 55.1469 12.6 54.6563 12.824C54.1763 13.0373 53.6216 13.144 52.9923 13.144ZM66.7853 4.072C67.8519 4.072 68.7159 4.39733 69.3773 5.048C70.0386 5.688 70.3693 6.616 70.3693 7.832V13H68.9293V8.04C68.9293 7.16533 68.7106 6.49867 68.2733 6.04C67.8359 5.57067 67.2386 5.336 66.4813 5.336C65.7133 5.336 65.0999 5.576 64.6413 6.056C64.1933 6.536 63.9693 7.23467 63.9693 8.152V13H62.5133V4.232H63.9693V5.48C64.2573 5.032 64.6466 4.68533 65.1373 4.44C65.6386 4.19467 66.1879 4.072 66.7853 4.072ZM76.5716 13.144C75.7503 13.144 75.0036 12.9573 74.3316 12.584C73.6703 12.2107 73.1476 11.6827 72.7636 11C72.3903 10.3067 72.2036 9.50667 72.2036 8.6C72.2036 7.704 72.3956 6.91467 72.7796 6.232C73.1743 5.53867 73.7076 5.01067 74.3796 4.648C75.0516 4.27467 75.8036 4.088 76.6356 4.088C77.4676 4.088 78.2196 4.27467 78.8916 4.648C79.5636 5.01067 80.0916 5.53333 80.4756 6.216C80.8703 6.89867 81.0676 7.69333 81.0676 8.6C81.0676 9.50667 80.865 10.3067 80.4596 11C80.065 11.6827 79.5263 12.2107 78.8436 12.584C78.161 12.9573 77.4036 13.144 76.5716 13.144ZM76.5716 11.864C77.0943 11.864 77.585 11.7413 78.0436 11.496C78.5023 11.2507 78.8703 10.8827 79.1476 10.392C79.4356 9.90133 79.5796 9.304 79.5796 8.6C79.5796 7.896 79.441 7.29867 79.1636 6.808C78.8863 6.31733 78.5236 5.95467 78.0756 5.72C77.6276 5.47467 77.1423 5.352 76.6196 5.352C76.0863 5.352 75.5956 5.47467 75.1476 5.72C74.7103 5.95467 74.3583 6.31733 74.0916 6.808C73.825 7.29867 73.6916 7.896 73.6916 8.6C73.6916 9.31467 73.8196 9.91733 74.0756 10.408C74.3423 10.8987 74.6943 11.2667 75.1316 11.512C75.569 11.7467 76.049 11.864 76.5716 11.864ZM86.7036 8.584C86.7036 7.688 86.885 6.904 87.2476 6.232C87.6103 5.54933 88.1063 5.02133 88.7356 4.648C89.3756 4.27467 90.0903 4.088 90.8796 4.088C91.5623 4.088 92.197 4.248 92.7836 4.568C93.3703 4.87733 93.8183 5.288 94.1276 5.8V1.16H95.5996V13H94.1276V11.352C93.8396 11.8747 93.413 12.3067 92.8476 12.648C92.2823 12.9787 91.621 13.144 90.8636 13.144C90.085 13.144 89.3756 12.952 88.7356 12.568C88.1063 12.184 87.6103 11.6453 87.2476 10.952C86.885 10.2587 86.7036 9.46933 86.7036 8.584ZM94.1276 8.6C94.1276 7.93867 93.9943 7.36267 93.7276 6.872C93.461 6.38133 93.0983 6.008 92.6396 5.752C92.1916 5.48533 91.6956 5.352 91.1516 5.352C90.6076 5.352 90.1116 5.48 89.6636 5.736C89.2156 5.992 88.8583 6.36533 88.5916 6.856C88.325 7.34667 88.1916 7.92267 88.1916 8.584C88.1916 9.256 88.325 9.84267 88.5916 10.344C88.8583 10.8347 89.2156 11.2133 89.6636 11.48C90.1116 11.736 90.6076 11.864 91.1516 11.864C91.6956 11.864 92.1916 11.736 92.6396 11.48C93.0983 11.2133 93.461 10.8347 93.7276 10.344C93.9943 9.84267 94.1276 9.26133 94.1276 8.6ZM106.06 8.28C106.06 8.55733 106.044 8.85067 106.012 9.16H99.0041C99.0575 10.024 99.3508 10.7013 99.8841 11.192C100.428 11.672 101.084 11.912 101.852 11.912C102.481 11.912 103.004 11.768 103.42 11.48C103.847 11.1813 104.145 10.7867 104.316 10.296H105.884C105.649 11.1387 105.18 11.8267 104.476 12.36C103.772 12.8827 102.897 13.144 101.852 13.144C101.02 13.144 100.273 12.9573 99.6121 12.584C98.9615 12.2107 98.4495 11.6827 98.0761 11C97.7028 10.3067 97.5161 9.50667 97.5161 8.6C97.5161 7.69333 97.6975 6.89867 98.0601 6.216C98.4228 5.53333 98.9295 5.01067 99.5801 4.648C100.241 4.27467 100.999 4.088 101.852 4.088C102.684 4.088 103.42 4.26933 104.06 4.632C104.7 4.99467 105.191 5.496 105.532 6.136C105.884 6.76533 106.06 7.48 106.06 8.28ZM104.556 7.976C104.556 7.42133 104.433 6.94667 104.188 6.552C103.943 6.14667 103.607 5.84267 103.18 5.64C102.764 5.42667 102.3 5.32 101.788 5.32C101.052 5.32 100.423 5.55467 99.9001 6.024C99.3881 6.49333 99.0948 7.144 99.0201 7.976H104.556ZM111.246 11.656L113.966 4.232H115.518L112.078 13H110.382L106.942 4.232H108.51L111.246 11.656ZM117.703 2.808C117.425 2.808 117.191 2.712 116.999 2.52C116.807 2.328 116.711 2.09333 116.711 1.816C116.711 1.53867 116.807 1.304 116.999 1.112C117.191 0.919999 117.425 0.823999 117.703 0.823999C117.969 0.823999 118.193 0.919999 118.375 1.112C118.567 1.304 118.663 1.53867 118.663 1.816C118.663 2.09333 118.567 2.328 118.375 2.52C118.193 2.712 117.969 2.808 117.703 2.808ZM118.407 4.232V13H116.951V4.232H118.407ZM120.344 8.6C120.344 7.69333 120.526 6.904 120.888 6.232C121.251 5.54933 121.752 5.02133 122.392 4.648C123.043 4.27467 123.784 4.088 124.616 4.088C125.694 4.088 126.579 4.34933 127.272 4.872C127.976 5.39467 128.44 6.12 128.664 7.048H127.096C126.947 6.51467 126.654 6.09333 126.216 5.784C125.79 5.47467 125.256 5.32 124.616 5.32C123.784 5.32 123.112 5.608 122.6 6.184C122.088 6.74933 121.832 7.55467 121.832 8.6C121.832 9.656 122.088 10.472 122.6 11.048C123.112 11.624 123.784 11.912 124.616 11.912C125.256 11.912 125.79 11.7627 126.216 11.464C126.643 11.1653 126.936 10.7387 127.096 10.184H128.664C128.43 11.08 127.96 11.8 127.256 12.344C126.552 12.8773 125.672 13.144 124.616 13.144C123.784 13.144 123.043 12.9573 122.392 12.584C121.752 12.2107 121.251 11.6827 120.888 11C120.526 10.3173 120.344 9.51733 120.344 8.6ZM138.607 8.28C138.607 8.55733 138.591 8.85067 138.559 9.16H131.551C131.604 10.024 131.898 10.7013 132.431 11.192C132.975 11.672 133.631 11.912 134.399 11.912C135.028 11.912 135.551 11.768 135.967 11.48C136.394 11.1813 136.692 10.7867 136.863 10.296H138.431C138.196 11.1387 137.727 11.8267 137.023 12.36C136.319 12.8827 135.444 13.144 134.399 13.144C133.567 13.144 132.82 12.9573 132.159 12.584C131.508 12.2107 130.996 11.6827 130.623 11C130.25 10.3067 130.063 9.50667 130.063 8.6C130.063 7.69333 130.244 6.89867 130.607 6.216C130.97 5.53333 131.476 5.01067 132.127 4.648C132.788 4.27467 133.546 4.088 134.399 4.088C135.231 4.088 135.967 4.26933 136.607 4.632C137.247 4.99467 137.738 5.496 138.079 6.136C138.431 6.76533 138.607 7.48 138.607 8.28ZM137.103 7.976C137.103 7.42133 136.98 6.94667 136.735 6.552C136.49 6.14667 136.154 5.84267 135.727 5.64C135.311 5.42667 134.847 5.32 134.335 5.32C133.599 5.32 132.97 5.55467 132.447 6.024C131.935 6.49333 131.642 7.144 131.567 7.976H137.103ZM144.251 8.6C144.251 7.69333 144.432 6.904 144.795 6.232C145.157 5.54933 145.659 5.02133 146.299 4.648C146.949 4.27467 147.691 4.088 148.523 4.088C149.6 4.088 150.485 4.34933 151.179 4.872C151.883 5.39467 152.347 6.12 152.571 7.048H151.003C150.853 6.51467 150.56 6.09333 150.123 5.784C149.696 5.47467 149.163 5.32 148.523 5.32C147.691 5.32 147.019 5.608 146.507 6.184C145.995 6.74933 145.739 7.55467 145.739 8.6C145.739 9.656 145.995 10.472 146.507 11.048C147.019 11.624 147.691 11.912 148.523 11.912C149.163 11.912 149.696 11.7627 150.123 11.464C150.549 11.1653 150.843 10.7387 151.003 10.184H152.571C152.336 11.08 151.867 11.8 151.163 12.344C150.459 12.8773 149.579 13.144 148.523 13.144C147.691 13.144 146.949 12.9573 146.299 12.584C145.659 12.2107 145.157 11.6827 144.795 11C144.432 10.3173 144.251 9.51733 144.251 8.6ZM158.337 13.144C157.516 13.144 156.769 12.9573 156.097 12.584C155.436 12.2107 154.913 11.6827 154.529 11C154.156 10.3067 153.969 9.50667 153.969 8.6C153.969 7.704 154.161 6.91467 154.545 6.232C154.94 5.53867 155.473 5.01067 156.145 4.648C156.817 4.27467 157.569 4.088 158.401 4.088C159.233 4.088 159.985 4.27467 160.657 4.648C161.329 5.01067 161.857 5.53333 162.241 6.216C162.636 6.89867 162.833 7.69333 162.833 8.6C162.833 9.50667 162.631 10.3067 162.225 11C161.831 11.6827 161.292 12.2107 160.609 12.584C159.927 12.9573 159.169 13.144 158.337 13.144ZM158.337 11.864C158.86 11.864 159.351 11.7413 159.809 11.496C160.268 11.2507 160.636 10.8827 160.913 10.392C161.201 9.90133 161.345 9.304 161.345 8.6C161.345 7.896 161.207 7.29867 160.929 6.808C160.652 6.31733 160.289 5.95467 159.841 5.72C159.393 5.47467 158.908 5.352 158.385 5.352C157.852 5.352 157.361 5.47467 156.913 5.72C156.476 5.95467 156.124 6.31733 155.857 6.808C155.591 7.29867 155.457 7.896 155.457 8.6C155.457 9.31467 155.585 9.91733 155.841 10.408C156.108 10.8987 156.46 11.2667 156.897 11.512C157.335 11.7467 157.815 11.864 158.337 11.864ZM169.02 4.072C170.086 4.072 170.95 4.39733 171.612 5.048C172.273 5.688 172.604 6.616 172.604 7.832V13H171.164V8.04C171.164 7.16533 170.945 6.49867 170.508 6.04C170.07 5.57067 169.473 5.336 168.716 5.336C167.948 5.336 167.334 5.576 166.876 6.056C166.428 6.536 166.204 7.23467 166.204 8.152V13H164.748V4.232H166.204V5.48C166.492 5.032 166.881 4.68533 167.372 4.44C167.873 4.19467 168.422 4.072 169.02 4.072ZM179.254 4.072C180.321 4.072 181.185 4.39733 181.846 5.048C182.507 5.688 182.838 6.616 182.838 7.832V13H181.398V8.04C181.398 7.16533 181.179 6.49867 180.742 6.04C180.305 5.57067 179.707 5.336 178.95 5.336C178.182 5.336 177.569 5.576 177.11 6.056C176.662 6.536 176.438 7.23467 176.438 8.152V13H174.982V4.232H176.438V5.48C176.726 5.032 177.115 4.68533 177.606 4.44C178.107 4.19467 178.657 4.072 179.254 4.072ZM193.216 8.28C193.216 8.55733 193.2 8.85067 193.168 9.16H186.16C186.214 10.024 186.507 10.7013 187.04 11.192C187.584 11.672 188.24 11.912 189.008 11.912C189.638 11.912 190.16 11.768 190.576 11.48C191.003 11.1813 191.302 10.7867 191.472 10.296H193.04C192.806 11.1387 192.336 11.8267 191.632 12.36C190.928 12.8827 190.054 13.144 189.008 13.144C188.176 13.144 187.43 12.9573 186.768 12.584C186.118 12.2107 185.606 11.6827 185.232 11C184.859 10.3067 184.672 9.50667 184.672 8.6C184.672 7.69333 184.854 6.89867 185.216 6.216C185.579 5.53333 186.086 5.01067 186.736 4.648C187.398 4.27467 188.155 4.088 189.008 4.088C189.84 4.088 190.576 4.26933 191.216 4.632C191.856 4.99467 192.347 5.496 192.688 6.136C193.04 6.76533 193.216 7.48 193.216 8.28ZM191.712 7.976C191.712 7.42133 191.59 6.94667 191.344 6.552C191.099 6.14667 190.763 5.84267 190.336 5.64C189.92 5.42667 189.456 5.32 188.944 5.32C188.208 5.32 187.579 5.55467 187.056 6.024C186.544 6.49333 186.251 7.144 186.176 7.976H191.712ZM194.594 8.6C194.594 7.69333 194.776 6.904 195.138 6.232C195.501 5.54933 196.002 5.02133 196.642 4.648C197.293 4.27467 198.034 4.088 198.866 4.088C199.944 4.088 200.829 4.34933 201.522 4.872C202.226 5.39467 202.69 6.12 202.914 7.048H201.346C201.197 6.51467 200.904 6.09333 200.466 5.784C200.04 5.47467 199.506 5.32 198.866 5.32C198.034 5.32 197.362 5.608 196.85 6.184C196.338 6.74933 196.082 7.55467 196.082 8.6C196.082 9.656 196.338 10.472 196.85 11.048C197.362 11.624 198.034 11.912 198.866 11.912C199.506 11.912 200.04 11.7627 200.466 11.464C200.893 11.1653 201.186 10.7387 201.346 10.184H202.914C202.68 11.08 202.21 11.8 201.506 12.344C200.802 12.8773 199.922 13.144 198.866 13.144C198.034 13.144 197.293 12.9573 196.642 12.584C196.002 12.2107 195.501 11.6827 195.138 11C194.776 10.3173 194.594 9.51733 194.594 8.6ZM206.633 5.432V10.6C206.633 11.0267 206.724 11.3307 206.905 11.512C207.086 11.6827 207.401 11.768 207.849 11.768H208.921V13H207.609C206.798 13 206.19 12.8133 205.785 12.44C205.38 12.0667 205.177 11.4533 205.177 10.6V5.432H204.041V4.232H205.177V2.024H206.633V4.232H208.921V5.432H206.633ZM218.685 8.28C218.685 8.55733 218.669 8.85067 218.637 9.16H211.629C211.682 10.024 211.976 10.7013 212.509 11.192C213.053 11.672 213.709 11.912 214.477 11.912C215.106 11.912 215.629 11.768 216.045 11.48C216.472 11.1813 216.77 10.7867 216.941 10.296H218.509C218.274 11.1387 217.805 11.8267 217.101 12.36C216.397 12.8827 215.522 13.144 214.477 13.144C213.645 13.144 212.898 12.9573 212.237 12.584C211.586 12.2107 211.074 11.6827 210.701 11C210.328 10.3067 210.141 9.50667 210.141 8.6C210.141 7.69333 210.322 6.89867 210.685 6.216C211.048 5.53333 211.554 5.01067 212.205 4.648C212.866 4.27467 213.624 4.088 214.477 4.088C215.309 4.088 216.045 4.26933 216.685 4.632C217.325 4.99467 217.816 5.496 218.157 6.136C218.509 6.76533 218.685 7.48 218.685 8.28ZM217.181 7.976C217.181 7.42133 217.058 6.94667 216.813 6.552C216.568 6.14667 216.232 5.84267 215.805 5.64C215.389 5.42667 214.925 5.32 214.413 5.32C213.677 5.32 213.048 5.55467 212.525 6.024C212.013 6.49333 211.72 7.144 211.645 7.976H217.181ZM220.063 8.584C220.063 7.688 220.244 6.904 220.607 6.232C220.97 5.54933 221.466 5.02133 222.095 4.648C222.735 4.27467 223.45 4.088 224.239 4.088C224.922 4.088 225.556 4.248 226.143 4.568C226.73 4.87733 227.178 5.288 227.487 5.8V1.16H228.959V13H227.487V11.352C227.199 11.8747 226.772 12.3067 226.207 12.648C225.642 12.9787 224.98 13.144 224.223 13.144C223.444 13.144 222.735 12.952 222.095 12.568C221.466 12.184 220.97 11.6453 220.607 10.952C220.244 10.2587 220.063 9.46933 220.063 8.584ZM227.487 8.6C227.487 7.93867 227.354 7.36267 227.087 6.872C226.82 6.38133 226.458 6.008 225.999 5.752C225.551 5.48533 225.055 5.352 224.511 5.352C223.967 5.352 223.471 5.48 223.023 5.736C222.575 5.992 222.218 6.36533 221.951 6.856C221.684 7.34667 221.551 7.92267 221.551 8.584C221.551 9.256 221.684 9.84267 221.951 10.344C222.218 10.8347 222.575 11.2133 223.023 11.48C223.471 11.736 223.967 11.864 224.511 11.864C225.055 11.864 225.551 11.736 225.999 11.48C226.458 11.2133 226.82 10.8347 227.087 10.344C227.354 9.84267 227.487 9.26133 227.487 8.6ZM231.884 13.096C231.606 13.096 231.372 13 231.18 12.808C230.988 12.616 230.892 12.3813 230.892 12.104C230.892 11.8267 230.988 11.592 231.18 11.4C231.372 11.208 231.606 11.112 231.884 11.112C232.15 11.112 232.374 11.208 232.556 11.4C232.748 11.592 232.844 11.8267 232.844 12.104C232.844 12.3813 232.748 12.616 232.556 12.808C232.374 13 232.15 13.096 231.884 13.096Z" fill="#212121"/>
</svg>
