<svg width="240" height="184" viewBox="0 0 240 184" fill="none" xmlns="http://www.w3.org/2000/svg">
<rect width="240" height="184" rx="13" fill="#E0E0E0"/>
<mask id="mask0_193_2360" style="mask-type:alpha" maskUnits="userSpaceOnUse" x="106" y="78" width="28" height="28">
<path fill-rule="evenodd" clip-rule="evenodd" d="M106.667 78.667H133.28V105.267H106.667V78.667Z" fill="white"/>
</mask>
<g mask="url(#mask0_193_2360)">
<path fill-rule="evenodd" clip-rule="evenodd" d="M114.201 80.6666C110.839 80.6666 108.667 82.9693 108.667 86.532V97.4013C108.667 100.965 110.839 103.267 114.201 103.267H125.734C129.103 103.267 131.281 100.965 131.281 97.4013V86.532C131.281 82.9693 129.103 80.6666 125.734 80.6666H114.201ZM125.734 105.267H114.201C109.694 105.267 106.667 102.105 106.667 97.4013V86.532C106.667 81.828 109.694 78.6666 114.201 78.6666H125.734C130.247 78.6666 133.281 81.828 133.281 86.532V97.4013C133.281 102.105 130.247 105.267 125.734 105.267Z" fill="#BDBDBD"/>
<path fill-rule="evenodd" clip-rule="evenodd" d="M111.042 98.9072C110.794 98.9072 110.547 98.8165 110.354 98.6325C109.953 98.2538 109.937 97.6192 110.317 97.2205L112.354 95.0698C113.433 93.9245 115.253 93.8685 116.403 94.9485L117.681 96.2445C118.037 96.6045 118.615 96.6112 118.973 96.2592C119.107 96.1005 122.011 92.5738 122.011 92.5738C122.563 91.9045 123.342 91.4912 124.207 91.4058C125.074 91.3298 125.915 91.5818 126.586 92.1325C126.643 92.1792 126.695 92.2245 129.623 95.2312C130.009 95.6258 130.002 96.2592 129.606 96.6445C129.211 97.0325 128.577 97.0205 128.191 96.6258C128.191 96.6258 125.459 93.8218 125.265 93.6325C125.058 93.4632 124.726 93.3645 124.399 93.3965C124.067 93.4298 123.769 93.5885 123.557 93.8458C120.458 97.6045 120.421 97.6405 120.37 97.6898C119.226 98.8125 117.379 98.7938 116.255 97.6472C116.255 97.6472 115.015 96.3885 114.994 96.3632C114.686 96.0778 114.137 96.0965 113.807 96.4445L111.767 98.5952C111.57 98.8032 111.306 98.9072 111.042 98.9072Z" fill="#BDBDBD"/>
<path fill-rule="evenodd" clip-rule="evenodd" d="M115.41 86.8385C114.673 86.8385 114.073 87.4385 114.073 88.1772C114.073 88.9158 114.673 89.5172 115.411 89.5172C116.15 89.5172 116.751 88.9158 116.751 88.1772C116.751 87.4398 116.15 86.8398 115.41 86.8385ZM115.411 91.5172C113.57 91.5172 112.073 90.0185 112.073 88.1772C112.073 86.3358 113.57 84.8385 115.411 84.8385C117.254 84.8398 118.751 86.3385 118.751 88.1772C118.751 90.0185 117.253 91.5172 115.411 91.5172Z" fill="#BDBDBD"/>
</g>
</svg>
