<svg width="194" height="22" viewBox="0 0 194 22" fill="none" xmlns="http://www.w3.org/2000/svg">
<path d="M11.0502 6.36C11.0502 7.10667 10.8702 7.80667 10.5102 8.46C10.1636 9.11333 9.61024 9.64 8.85023 10.04C8.10357 10.44 7.1569 10.64 6.01023 10.64H3.67023V16H0.870234V2.04H6.01023C7.09023 2.04 8.01023 2.22667 8.77023 2.6C9.53023 2.97333 10.0969 3.48667 10.4702 4.14C10.8569 4.79333 11.0502 5.53333 11.0502 6.36ZM5.89023 8.38C6.66357 8.38 7.2369 8.20667 7.61023 7.86C7.98357 7.5 8.17023 7 8.17023 6.36C8.17023 5 7.41023 4.32 5.89023 4.32H3.67023V8.38H5.89023ZM12.3182 10.42C12.3182 9.3 12.5382 8.30667 12.9782 7.44C13.4315 6.57333 14.0382 5.90667 14.7982 5.44C15.5715 4.97333 16.4315 4.74 17.3782 4.74C18.2049 4.74 18.9249 4.90667 19.5382 5.24C20.1649 5.57333 20.6649 5.99333 21.0382 6.5V4.92H23.8582V16H21.0382V14.38C20.6782 14.9 20.1782 15.3333 19.5382 15.68C18.9115 16.0133 18.1849 16.18 17.3582 16.18C16.4249 16.18 15.5715 15.94 14.7982 15.46C14.0382 14.98 13.4315 14.3067 12.9782 13.44C12.5382 12.56 12.3182 11.5533 12.3182 10.42ZM21.0382 10.46C21.0382 9.78 20.9049 9.2 20.6382 8.72C20.3715 8.22667 20.0115 7.85333 19.5582 7.6C19.1049 7.33333 18.6182 7.2 18.0982 7.2C17.5782 7.2 17.0982 7.32667 16.6582 7.58C16.2182 7.83333 15.8582 8.20667 15.5782 8.7C15.3115 9.18 15.1782 9.75333 15.1782 10.42C15.1782 11.0867 15.3115 11.6733 15.5782 12.18C15.8582 12.6733 16.2182 13.0533 16.6582 13.32C17.1115 13.5867 17.5915 13.72 18.0982 13.72C18.6182 13.72 19.1049 13.5933 19.5582 13.34C20.0115 13.0733 20.3715 12.7 20.6382 12.22C20.9049 11.7267 21.0382 11.14 21.0382 10.46ZM28.0129 3.6C27.5196 3.6 27.1062 3.44667 26.7729 3.14C26.4529 2.82 26.2929 2.42667 26.2929 1.96C26.2929 1.49333 26.4529 1.10667 26.7729 0.799999C27.1062 0.479999 27.5196 0.319999 28.0129 0.319999C28.5062 0.319999 28.9129 0.479999 29.2329 0.799999C29.5662 1.10667 29.7329 1.49333 29.7329 1.96C29.7329 2.42667 29.5662 2.82 29.2329 3.14C28.9129 3.44667 28.5062 3.6 28.0129 3.6ZM29.3929 4.92V16H26.5929V4.92H29.3929ZM34.9593 6.64C35.3193 6.05333 35.786 5.59333 36.3593 5.26C36.946 4.92667 37.6126 4.76 38.3593 4.76V7.7H37.6193C36.7393 7.7 36.0726 7.90667 35.6193 8.32C35.1793 8.73333 34.9593 9.45333 34.9593 10.48V16H32.1593V4.92H34.9593V6.64ZM41.6652 3.6C41.1719 3.6 40.7586 3.44667 40.4252 3.14C40.1052 2.82 39.9452 2.42667 39.9452 1.96C39.9452 1.49333 40.1052 1.10667 40.4252 0.799999C40.7586 0.479999 41.1719 0.319999 41.6652 0.319999C42.1586 0.319999 42.5652 0.479999 42.8852 0.799999C43.2186 1.10667 43.3852 1.49333 43.3852 1.96C43.3852 2.42667 43.2186 2.82 42.8852 3.14C42.5652 3.44667 42.1586 3.6 41.6652 3.6ZM43.0452 4.92V16H40.2452V4.92H43.0452ZM51.9516 4.76C53.2716 4.76 54.3383 5.18 55.1516 6.02C55.965 6.84667 56.3716 8.00667 56.3716 9.5V16H53.5716V9.88C53.5716 9 53.3516 8.32667 52.9116 7.86C52.4716 7.38 51.8716 7.14 51.1116 7.14C50.3383 7.14 49.725 7.38 49.2716 7.86C48.8316 8.32667 48.6116 9 48.6116 9.88V16H45.8116V4.92H48.6116V6.3C48.985 5.82 49.4583 5.44667 50.0316 5.18C50.6183 4.9 51.2583 4.76 51.9516 4.76ZM63.3743 4.74C64.201 4.74 64.9276 4.90667 65.5543 5.24C66.181 5.56 66.6743 5.98 67.0343 6.5V4.92H69.8543V16.08C69.8543 17.1067 69.6476 18.02 69.2343 18.82C68.821 19.6333 68.201 20.2733 67.3743 20.74C66.5476 21.22 65.5476 21.46 64.3743 21.46C62.801 21.46 61.5076 21.0933 60.4943 20.36C59.4943 19.6267 58.9276 18.6267 58.7943 17.36H61.5743C61.721 17.8667 62.0343 18.2667 62.5143 18.56C63.0076 18.8667 63.601 19.02 64.2943 19.02C65.1076 19.02 65.7676 18.7733 66.2743 18.28C66.781 17.8 67.0343 17.0667 67.0343 16.08V14.36C66.6743 14.88 66.1743 15.3133 65.5343 15.66C64.9076 16.0067 64.1876 16.18 63.3743 16.18C62.441 16.18 61.5876 15.94 60.8143 15.46C60.041 14.98 59.4276 14.3067 58.9743 13.44C58.5343 12.56 58.3143 11.5533 58.3143 10.42C58.3143 9.3 58.5343 8.30667 58.9743 7.44C59.4276 6.57333 60.0343 5.90667 60.7943 5.44C61.5676 4.97333 62.4276 4.74 63.3743 4.74ZM67.0343 10.46C67.0343 9.78 66.901 9.2 66.6343 8.72C66.3676 8.22667 66.0076 7.85333 65.5543 7.6C65.101 7.33333 64.6143 7.2 64.0943 7.2C63.5743 7.2 63.0943 7.32667 62.6543 7.58C62.2143 7.83333 61.8543 8.20667 61.5743 8.7C61.3076 9.18 61.1743 9.75333 61.1743 10.42C61.1743 11.0867 61.3076 11.6733 61.5743 12.18C61.8543 12.6733 62.2143 13.0533 62.6543 13.32C63.1076 13.5867 63.5876 13.72 64.0943 13.72C64.6143 13.72 65.101 13.5933 65.5543 13.34C66.0076 13.0733 66.3676 12.7 66.6343 12.22C66.901 11.7267 67.0343 11.14 67.0343 10.46ZM78.7746 3.6C78.2813 3.6 77.8679 3.44667 77.5346 3.14C77.2146 2.82 77.0546 2.42667 77.0546 1.96C77.0546 1.49333 77.2146 1.10667 77.5346 0.799999C77.8679 0.479999 78.2813 0.319999 78.7746 0.319999C79.2679 0.319999 79.6746 0.479999 79.9946 0.799999C80.3279 1.10667 80.4946 1.49333 80.4946 1.96C80.4946 2.42667 80.3279 2.82 79.9946 3.14C79.6746 3.44667 79.2679 3.6 78.7746 3.6ZM80.1546 4.92V16H77.3546V4.92H80.1546ZM87.161 16.18C86.2543 16.18 85.441 16.02 84.721 15.7C84.001 15.3667 83.4277 14.92 83.001 14.36C82.5877 13.8 82.361 13.18 82.321 12.5H85.141C85.1943 12.9267 85.401 13.28 85.761 13.56C86.1343 13.84 86.5943 13.98 87.141 13.98C87.6743 13.98 88.0877 13.8733 88.381 13.66C88.6877 13.4467 88.841 13.1733 88.841 12.84C88.841 12.48 88.6543 12.2133 88.281 12.04C87.921 11.8533 87.341 11.6533 86.541 11.44C85.7143 11.24 85.0343 11.0333 84.501 10.82C83.981 10.6067 83.5277 10.28 83.141 9.84C82.7677 9.4 82.581 8.80667 82.581 8.06C82.581 7.44667 82.7543 6.88667 83.101 6.38C83.461 5.87333 83.9677 5.47333 84.621 5.18C85.2877 4.88667 86.0677 4.74 86.961 4.74C88.281 4.74 89.3343 5.07333 90.121 5.74C90.9077 6.39333 91.341 7.28 91.421 8.4H88.741C88.701 7.96 88.5143 7.61333 88.181 7.36C87.861 7.09333 87.4277 6.96 86.881 6.96C86.3743 6.96 85.981 7.05333 85.701 7.24C85.4343 7.42667 85.301 7.68667 85.301 8.02C85.301 8.39333 85.4877 8.68 85.861 8.88C86.2343 9.06667 86.8143 9.26 87.601 9.46C88.401 9.66 89.061 9.86667 89.581 10.08C90.101 10.2933 90.5477 10.6267 90.921 11.08C91.3077 11.52 91.5077 12.1067 91.521 12.84C91.521 13.48 91.341 14.0533 90.981 14.56C90.6343 15.0667 90.1277 15.4667 89.461 15.76C88.8077 16.04 88.041 16.18 87.161 16.18ZM97.8651 10.46C97.8651 9.31333 98.0984 8.31333 98.5651 7.46C99.0317 6.59333 99.6784 5.92667 100.505 5.46C101.332 4.98 102.278 4.74 103.345 4.74C104.718 4.74 105.852 5.08667 106.745 5.78C107.652 6.46 108.258 7.42 108.565 8.66H105.545C105.385 8.18 105.112 7.80667 104.725 7.54C104.352 7.26 103.885 7.12 103.325 7.12C102.525 7.12 101.892 7.41333 101.425 8C100.958 8.57333 100.725 9.39333 100.725 10.46C100.725 11.5133 100.958 12.3333 101.425 12.92C101.892 13.4933 102.525 13.78 103.325 13.78C104.458 13.78 105.198 13.2733 105.545 12.26H108.565C108.258 13.46 107.652 14.4133 106.745 15.12C105.838 15.8267 104.705 16.18 103.345 16.18C102.278 16.18 101.332 15.9467 100.505 15.48C99.6784 15 99.0317 14.3333 98.5651 13.48C98.0984 12.6133 97.8651 11.6067 97.8651 10.46ZM115.536 16.18C114.47 16.18 113.51 15.9467 112.656 15.48C111.803 15 111.13 14.3267 110.636 13.46C110.156 12.5933 109.916 11.5933 109.916 10.46C109.916 9.32667 110.163 8.32667 110.656 7.46C111.163 6.59333 111.85 5.92667 112.716 5.46C113.583 4.98 114.55 4.74 115.616 4.74C116.683 4.74 117.65 4.98 118.516 5.46C119.383 5.92667 120.063 6.59333 120.556 7.46C121.063 8.32667 121.316 9.32667 121.316 10.46C121.316 11.5933 121.056 12.5933 120.536 13.46C120.03 14.3267 119.336 15 118.456 15.48C117.59 15.9467 116.616 16.18 115.536 16.18ZM115.536 13.74C116.043 13.74 116.516 13.62 116.956 13.38C117.41 13.1267 117.77 12.7533 118.036 12.26C118.303 11.7667 118.436 11.1667 118.436 10.46C118.436 9.40667 118.156 8.6 117.596 8.04C117.05 7.46667 116.376 7.18 115.576 7.18C114.776 7.18 114.103 7.46667 113.556 8.04C113.023 8.6 112.756 9.40667 112.756 10.46C112.756 11.5133 113.016 12.3267 113.536 12.9C114.07 13.46 114.736 13.74 115.536 13.74ZM137.13 4.76C138.49 4.76 139.584 5.18 140.41 6.02C141.25 6.84667 141.67 8.00667 141.67 9.5V16H138.87V9.88C138.87 9.01333 138.65 8.35333 138.21 7.9C137.77 7.43333 137.17 7.2 136.41 7.2C135.65 7.2 135.044 7.43333 134.59 7.9C134.15 8.35333 133.93 9.01333 133.93 9.88V16H131.13V9.88C131.13 9.01333 130.91 8.35333 130.47 7.9C130.03 7.43333 129.43 7.2 128.67 7.2C127.897 7.2 127.284 7.43333 126.83 7.9C126.39 8.35333 126.17 9.01333 126.17 9.88V16H123.37V4.92H126.17V6.26C126.53 5.79333 126.99 5.42667 127.55 5.16C128.124 4.89333 128.75 4.76 129.43 4.76C130.297 4.76 131.07 4.94667 131.75 5.32C132.43 5.68 132.957 6.2 133.33 6.88C133.69 6.24 134.21 5.72667 134.89 5.34C135.584 4.95333 136.33 4.76 137.13 4.76ZM147.127 6.52C147.487 6.01333 147.981 5.59333 148.607 5.26C149.247 4.91333 149.974 4.74 150.787 4.74C151.734 4.74 152.587 4.97333 153.347 5.44C154.121 5.90667 154.727 6.57333 155.167 7.44C155.621 8.29333 155.847 9.28667 155.847 10.42C155.847 11.5533 155.621 12.56 155.167 13.44C154.727 14.3067 154.121 14.98 153.347 15.46C152.587 15.94 151.734 16.18 150.787 16.18C149.974 16.18 149.254 16.0133 148.627 15.68C148.014 15.3467 147.514 14.9267 147.127 14.42V21.28H144.327V4.92H147.127V6.52ZM152.987 10.42C152.987 9.75333 152.847 9.18 152.567 8.7C152.301 8.20667 151.941 7.83333 151.487 7.58C151.047 7.32667 150.567 7.2 150.047 7.2C149.541 7.2 149.061 7.33333 148.607 7.6C148.167 7.85333 147.807 8.22667 147.527 8.72C147.261 9.21333 147.127 9.79333 147.127 10.46C147.127 11.1267 147.261 11.7067 147.527 12.2C147.807 12.6933 148.167 13.0733 148.607 13.34C149.061 13.5933 149.541 13.72 150.047 13.72C150.567 13.72 151.047 13.5867 151.487 13.32C151.941 13.0533 152.301 12.6733 152.567 12.18C152.847 11.6867 152.987 11.1 152.987 10.42ZM160.682 1.2V16H157.882V1.2H160.682ZM173.748 10.22C173.748 10.62 173.722 10.98 173.668 11.3H165.568C165.635 12.1 165.915 12.7267 166.408 13.18C166.902 13.6333 167.508 13.86 168.228 13.86C169.268 13.86 170.008 13.4133 170.448 12.52H173.468C173.148 13.5867 172.535 14.4667 171.628 15.16C170.722 15.84 169.608 16.18 168.288 16.18C167.222 16.18 166.262 15.9467 165.408 15.48C164.568 15 163.908 14.3267 163.428 13.46C162.962 12.5933 162.728 11.5933 162.728 10.46C162.728 9.31333 162.962 8.30667 163.428 7.44C163.895 6.57333 164.548 5.90667 165.388 5.44C166.228 4.97333 167.195 4.74 168.288 4.74C169.342 4.74 170.282 4.96667 171.108 5.42C171.948 5.87333 172.595 6.52 173.048 7.36C173.515 8.18667 173.748 9.14 173.748 10.22ZM170.848 9.42C170.835 8.7 170.575 8.12667 170.068 7.7C169.562 7.26 168.942 7.04 168.208 7.04C167.515 7.04 166.928 7.25333 166.448 7.68C165.982 8.09333 165.695 8.67333 165.588 9.42H170.848ZM179.052 7.22V12.58C179.052 12.9533 179.139 13.2267 179.312 13.4C179.499 13.56 179.805 13.64 180.232 13.64H181.532V16H179.772C177.412 16 176.232 14.8533 176.232 12.56V7.22H174.912V4.92H176.232V2.18H179.052V4.92H181.532V7.22H179.052ZM193.846 10.22C193.846 10.62 193.819 10.98 193.766 11.3H185.666C185.733 12.1 186.013 12.7267 186.506 13.18C186.999 13.6333 187.606 13.86 188.326 13.86C189.366 13.86 190.106 13.4133 190.546 12.52H193.566C193.246 13.5867 192.633 14.4667 191.726 15.16C190.819 15.84 189.706 16.18 188.386 16.18C187.319 16.18 186.359 15.9467 185.506 15.48C184.666 15 184.006 14.3267 183.526 13.46C183.059 12.5933 182.826 11.5933 182.826 10.46C182.826 9.31333 183.059 8.30667 183.526 7.44C183.993 6.57333 184.646 5.90667 185.486 5.44C186.326 4.97333 187.293 4.74 188.386 4.74C189.439 4.74 190.379 4.96667 191.206 5.42C192.046 5.87333 192.693 6.52 193.146 7.36C193.613 8.18667 193.846 9.14 193.846 10.22ZM190.946 9.42C190.933 8.7 190.673 8.12667 190.166 7.7C189.659 7.26 189.039 7.04 188.306 7.04C187.613 7.04 187.026 7.25333 186.546 7.68C186.079 8.09333 185.793 8.67333 185.686 9.42H190.946Z" fill="#006E33"/>
</svg>
