<svg width="275" height="18" viewBox="0 0 275 18" fill="none" xmlns="http://www.w3.org/2000/svg">
<path d="M8.37725 1.848V3.032H5.33725V13H3.88125V3.032H0.82525V1.848H8.37725ZM17.9455 4.232V13H16.4895V11.704C16.2122 12.152 15.8228 12.504 15.3215 12.76C14.8308 13.0053 14.2868 13.128 13.6895 13.128C13.0068 13.128 12.3935 12.9893 11.8495 12.712C11.3055 12.424 10.8735 11.9973 10.5535 11.432C10.2442 10.8667 10.0895 10.1787 10.0895 9.368V4.232H11.5295V9.176C11.5295 10.04 11.7482 10.7067 12.1855 11.176C12.6228 11.6347 13.2202 11.864 13.9775 11.864C14.7562 11.864 15.3695 11.624 15.8175 11.144C16.2655 10.664 16.4895 9.96533 16.4895 9.048V4.232H17.9455ZM21.8599 5.656C22.1159 5.15467 22.4785 4.76533 22.9479 4.488C23.4279 4.21067 24.0092 4.072 24.6919 4.072V5.576H24.3079C22.6759 5.576 21.8599 6.46133 21.8599 8.232V13H20.4039V4.232H21.8599V5.656ZM30.6446 4.072C31.7113 4.072 32.5753 4.39733 33.2366 5.048C33.898 5.688 34.2286 6.616 34.2286 7.832V13H32.7886V8.04C32.7886 7.16533 32.57 6.49867 32.1326 6.04C31.6953 5.57067 31.098 5.336 30.3406 5.336C29.5726 5.336 28.9593 5.576 28.5006 6.056C28.0526 6.536 27.8286 7.23467 27.8286 8.152V13H26.3726V4.232H27.8286V5.48C28.1166 5.032 28.506 4.68533 28.9966 4.44C29.498 4.19467 30.0473 4.072 30.6446 4.072ZM44.6966 13.144C43.8753 13.144 43.1286 12.9573 42.4566 12.584C41.7953 12.2107 41.2726 11.6827 40.8886 11C40.5153 10.3067 40.3286 9.50667 40.3286 8.6C40.3286 7.704 40.5206 6.91467 40.9046 6.232C41.2993 5.53867 41.8326 5.01067 42.5046 4.648C43.1766 4.27467 43.9286 4.088 44.7606 4.088C45.5926 4.088 46.3446 4.27467 47.0166 4.648C47.6886 5.01067 48.2166 5.53333 48.6006 6.216C48.9953 6.89867 49.1926 7.69333 49.1926 8.6C49.1926 9.50667 48.99 10.3067 48.5846 11C48.19 11.6827 47.6513 12.2107 46.9686 12.584C46.286 12.9573 45.5286 13.144 44.6966 13.144ZM44.6966 11.864C45.2193 11.864 45.71 11.7413 46.1686 11.496C46.6273 11.2507 46.9953 10.8827 47.2726 10.392C47.5606 9.90133 47.7046 9.304 47.7046 8.6C47.7046 7.896 47.566 7.29867 47.2886 6.808C47.0113 6.31733 46.6486 5.95467 46.2006 5.72C45.7526 5.47467 45.2673 5.352 44.7446 5.352C44.2113 5.352 43.7206 5.47467 43.2726 5.72C42.8353 5.95467 42.4833 6.31733 42.2166 6.808C41.95 7.29867 41.8166 7.896 41.8166 8.6C41.8166 9.31467 41.9446 9.91733 42.2006 10.408C42.4673 10.8987 42.8193 11.2667 43.2566 11.512C43.694 11.7467 44.174 11.864 44.6966 11.864ZM55.379 4.072C56.4457 4.072 57.3097 4.39733 57.971 5.048C58.6323 5.688 58.963 6.616 58.963 7.832V13H57.523V8.04C57.523 7.16533 57.3043 6.49867 56.867 6.04C56.4297 5.57067 55.8323 5.336 55.075 5.336C54.307 5.336 53.6937 5.576 53.235 6.056C52.787 6.536 52.563 7.23467 52.563 8.152V13H51.107V4.232H52.563V5.48C52.851 5.032 53.2403 4.68533 53.731 4.44C54.2323 4.19467 54.7817 4.072 55.379 4.072ZM67.383 5.432V10.6C67.383 11.0267 67.4737 11.3307 67.655 11.512C67.8363 11.6827 68.151 11.768 68.599 11.768H69.671V13H68.359C67.5483 13 66.9403 12.8133 66.535 12.44C66.1297 12.0667 65.927 11.4533 65.927 10.6V5.432H64.791V4.232H65.927V2.024H67.383V4.232H69.671V5.432H67.383ZM75.7871 4.072C76.4485 4.072 77.0458 4.216 77.5791 4.504C78.1125 4.78133 78.5285 5.20267 78.8271 5.768C79.1365 6.33333 79.2911 7.02133 79.2911 7.832V13H77.8511V8.04C77.8511 7.16533 77.6325 6.49867 77.1951 6.04C76.7578 5.57067 76.1605 5.336 75.4031 5.336C74.6351 5.336 74.0218 5.576 73.5631 6.056C73.1151 6.536 72.8911 7.23467 72.8911 8.152V13H71.4351V1.16H72.8911V5.48C73.1791 5.032 73.5738 4.68533 74.0751 4.44C74.5871 4.19467 75.1578 4.072 75.7871 4.072ZM89.6695 8.28C89.6695 8.55733 89.6535 8.85067 89.6215 9.16H82.6135C82.6668 10.024 82.9602 10.7013 83.4935 11.192C84.0375 11.672 84.6935 11.912 85.4615 11.912C86.0908 11.912 86.6135 11.768 87.0295 11.48C87.4562 11.1813 87.7548 10.7867 87.9255 10.296H89.4935C89.2588 11.1387 88.7895 11.8267 88.0855 12.36C87.3815 12.8827 86.5068 13.144 85.4615 13.144C84.6295 13.144 83.8828 12.9573 83.2215 12.584C82.5708 12.2107 82.0588 11.6827 81.6855 11C81.3122 10.3067 81.1255 9.50667 81.1255 8.6C81.1255 7.69333 81.3068 6.89867 81.6695 6.216C82.0322 5.53333 82.5388 5.01067 83.1895 4.648C83.8508 4.27467 84.6082 4.088 85.4615 4.088C86.2935 4.088 87.0295 4.26933 87.6695 4.632C88.3095 4.99467 88.8002 5.496 89.1415 6.136C89.4935 6.76533 89.6695 7.48 89.6695 8.28ZM88.1655 7.976C88.1655 7.42133 88.0428 6.94667 87.7975 6.552C87.5522 6.14667 87.2162 5.84267 86.7895 5.64C86.3735 5.42667 85.9095 5.32 85.3975 5.32C84.6615 5.32 84.0322 5.55467 83.5095 6.024C82.9975 6.49333 82.7042 7.144 82.6295 7.976H88.1655ZM97.313 5.848C97.601 5.34667 98.0277 4.93067 98.593 4.6C99.169 4.25867 99.8357 4.088 100.593 4.088C101.372 4.088 102.076 4.27467 102.705 4.648C103.345 5.02133 103.846 5.54933 104.209 6.232C104.572 6.904 104.753 7.688 104.753 8.584C104.753 9.46933 104.572 10.2587 104.209 10.952C103.846 11.6453 103.345 12.184 102.705 12.568C102.076 12.952 101.372 13.144 100.593 13.144C99.8463 13.144 99.185 12.9787 98.609 12.648C98.0437 12.3067 97.6117 11.8853 97.313 11.384V17.16H95.857V4.232H97.313V5.848ZM103.265 8.584C103.265 7.92267 103.132 7.34667 102.865 6.856C102.598 6.36533 102.236 5.992 101.777 5.736C101.329 5.48 100.833 5.352 100.289 5.352C99.7557 5.352 99.2597 5.48533 98.801 5.752C98.353 6.008 97.9903 6.38667 97.713 6.888C97.4463 7.37867 97.313 7.94933 97.313 8.6C97.313 9.26133 97.4463 9.84267 97.713 10.344C97.9903 10.8347 98.353 11.2133 98.801 11.48C99.2597 11.736 99.7557 11.864 100.289 11.864C100.833 11.864 101.329 11.736 101.777 11.48C102.236 11.2133 102.598 10.8347 102.865 10.344C103.132 9.84267 103.265 9.256 103.265 8.584ZM110.494 13.144C109.672 13.144 108.926 12.9573 108.254 12.584C107.592 12.2107 107.07 11.6827 106.686 11C106.312 10.3067 106.126 9.50667 106.126 8.6C106.126 7.704 106.318 6.91467 106.702 6.232C107.096 5.53867 107.63 5.01067 108.302 4.648C108.974 4.27467 109.726 4.088 110.558 4.088C111.39 4.088 112.142 4.27467 112.814 4.648C113.486 5.01067 114.014 5.53333 114.398 6.216C114.792 6.89867 114.99 7.69333 114.99 8.6C114.99 9.50667 114.787 10.3067 114.382 11C113.987 11.6827 113.448 12.2107 112.766 12.584C112.083 12.9573 111.326 13.144 110.494 13.144ZM110.494 11.864C111.016 11.864 111.507 11.7413 111.966 11.496C112.424 11.2507 112.792 10.8827 113.07 10.392C113.358 9.90133 113.502 9.304 113.502 8.6C113.502 7.896 113.363 7.29867 113.086 6.808C112.808 6.31733 112.446 5.95467 111.998 5.72C111.55 5.47467 111.064 5.352 110.542 5.352C110.008 5.352 109.518 5.47467 109.07 5.72C108.632 5.95467 108.28 6.31733 108.014 6.808C107.747 7.29867 107.614 7.896 107.614 8.6C107.614 9.31467 107.742 9.91733 107.998 10.408C108.264 10.8987 108.616 11.2667 109.054 11.512C109.491 11.7467 109.971 11.864 110.494 11.864ZM128.584 4.232L125.848 13H124.344L122.232 6.04L120.12 13H118.616L115.864 4.232H117.352L119.368 11.592L121.544 4.232H123.032L125.16 11.608L127.144 4.232H128.584ZM138.029 8.28C138.029 8.55733 138.013 8.85067 137.981 9.16H130.973C131.026 10.024 131.32 10.7013 131.853 11.192C132.397 11.672 133.053 11.912 133.821 11.912C134.45 11.912 134.973 11.768 135.389 11.48C135.816 11.1813 136.114 10.7867 136.285 10.296H137.853C137.618 11.1387 137.149 11.8267 136.445 12.36C135.741 12.8827 134.866 13.144 133.821 13.144C132.989 13.144 132.242 12.9573 131.581 12.584C130.93 12.2107 130.418 11.6827 130.045 11C129.672 10.3067 129.485 9.50667 129.485 8.6C129.485 7.69333 129.666 6.89867 130.029 6.216C130.392 5.53333 130.898 5.01067 131.549 4.648C132.21 4.27467 132.968 4.088 133.821 4.088C134.653 4.088 135.389 4.26933 136.029 4.632C136.669 4.99467 137.16 5.496 137.501 6.136C137.853 6.76533 138.029 7.48 138.029 8.28ZM136.525 7.976C136.525 7.42133 136.402 6.94667 136.157 6.552C135.912 6.14667 135.576 5.84267 135.149 5.64C134.733 5.42667 134.269 5.32 133.757 5.32C133.021 5.32 132.392 5.55467 131.869 6.024C131.357 6.49333 131.064 7.144 130.989 7.976H136.525ZM141.407 5.656C141.663 5.15467 142.025 4.76533 142.495 4.488C142.975 4.21067 143.556 4.072 144.239 4.072V5.576H143.855C142.223 5.576 141.407 6.46133 141.407 8.232V13H139.951V4.232H141.407V5.656ZM154.009 13.144C153.188 13.144 152.441 12.9573 151.769 12.584C151.108 12.2107 150.585 11.6827 150.201 11C149.828 10.3067 149.641 9.50667 149.641 8.6C149.641 7.704 149.833 6.91467 150.217 6.232C150.612 5.53867 151.145 5.01067 151.817 4.648C152.489 4.27467 153.241 4.088 154.073 4.088C154.905 4.088 155.657 4.27467 156.329 4.648C157.001 5.01067 157.529 5.53333 157.913 6.216C158.308 6.89867 158.505 7.69333 158.505 8.6C158.505 9.50667 158.302 10.3067 157.897 11C157.502 11.6827 156.964 12.2107 156.281 12.584C155.598 12.9573 154.841 13.144 154.009 13.144ZM154.009 11.864C154.532 11.864 155.022 11.7413 155.481 11.496C155.94 11.2507 156.308 10.8827 156.585 10.392C156.873 9.90133 157.017 9.304 157.017 8.6C157.017 7.896 156.878 7.29867 156.601 6.808C156.324 6.31733 155.961 5.95467 155.513 5.72C155.065 5.47467 154.58 5.352 154.057 5.352C153.524 5.352 153.033 5.47467 152.585 5.72C152.148 5.95467 151.796 6.31733 151.529 6.808C151.262 7.29867 151.129 7.896 151.129 8.6C151.129 9.31467 151.257 9.91733 151.513 10.408C151.78 10.8987 152.132 11.2667 152.569 11.512C153.006 11.7467 153.486 11.864 154.009 11.864ZM163.988 5.432H162.148V13H160.692V5.432H159.556V4.232H160.692V3.608C160.692 2.62667 160.942 1.912 161.444 1.464C161.956 1.00533 162.772 0.775999 163.891 0.775999V1.992C163.252 1.992 162.798 2.12 162.532 2.376C162.276 2.62133 162.148 3.032 162.148 3.608V4.232H163.988V5.432ZM171.407 11.816H175.311V13H169.951V1.848H171.407V11.816ZM184.409 4.232L179.129 17.128H177.625L179.353 12.904L175.817 4.232H177.433L180.185 11.336L182.905 4.232H184.409ZM196.417 4.072C197.099 4.072 197.707 4.216 198.241 4.504C198.774 4.78133 199.195 5.20267 199.505 5.768C199.814 6.33333 199.969 7.02133 199.969 7.832V13H198.529V8.04C198.529 7.16533 198.31 6.49867 197.873 6.04C197.446 5.57067 196.865 5.336 196.129 5.336C195.371 5.336 194.769 5.58133 194.321 6.072C193.873 6.552 193.649 7.25067 193.649 8.168V13H192.209V8.04C192.209 7.16533 191.99 6.49867 191.553 6.04C191.126 5.57067 190.545 5.336 189.809 5.336C189.051 5.336 188.449 5.58133 188.001 6.072C187.553 6.552 187.329 7.25067 187.329 8.168V13H185.873V4.232H187.329V5.496C187.617 5.03733 188.001 4.68533 188.481 4.44C188.971 4.19467 189.51 4.072 190.097 4.072C190.833 4.072 191.483 4.23733 192.049 4.568C192.614 4.89867 193.035 5.384 193.313 6.024C193.558 5.40533 193.963 4.92533 194.529 4.584C195.094 4.24267 195.723 4.072 196.417 4.072ZM203.813 5.848C204.101 5.34667 204.528 4.93067 205.093 4.6C205.669 4.25867 206.336 4.088 207.093 4.088C207.872 4.088 208.576 4.27467 209.205 4.648C209.845 5.02133 210.346 5.54933 210.709 6.232C211.072 6.904 211.253 7.688 211.253 8.584C211.253 9.46933 211.072 10.2587 210.709 10.952C210.346 11.6453 209.845 12.184 209.205 12.568C208.576 12.952 207.872 13.144 207.093 13.144C206.346 13.144 205.685 12.9787 205.109 12.648C204.544 12.3067 204.112 11.8853 203.813 11.384V17.16H202.357V4.232H203.813V5.848ZM209.765 8.584C209.765 7.92267 209.632 7.34667 209.365 6.856C209.098 6.36533 208.736 5.992 208.277 5.736C207.829 5.48 207.333 5.352 206.789 5.352C206.256 5.352 205.76 5.48533 205.301 5.752C204.853 6.008 204.49 6.38667 204.213 6.888C203.946 7.37867 203.813 7.94933 203.813 8.6C203.813 9.26133 203.946 9.84267 204.213 10.344C204.49 10.8347 204.853 11.2133 205.301 11.48C205.76 11.736 206.256 11.864 206.789 11.864C207.333 11.864 207.829 11.736 208.277 11.48C208.736 11.2133 209.098 10.8347 209.365 10.344C209.632 9.84267 209.765 9.256 209.765 8.584ZM217.522 4.072C218.183 4.072 218.78 4.216 219.314 4.504C219.847 4.78133 220.263 5.20267 220.562 5.768C220.871 6.33333 221.026 7.02133 221.026 7.832V13H219.586V8.04C219.586 7.16533 219.367 6.49867 218.93 6.04C218.492 5.57067 217.895 5.336 217.138 5.336C216.37 5.336 215.756 5.576 215.298 6.056C214.85 6.536 214.626 7.23467 214.626 8.152V13H213.17V1.16H214.626V5.48C214.914 5.032 215.308 4.68533 215.81 4.44C216.322 4.19467 216.892 4.072 217.522 4.072ZM227.228 13.144C226.407 13.144 225.66 12.9573 224.988 12.584C224.327 12.2107 223.804 11.6827 223.42 11C223.047 10.3067 222.86 9.50667 222.86 8.6C222.86 7.704 223.052 6.91467 223.436 6.232C223.831 5.53867 224.364 5.01067 225.036 4.648C225.708 4.27467 226.46 4.088 227.292 4.088C228.124 4.088 228.876 4.27467 229.548 4.648C230.22 5.01067 230.748 5.53333 231.132 6.216C231.527 6.89867 231.724 7.69333 231.724 8.6C231.724 9.50667 231.521 10.3067 231.116 11C230.721 11.6827 230.183 12.2107 229.5 12.584C228.817 12.9573 228.06 13.144 227.228 13.144ZM227.228 11.864C227.751 11.864 228.241 11.7413 228.7 11.496C229.159 11.2507 229.527 10.8827 229.804 10.392C230.092 9.90133 230.236 9.304 230.236 8.6C230.236 7.896 230.097 7.29867 229.82 6.808C229.543 6.31733 229.18 5.95467 228.732 5.72C228.284 5.47467 227.799 5.352 227.276 5.352C226.743 5.352 226.252 5.47467 225.804 5.72C225.367 5.95467 225.015 6.31733 224.748 6.808C224.481 7.29867 224.348 7.896 224.348 8.6C224.348 9.31467 224.476 9.91733 224.732 10.408C224.999 10.8987 225.351 11.2667 225.788 11.512C226.225 11.7467 226.705 11.864 227.228 11.864ZM247.654 1.848L244.422 13H242.79L240.198 4.024L237.51 13L235.894 13.016L232.774 1.848H234.326L236.758 11.304L239.446 1.848H241.078L243.638 11.272L246.086 1.848H247.654ZM257.248 8.28C257.248 8.55733 257.232 8.85067 257.2 9.16H250.192C250.245 10.024 250.538 10.7013 251.072 11.192C251.616 11.672 252.272 11.912 253.04 11.912C253.669 11.912 254.192 11.768 254.608 11.48C255.034 11.1813 255.333 10.7867 255.504 10.296H257.072C256.837 11.1387 256.368 11.8267 255.664 12.36C254.96 12.8827 254.085 13.144 253.04 13.144C252.208 13.144 251.461 12.9573 250.8 12.584C250.149 12.2107 249.637 11.6827 249.264 11C248.89 10.3067 248.704 9.50667 248.704 8.6C248.704 7.69333 248.885 6.89867 249.248 6.216C249.61 5.53333 250.117 5.01067 250.768 4.648C251.429 4.27467 252.186 4.088 253.04 4.088C253.872 4.088 254.608 4.26933 255.248 4.632C255.888 4.99467 256.378 5.496 256.72 6.136C257.072 6.76533 257.248 7.48 257.248 8.28ZM255.744 7.976C255.744 7.42133 255.621 6.94667 255.376 6.552C255.13 6.14667 254.794 5.84267 254.368 5.64C253.952 5.42667 253.488 5.32 252.976 5.32C252.24 5.32 251.61 5.55467 251.088 6.024C250.576 6.49333 250.282 7.144 250.208 7.976H255.744ZM258.626 8.584C258.626 7.688 258.807 6.904 259.17 6.232C259.532 5.54933 260.028 5.02133 260.658 4.648C261.298 4.27467 262.007 4.088 262.786 4.088C263.554 4.088 264.22 4.25333 264.786 4.584C265.351 4.91467 265.772 5.33067 266.05 5.832V4.232H267.522V13H266.05V11.368C265.762 11.88 265.33 12.3067 264.754 12.648C264.188 12.9787 263.527 13.144 262.77 13.144C261.991 13.144 261.287 12.952 260.658 12.568C260.028 12.184 259.532 11.6453 259.17 10.952C258.807 10.2587 258.626 9.46933 258.626 8.584ZM266.05 8.6C266.05 7.93867 265.916 7.36267 265.65 6.872C265.383 6.38133 265.02 6.008 264.562 5.752C264.114 5.48533 263.618 5.352 263.074 5.352C262.53 5.352 262.034 5.48 261.586 5.736C261.138 5.992 260.78 6.36533 260.514 6.856C260.247 7.34667 260.114 7.92267 260.114 8.584C260.114 9.256 260.247 9.84267 260.514 10.344C260.78 10.8347 261.138 11.2133 261.586 11.48C262.034 11.736 262.53 11.864 263.074 11.864C263.618 11.864 264.114 11.736 264.562 11.48C265.02 11.2133 265.383 10.8347 265.65 10.344C265.916 9.84267 266.05 9.26133 266.05 8.6ZM271.438 5.656C271.694 5.15467 272.057 4.76533 272.526 4.488C273.006 4.21067 273.587 4.072 274.27 4.072V5.576H273.886C272.254 5.576 271.438 6.46133 271.438 8.232V13H269.982V4.232H271.438V5.656Z" fill="#212121"/>
</svg>
