<svg width="269" height="54" viewBox="0 0 269 54" fill="none" xmlns="http://www.w3.org/2000/svg">
<path d="M6.8894 3.95V4.888H9.4094V9.69H10.5714V0.492H9.4094V3.95H6.8894ZM7.6314 6.904C5.8114 6.26 4.5794 4.692 4.5794 3.054V2.438H7.3374V1.5H0.631398V2.438H3.4314V3.068C3.4314 4.846 2.1294 6.512 0.267398 7.184L0.869399 8.08C2.3394 7.548 3.4874 6.386 4.0334 4.958C4.5794 6.246 5.6574 7.296 7.0574 7.8L7.6314 6.904ZM3.6974 11.818V8.878H2.5354V12.756H10.9214V11.818H3.6974ZM19.6843 7.898V8.752H22.2323V10.04H23.3803V0.478H22.2323V7.898H19.6843ZM17.1223 1.836C18.3123 1.836 19.1243 2.368 19.1243 3.166C19.1243 3.978 18.3123 4.51 17.1223 4.51C15.9323 4.51 15.1203 3.978 15.1203 3.166C15.1203 2.368 15.9323 1.836 17.1223 1.836ZM17.1223 5.364C18.9563 5.364 20.2163 4.51 20.2163 3.166C20.2163 1.85 18.9563 0.981999 17.1223 0.981999C15.2883 0.981999 14.0283 1.85 14.0283 3.166C14.0283 4.51 15.2883 5.364 17.1223 5.364ZM16.6743 9.592H17.8223V7.114C18.9563 7.044 20.1183 6.918 21.2243 6.75L21.1263 5.924C18.4663 6.26 15.3583 6.288 13.0343 6.288L13.1883 7.24C14.2243 7.24 15.4283 7.226 16.6743 7.17V9.592ZM15.9743 11.818V9.102H14.8263V12.756H23.7023V11.818H15.9743ZM31.6532 1.556C33.7112 1.556 34.8872 2.032 34.8872 2.872C34.8872 3.712 33.7112 4.188 31.6532 4.188C29.5952 4.188 28.4192 3.712 28.4192 2.872C28.4192 2.032 29.5952 1.556 31.6532 1.556ZM31.6532 5.042C34.4112 5.042 36.0632 4.286 36.0632 2.872C36.0632 1.458 34.4112 0.688 31.6532 0.688C28.8952 0.688 27.2432 1.458 27.2432 2.872C27.2432 4.286 28.8952 5.042 31.6532 5.042ZM28.5032 10.726H35.8812V7.898H27.3412V8.766H34.7472V9.886H27.3832V12.896H36.2592V12H28.5032V10.726ZM25.9692 5.896V6.82H37.3372V5.896H25.9692ZM51.7785 0.463999V3.992H48.7405C48.8665 3.264 48.9225 2.536 48.9225 1.78H43.2805V2.718H47.7885C47.7325 3.488 47.6205 4.216 47.3825 4.916L42.6365 5.224L42.8465 6.232L47.0325 5.84C46.2625 7.506 44.8765 8.948 42.5945 10.082L43.2385 10.978C46.3325 9.41 47.8865 7.31 48.5305 4.916H51.7785V7.352H48.3625V8.29H51.7785V13.022H52.9265V0.463999H51.7785ZM59.9534 2.718H62.9074V1.766H55.8934V2.718H58.8054V4.314C58.8054 6.484 57.2794 8.85 55.4734 9.704L56.1454 10.628C57.5734 9.9 58.8054 8.318 59.3794 6.484C59.9814 8.206 61.2134 9.648 62.6694 10.32L63.3134 9.396C61.4654 8.612 59.9534 6.442 59.9534 4.314V2.718ZM64.6014 0.492V13.036H65.7494V0.492H64.6014ZM73.4428 4.09C73.4428 2.942 74.3528 2.13 75.5708 2.13C76.7748 2.13 77.6848 2.942 77.6848 4.09C77.6848 5.238 76.7748 6.05 75.5708 6.05C74.3528 6.05 73.4428 5.238 73.4428 4.09ZM78.8048 4.09C78.8048 2.382 77.4328 1.192 75.5708 1.192C73.6948 1.192 72.3228 2.382 72.3228 4.09C72.3228 5.798 73.6948 6.988 75.5708 6.988C77.4328 6.988 78.8048 5.798 78.8048 4.09ZM74.5208 8.094H73.4008V12.714H74.0028C74.8568 12.714 76.0328 12.644 77.2228 12.252L77.0408 11.342C76.1728 11.622 75.2488 11.734 74.5208 11.762V8.094ZM79.9248 12.21C79.1548 12.21 78.6228 11.818 78.6228 11.244C78.6228 10.67 79.1548 10.292 79.9248 10.292C80.6808 10.292 81.2268 10.67 81.2268 11.244C81.2268 11.818 80.6808 12.21 79.9248 12.21ZM79.9248 9.48C78.5668 9.48 77.6008 10.166 77.6008 11.244C77.6008 12.336 78.5668 13.022 79.9248 13.022C81.2828 13.022 82.2488 12.336 82.2488 11.244C82.2488 10.166 81.2828 9.48 79.9248 9.48ZM80.4848 7.044H79.3648V8.178H76.7608V9.032H83.0748V8.178H80.4848V7.044ZM81.8288 3.292V0.478H80.6808V6.736H81.8288V4.244H83.6908V3.292H81.8288ZM90.6337 1.262C88.0297 1.262 86.0697 2.648 86.0697 4.734C86.0697 6.834 88.0297 8.206 90.6337 8.206C93.2377 8.206 95.1977 6.834 95.1977 4.734C95.1977 2.648 93.2377 1.262 90.6337 1.262ZM90.6337 2.2C92.6217 2.2 94.1057 3.222 94.1057 4.734C94.1057 6.26 92.6217 7.268 90.6337 7.268C88.6597 7.268 87.1617 6.26 87.1617 4.734C87.1617 3.222 88.6597 2.2 90.6337 2.2ZM84.9497 10.418V11.37H96.3597V10.418H84.9497ZM103.023 6.526H99.5506V2.494H103.023V6.526ZM107.027 3.628V5.378H104.143V3.628H107.027ZM104.143 6.316H107.027V9.648H108.189V0.492H107.027V2.69H104.143V1.584H98.4166V7.436H104.143V6.316ZM101.259 11.818V8.836H100.111V12.756H108.483V11.818H101.259ZM115.196 1.836V2.76H119.914C119.676 5.742 117.996 8.15 114.622 9.76L115.238 10.698C119.41 8.654 121.076 5.462 121.076 1.836H115.196ZM123.61 0.478V13.036H124.758V0.478H123.61ZM128.075 1.836V2.76H132.793C132.555 5.742 130.875 8.15 127.501 9.76L128.117 10.698C132.289 8.654 133.955 5.462 133.955 1.836H128.075ZM136.489 0.478V13.036H137.637V0.478H136.489ZM149.004 2.676H141.668V5.364H150.362V4.538H142.802V3.46H150.138V0.841999H141.64V1.654H149.004V2.676ZM142.732 10.88H150.18V8.206H141.57V9.032H149.046V10.082H141.598V12.868H150.572V12.042H142.732V10.88ZM140.212 6.316V7.184H151.594V6.316H140.212ZM158.111 4.426C158.111 3.18 159.021 2.284 160.253 2.284C161.471 2.284 162.381 3.18 162.381 4.426C162.381 5.672 161.471 6.568 160.253 6.568C159.021 6.568 158.111 5.672 158.111 4.426ZM166.007 3.376V5.462H163.305C163.417 5.14 163.473 4.79 163.473 4.426C163.473 4.048 163.417 3.698 163.305 3.376H166.007ZM166.007 6.386V9.76H167.169V0.492H166.007V2.452H162.815C162.227 1.724 161.331 1.276 160.253 1.276C158.405 1.276 157.019 2.592 157.019 4.426C157.019 6.26 158.405 7.576 160.253 7.576C161.331 7.576 162.241 7.128 162.829 6.386H166.007ZM160.295 11.818V8.808H159.133V12.756H167.519V11.818H160.295ZM178.886 3.194V4.692H175.61V5.588H178.886V6.89H180.048V0.478H178.886V2.298H176.044C176.128 1.906 176.17 1.514 176.17 1.094H170.556V2.032H174.924C174.714 4.02 172.964 5.518 169.898 6.232L170.318 7.17C173.09 6.512 175.008 5.168 175.792 3.194H178.886ZM173.118 12V10.544H180.048V7.464H171.956V8.388H178.9V9.676H171.984V12.91H180.468V12H173.118ZM190.029 1.626H186.893V0.352H185.745V1.626H182.623V2.508H190.029V1.626ZM184.415 5.126C184.415 4.37 185.157 3.922 186.319 3.922C187.481 3.922 188.237 4.37 188.237 5.126C188.237 5.868 187.481 6.33 186.319 6.33C185.157 6.33 184.415 5.868 184.415 5.126ZM189.329 5.126C189.329 3.852 188.139 3.068 186.319 3.068C184.513 3.068 183.323 3.852 183.323 5.126C183.323 6.4 184.513 7.184 186.319 7.184C188.139 7.184 189.329 6.4 189.329 5.126ZM185.507 10.81H192.325V8.024H184.345V8.878H191.191V9.97H184.387V12.896H192.787V12.014H185.507V10.81ZM192.325 3.46V0.436H191.177V7.38H192.325V4.412H194.187V3.46H192.325ZM210 5.266C207.718 4.93 205.478 3.376 205.478 1.626V0.926H204.274V1.626C204.274 3.418 202.062 4.93 199.78 5.266L200.242 6.19C202.202 5.854 204.092 4.776 204.876 3.25C205.688 4.762 207.578 5.854 209.524 6.19L210 5.266ZM210.546 7.548H199.206V8.5H204.274V13.05H205.422V8.5H210.56L210.546 7.548ZM220.522 11.972H218.31V10.278H220.522V11.972ZM220.522 9.424H218.31V7.842H217.232V12.868H221.586V7.842H220.522V9.424ZM219.234 5.868C217.988 5.868 217.092 5.056 217.092 3.922C217.092 2.788 217.988 1.99 219.234 1.99C220.48 1.99 221.376 2.788 221.376 3.922C221.376 5.056 220.48 5.868 219.234 5.868ZM224.988 4.37V7.128H226.15V0.492H224.988V3.432H222.426C222.188 1.99 220.928 1.038 219.234 1.038C217.358 1.038 216 2.2 216 3.922C216 5.644 217.358 6.82 219.234 6.82C220.956 6.82 222.216 5.84 222.44 4.37H224.988ZM225.142 7.758H224.022V8.822C224.022 10.11 223.238 11.468 221.74 12.112L222.328 12.98C223.42 12.504 224.176 11.636 224.582 10.614C224.96 11.65 225.716 12.504 226.85 12.98L227.424 12.112C225.926 11.524 225.142 10.152 225.142 8.822V7.758ZM239.392 4.398C237.166 4.118 234.954 2.732 234.954 1.178V0.618H233.778V1.178C233.778 2.774 231.58 4.118 229.326 4.398L229.746 5.322C231.706 5.014 233.582 4.034 234.366 2.634C235.164 4.034 237.026 5.014 238.972 5.322L239.392 4.398ZM237.418 11.944H231.244V10.348H237.418V11.944ZM237.418 9.466H231.244V7.996H230.11V12.868H238.552V7.996H237.418V9.466ZM228.668 6.204V7.128H240.036V6.204H228.668ZM243.493 1.696H242.345V9.788H243.381C245.383 9.788 247.357 9.648 249.541 9.2L249.415 8.22C247.329 8.64 245.383 8.808 243.493 8.808V1.696ZM250.703 0.478V13.022H251.851V0.478H250.703ZM256.12 2.634H260.81V1.682H254.972V9.928H255.966C258.332 9.928 259.984 9.844 261.902 9.48L261.776 8.528C259.956 8.85 258.346 8.948 256.12 8.948V2.634ZM266.172 5.434H264.1V0.478H262.952V13.064H264.1V6.386H266.172V5.434ZM268.061 12.084C267.818 12.084 267.613 12 267.445 11.832C267.277 11.664 267.193 11.4587 267.193 11.216C267.193 10.9733 267.277 10.768 267.445 10.6C267.613 10.432 267.818 10.348 268.061 10.348C268.294 10.348 268.49 10.432 268.649 10.6C268.817 10.768 268.901 10.9733 268.901 11.216C268.901 11.4587 268.817 11.664 268.649 11.832C268.49 12 268.294 12.084 268.061 12.084ZM56.1482 26.498H52.6202V22.522H56.1482V26.498ZM57.2682 21.598H51.5002V27.408H57.2682V21.598ZM54.0622 28.808H52.9142V32.756H61.2862V31.818H54.0622V28.808ZM60.7262 24.3V20.464H59.5782V29.662H60.7262V25.266H62.5742V24.3H60.7262ZM65.2191 24.202C65.2191 23.012 66.1151 22.2 67.3751 22.2C68.6211 22.2 69.5311 23.012 69.5311 24.202C69.5311 25.378 68.6211 26.204 67.3751 26.204C66.1151 26.204 65.2191 25.378 65.2191 24.202ZM70.6511 24.202C70.6511 22.438 69.2651 21.234 67.3751 21.234C65.4711 21.234 64.0991 22.438 64.0991 24.202C64.0991 25.952 65.4711 27.17 67.3751 27.17C69.2651 27.17 70.6511 25.952 70.6511 24.202ZM65.4431 29.466H72.4571V33.036H73.6051V28.528H65.4431V29.466ZM75.4251 23.348V22.396H73.6051V20.492H72.4571V27.94H73.6051V26.022H75.4251V25.084H73.6051V23.348H75.4251ZM87.1365 23.95V24.888H89.6565V29.69H90.8185V20.492H89.6565V23.95H87.1365ZM87.8785 26.904C86.0585 26.26 84.8265 24.692 84.8265 23.054V22.438H87.5845V21.5H80.8785V22.438H83.6785V23.068C83.6785 24.846 82.3765 26.512 80.5145 27.184L81.1165 28.08C82.5865 27.548 83.7345 26.386 84.2805 24.958C84.8265 26.246 85.9045 27.296 87.3045 27.8L87.8785 26.904ZM83.9445 31.818V28.878H82.7825V32.756H91.1685V31.818H83.9445ZM99.9314 27.898V28.752H102.479V30.04H103.627V20.478H102.479V27.898H99.9314ZM97.3694 21.836C98.5594 21.836 99.3714 22.368 99.3714 23.166C99.3714 23.978 98.5594 24.51 97.3694 24.51C96.1794 24.51 95.3674 23.978 95.3674 23.166C95.3674 22.368 96.1794 21.836 97.3694 21.836ZM97.3694 25.364C99.2034 25.364 100.463 24.51 100.463 23.166C100.463 21.85 99.2034 20.982 97.3694 20.982C95.5354 20.982 94.2754 21.85 94.2754 23.166C94.2754 24.51 95.5354 25.364 97.3694 25.364ZM96.9214 29.592H98.0694V27.114C99.2034 27.044 100.365 26.918 101.471 26.75L101.373 25.924C98.7134 26.26 95.6054 26.288 93.2814 26.288L93.4354 27.24C94.4714 27.24 95.6754 27.226 96.9214 27.17V29.592ZM96.2214 31.818V29.102H95.0734V32.756H103.949V31.818H96.2214ZM115.358 20.478V33.064H116.506V20.478H115.358ZM109.884 21.444C108.022 21.444 106.692 23.152 106.692 25.826C106.692 28.5 108.022 30.208 109.884 30.208C111.746 30.208 113.076 28.5 113.076 25.826C113.076 23.152 111.746 21.444 109.884 21.444ZM109.884 22.48C111.102 22.48 111.97 23.796 111.97 25.826C111.97 27.87 111.102 29.186 109.884 29.186C108.652 29.186 107.784 27.87 107.784 25.826C107.784 23.796 108.652 22.48 109.884 22.48ZM132.026 20.464V23.992H128.988C129.114 23.264 129.17 22.536 129.17 21.78H123.528V22.718H128.036C127.98 23.488 127.868 24.216 127.63 24.916L122.884 25.224L123.094 26.232L127.28 25.84C126.51 27.506 125.124 28.948 122.842 30.082L123.486 30.978C126.58 29.41 128.134 27.31 128.778 24.916H132.026V27.352H128.61V28.29H132.026V33.022H133.174V20.464H132.026ZM140.201 22.718H143.155V21.766H136.141V22.718H139.053V24.314C139.053 26.484 137.527 28.85 135.721 29.704L136.393 30.628C137.821 29.9 139.053 28.318 139.627 26.484C140.229 28.206 141.461 29.648 142.917 30.32L143.561 29.396C141.713 28.612 140.201 26.442 140.201 24.314V22.718ZM144.849 20.492V33.036H145.997V20.492H144.849ZM153.079 22.718H156.033V21.766H149.019V22.718H151.931V24.314C151.931 26.484 150.405 28.85 148.599 29.704L149.271 30.628C150.699 29.9 151.931 28.318 152.505 26.484C153.107 28.206 154.339 29.648 155.795 30.32L156.439 29.396C154.591 28.612 153.079 26.442 153.079 24.314V22.718ZM157.727 20.492V33.036H158.875V20.492H157.727ZM166.569 24.09C166.569 22.942 167.479 22.13 168.697 22.13C169.901 22.13 170.811 22.942 170.811 24.09C170.811 25.238 169.901 26.05 168.697 26.05C167.479 26.05 166.569 25.238 166.569 24.09ZM171.931 24.09C171.931 22.382 170.559 21.192 168.697 21.192C166.821 21.192 165.449 22.382 165.449 24.09C165.449 25.798 166.821 26.988 168.697 26.988C170.559 26.988 171.931 25.798 171.931 24.09ZM167.647 28.094H166.527V32.714H167.129C167.983 32.714 169.159 32.644 170.349 32.252L170.167 31.342C169.299 31.622 168.375 31.734 167.647 31.762V28.094ZM173.051 32.21C172.281 32.21 171.749 31.818 171.749 31.244C171.749 30.67 172.281 30.292 173.051 30.292C173.807 30.292 174.353 30.67 174.353 31.244C174.353 31.818 173.807 32.21 173.051 32.21ZM173.051 29.48C171.693 29.48 170.727 30.166 170.727 31.244C170.727 32.336 171.693 33.022 173.051 33.022C174.409 33.022 175.375 32.336 175.375 31.244C175.375 30.166 174.409 29.48 173.051 29.48ZM173.611 27.044H172.491V28.178H169.887V29.032H176.201V28.178H173.611V27.044ZM174.955 23.292V20.478H173.807V26.736H174.955V24.244H176.817V23.292H174.955ZM188.156 24.258H180.764V20.94H179.616V25.196H188.156V24.258ZM180.68 29.06H179.532V32.728H188.226V31.79H180.68V29.06ZM178.076 26.876V27.8H189.458V26.876H178.076ZM192.649 22.634H197.339V21.682H191.501V29.928H192.495C194.861 29.928 196.513 29.844 198.431 29.48L198.305 28.528C196.485 28.85 194.875 28.948 192.649 28.948V22.634ZM202.701 25.434H200.629V20.478H199.481V33.064H200.629V26.386H202.701V25.434ZM209.027 26.526H205.555V22.494H209.027V26.526ZM213.031 23.628V25.378H210.147V23.628H213.031ZM210.147 26.316H213.031V29.648H214.193V20.492H213.031V22.69H210.147V21.584H204.421V27.436H210.147V26.316ZM207.263 31.818V28.836H206.115V32.756H214.487V31.818H207.263ZM218.378 30.236L216.81 34.002H215.956L216.978 30.236H218.378ZM32.3238 41.836V42.76H37.0418C36.8038 45.742 35.1238 48.15 31.7498 49.76L32.3658 50.698C36.5378 48.654 38.2038 45.462 38.2038 41.836H32.3238ZM40.7378 40.478V53.036H41.8858V40.478H40.7378ZM45.2028 41.836V42.76H49.9208C49.6828 45.742 48.0028 48.15 44.6288 49.76L45.2448 50.698C49.4168 48.654 51.0828 45.462 51.0828 41.836H45.2028ZM53.6168 40.478V53.036H54.7648V40.478H53.6168ZM66.1317 42.676H58.7957V45.364H67.4897V44.538H59.9297V43.46H67.2657V40.842H58.7677V41.654H66.1317V42.676ZM59.8597 50.88H67.3077V48.206H58.6977V49.032H66.1737V50.082H58.7257V52.868H67.6997V52.042H59.8597V50.88ZM57.3397 46.316V47.184H68.7217V46.316H57.3397ZM74.973 46.022C77.045 45.798 78.865 45.056 79.635 43.824C80.391 45.056 82.225 45.798 84.297 46.022L84.647 45.126C82.295 44.93 80.391 43.978 80.265 42.62H84.143V41.71H80.209V40.436H79.061V41.71H75.127V42.62H78.991C78.865 43.978 76.961 44.93 74.623 45.126L74.973 46.022ZM82.757 50.936C82.757 51.72 81.609 52.154 79.621 52.154C77.633 52.154 76.485 51.72 76.485 50.936C76.485 50.166 77.633 49.718 79.621 49.718C81.609 49.718 82.757 50.166 82.757 50.936ZM85.305 47.604V46.68H73.951V47.604H79.061V48.864C76.695 48.962 75.323 49.69 75.323 50.936C75.323 52.294 76.919 53.022 79.635 53.022C82.323 53.022 83.919 52.294 83.919 50.936C83.919 49.69 82.547 48.962 80.195 48.864V47.604H85.305ZM93.4939 43.95V44.888H96.0139V49.69H97.1759V40.492H96.0139V43.95H93.4939ZM94.2359 46.904C92.4159 46.26 91.1839 44.692 91.1839 43.054V42.438H93.9419V41.5H87.2359V42.438H90.0359V43.068C90.0359 44.846 88.7339 46.512 86.8719 47.184L87.4739 48.08C88.9439 47.548 90.0919 46.386 90.6379 44.958C91.1839 46.246 92.2619 47.296 93.6619 47.8L94.2359 46.904ZM90.3019 51.818V48.878H89.1399V52.756H97.5259V51.818H90.3019ZM103.391 49.284C102.257 49.284 101.431 48.472 101.431 47.352C101.431 46.218 102.257 45.406 103.391 45.406C104.539 45.406 105.365 46.218 105.365 47.352C105.365 48.472 104.539 49.284 103.391 49.284ZM103.391 44.454C101.627 44.454 100.353 45.658 100.353 47.352C100.353 49.06 101.627 50.236 103.391 50.236C105.183 50.236 106.457 49.06 106.457 47.352C106.457 45.658 105.183 44.454 103.391 44.454ZM103.951 40.632H102.803V42.494H99.6388V43.418H107.045V42.494H103.951V40.632ZM111.441 45.644H109.383V40.492H108.235V53.036H109.383V46.61H111.441V45.644ZM121.45 42.984C121.45 44.496 121.45 46.26 120.974 48.668L122.122 48.794C122.598 46.26 122.598 44.538 122.598 42.984V41.738H113.792V42.676H121.45V42.984ZM118.16 50.334V45.84H117.012V50.334H112.602V51.272H123.956V50.334H118.16ZM130.879 42.634H135.569V41.682H129.731V49.928H130.725C133.091 49.928 134.743 49.844 136.661 49.48L136.535 48.528C134.715 48.85 133.105 48.948 130.879 48.948V42.634ZM140.931 45.434H138.859V40.478H137.711V53.064H138.859V46.386H140.931V45.434ZM146.53 41.57H145.396V43.824C145.396 46.204 143.87 48.612 142.022 49.494L142.722 50.432C144.192 49.676 145.396 48.108 145.97 46.218C146.572 48.01 147.776 49.494 149.204 50.194L149.89 49.27C148.028 48.43 146.53 46.12 146.53 43.824V41.57ZM151.206 40.478V53.064H152.354V40.478H151.206ZM163.141 41.57H162.007V43.824C162.007 46.204 160.481 48.612 158.633 49.494L159.333 50.432C160.803 49.676 162.007 48.108 162.581 46.218C163.183 48.01 164.387 49.494 165.815 50.194L166.501 49.27C164.639 48.43 163.141 46.12 163.141 43.824V41.57ZM167.817 40.478V53.064H168.965V40.478H167.817ZM177.826 50.502V47.282H181.648V46.358H174.158V42.424H181.522V41.486H173.01V47.282H176.664V50.502H171.554V51.454H182.964V50.502H177.826ZM187.555 49.172C186.575 49.172 185.889 48.374 185.889 47.254C185.889 46.162 186.575 45.364 187.555 45.364C188.521 45.364 189.221 46.162 189.221 47.254C189.221 48.374 188.521 49.172 187.555 49.172ZM187.555 44.398C186.001 44.398 184.867 45.574 184.867 47.254C184.867 48.962 186.001 50.124 187.555 50.124C189.109 50.124 190.243 48.962 190.243 47.254C190.243 45.574 189.109 44.398 187.555 44.398ZM188.115 40.842H186.981V42.62H184.433V43.558H190.663V42.62H188.115V40.842ZM193.981 40.464V45.77H192.371V40.758H191.293V52.42H192.371V46.708H193.981V53.022H195.087V40.464H193.981ZM198.446 46.582C200.392 46.246 202.24 45.196 203.01 43.712C203.766 45.196 205.628 46.246 207.574 46.582L208.022 45.672C205.81 45.35 203.64 43.908 203.64 42.256V42.186H207.574V41.262H198.404V42.186H202.366V42.256C202.366 43.908 200.196 45.35 198.012 45.672L198.446 46.582ZM208.68 47.632H197.34V48.57H202.408V53.036H203.556V48.57H208.694L208.68 47.632ZM213.929 41.668H212.823V44.062C212.823 46.218 211.787 48.472 210.065 49.48L210.779 50.334C212.025 49.564 212.935 48.15 213.383 46.484C213.831 48.01 214.671 49.34 215.861 50.068L216.519 49.172C214.867 48.164 213.929 46.036 213.929 44.02V41.668ZM217.233 44.986H215.161V45.938H217.233V52.42H218.311V40.758H217.233V44.986ZM219.781 40.478V53.036H220.873V40.478H219.781ZM227.018 47.52C227.536 47.646 228.138 47.716 228.754 47.716C229.384 47.716 229.986 47.646 230.518 47.52V50.474H227.018V47.52ZM228.754 42.172C230.77 42.172 232.226 43.096 232.226 44.496C232.226 45.896 230.77 46.82 228.754 46.82C226.738 46.82 225.296 45.896 225.296 44.496C225.296 43.096 226.738 42.172 228.754 42.172ZM231.666 50.474V47.072C232.702 46.526 233.318 45.63 233.318 44.496C233.318 42.536 231.428 41.276 228.754 41.276C226.094 41.276 224.19 42.536 224.19 44.496C224.19 45.63 224.82 46.54 225.87 47.086V50.474H223.07V51.426H234.48V50.474H231.666ZM236.705 52.084C236.462 52.084 236.257 52 236.089 51.832C235.921 51.664 235.837 51.4587 235.837 51.216C235.837 50.9733 235.921 50.768 236.089 50.6C236.257 50.432 236.462 50.348 236.705 50.348C236.938 50.348 237.134 50.432 237.293 50.6C237.461 50.768 237.545 50.9733 237.545 51.216C237.545 51.4587 237.461 51.664 237.293 51.832C237.134 52 236.938 52.084 236.705 52.084Z" fill="#757575"/>
</svg>
