<svg width="240" height="160" viewBox="0 0 240 160" fill="none" xmlns="http://www.w3.org/2000/svg">
<rect width="240" height="160" rx="13" fill="#E0E0E0"/>
<mask id="mask0_193_2136" style="mask-type:alpha" maskUnits="userSpaceOnUse" x="106" y="66" width="28" height="28">
<path fill-rule="evenodd" clip-rule="evenodd" d="M106.667 66.667H133.28V93.2667H106.667V66.667Z" fill="white"/>
</mask>
<g mask="url(#mask0_193_2136)">
<path fill-rule="evenodd" clip-rule="evenodd" d="M114.201 68.6667C110.839 68.6667 108.667 70.9694 108.667 74.5321V85.4014C108.667 88.9654 110.839 91.2667 114.201 91.2667H125.734C129.103 91.2667 131.281 88.9654 131.281 85.4014V74.5321C131.281 70.9694 129.103 68.6667 125.734 68.6667H114.201ZM125.734 93.2667H114.201C109.694 93.2667 106.667 90.1054 106.667 85.4014V74.5321C106.667 69.8281 109.694 66.6667 114.201 66.6667H125.734C130.247 66.6667 133.281 69.8281 133.281 74.5321V85.4014C133.281 90.1054 130.247 93.2667 125.734 93.2667Z" fill="#BDBDBD"/>
<path fill-rule="evenodd" clip-rule="evenodd" d="M111.042 86.9072C110.794 86.9072 110.547 86.8165 110.354 86.6325C109.953 86.2538 109.937 85.6192 110.317 85.2205L112.354 83.0698C113.433 81.9245 115.253 81.8685 116.403 82.9485L117.681 84.2445C118.037 84.6045 118.615 84.6112 118.973 84.2592C119.107 84.1005 122.011 80.5738 122.011 80.5738C122.563 79.9045 123.342 79.4912 124.207 79.4058C125.074 79.3298 125.915 79.5818 126.586 80.1325C126.643 80.1792 126.695 80.2245 129.623 83.2312C130.009 83.6258 130.002 84.2592 129.606 84.6445C129.211 85.0325 128.577 85.0205 128.191 84.6258C128.191 84.6258 125.459 81.8218 125.265 81.6325C125.058 81.4632 124.726 81.3645 124.399 81.3965C124.067 81.4298 123.769 81.5885 123.557 81.8458C120.458 85.6045 120.421 85.6405 120.37 85.6898C119.226 86.8125 117.379 86.7938 116.255 85.6472C116.255 85.6472 115.015 84.3885 114.994 84.3632C114.686 84.0778 114.137 84.0965 113.807 84.4445L111.767 86.5952C111.57 86.8032 111.306 86.9072 111.042 86.9072Z" fill="#BDBDBD"/>
<path fill-rule="evenodd" clip-rule="evenodd" d="M115.41 74.8386C114.673 74.8386 114.073 75.4386 114.073 76.1773C114.073 76.916 114.673 77.5173 115.411 77.5173C116.15 77.5173 116.751 76.916 116.751 76.1773C116.751 75.44 116.15 74.84 115.41 74.8386ZM115.411 79.5173C113.57 79.5173 112.073 78.0186 112.073 76.1773C112.073 74.336 113.57 72.8386 115.411 72.8386C117.254 72.84 118.751 74.3386 118.751 76.1773C118.751 78.0186 117.253 79.5173 115.411 79.5173Z" fill="#BDBDBD"/>
</g>
</svg>
