<svg width="129" height="14" viewBox="0 0 129 14" fill="none" xmlns="http://www.w3.org/2000/svg">
<path d="M9.46094 13H8.00494L2.14894 4.12V13H0.692938V1.832H2.14894L8.00494 10.696V1.832H9.46094V13ZM15.7669 13.144C14.9456 13.144 14.1989 12.9573 13.5269 12.584C12.8656 12.2107 12.3429 11.6827 11.9589 11C11.5856 10.3067 11.3989 9.50667 11.3989 8.6C11.3989 7.704 11.5909 6.91467 11.9749 6.232C12.3696 5.53867 12.9029 5.01067 13.5749 4.648C14.2469 4.27467 14.9989 4.088 15.8309 4.088C16.6629 4.088 17.4149 4.27467 18.0869 4.648C18.7589 5.01067 19.2869 5.53333 19.6709 6.216C20.0656 6.89867 20.2629 7.69333 20.2629 8.6C20.2629 9.50667 20.0603 10.3067 19.6549 11C19.2603 11.6827 18.7216 12.2107 18.0389 12.584C17.3563 12.9573 16.5989 13.144 15.7669 13.144ZM15.7669 11.864C16.2896 11.864 16.7803 11.7413 17.2389 11.496C17.6976 11.2507 18.0656 10.8827 18.3429 10.392C18.6309 9.90133 18.7749 9.304 18.7749 8.6C18.7749 7.896 18.6363 7.29867 18.3589 6.808C18.0816 6.31733 17.7189 5.95467 17.2709 5.72C16.8229 5.47467 16.3376 5.352 15.8149 5.352C15.2816 5.352 14.7909 5.47467 14.3429 5.72C13.9056 5.95467 13.5536 6.31733 13.2869 6.808C13.0203 7.29867 12.8869 7.896 12.8869 8.6C12.8869 9.31467 13.0149 9.91733 13.2709 10.408C13.5376 10.8987 13.8896 11.2667 14.3269 11.512C14.7643 11.7467 15.2443 11.864 15.7669 11.864ZM25.8989 8.584C25.8989 7.688 26.0803 6.904 26.4429 6.232C26.8056 5.54933 27.3016 5.02133 27.9309 4.648C28.5709 4.27467 29.2856 4.088 30.0749 4.088C30.7576 4.088 31.3923 4.248 31.9789 4.568C32.5656 4.87733 33.0136 5.288 33.3229 5.8V1.16H34.7949V13H33.3229V11.352C33.0349 11.8747 32.6083 12.3067 32.0429 12.648C31.4776 12.9787 30.8163 13.144 30.0589 13.144C29.2803 13.144 28.5709 12.952 27.9309 12.568C27.3016 12.184 26.8056 11.6453 26.4429 10.952C26.0803 10.2587 25.8989 9.46933 25.8989 8.584ZM33.3229 8.6C33.3229 7.93867 33.1896 7.36267 32.9229 6.872C32.6563 6.38133 32.2936 6.008 31.8349 5.752C31.3869 5.48533 30.8909 5.352 30.3469 5.352C29.8029 5.352 29.3069 5.48 28.8589 5.736C28.4109 5.992 28.0536 6.36533 27.7869 6.856C27.5203 7.34667 27.3869 7.92267 27.3869 8.584C27.3869 9.256 27.5203 9.84267 27.7869 10.344C28.0536 10.8347 28.4109 11.2133 28.8589 11.48C29.3069 11.736 29.8029 11.864 30.3469 11.864C30.8909 11.864 31.3869 11.736 31.8349 11.48C32.2936 11.2133 32.6563 10.8347 32.9229 10.344C33.1896 9.84267 33.3229 9.26133 33.3229 8.6ZM45.2554 8.28C45.2554 8.55733 45.2394 8.85067 45.2074 9.16H38.1994C38.2528 10.024 38.5461 10.7013 39.0794 11.192C39.6234 11.672 40.2794 11.912 41.0474 11.912C41.6768 11.912 42.1994 11.768 42.6154 11.48C43.0421 11.1813 43.3408 10.7867 43.5114 10.296H45.0794C44.8448 11.1387 44.3754 11.8267 43.6714 12.36C42.9674 12.8827 42.0928 13.144 41.0474 13.144C40.2154 13.144 39.4688 12.9573 38.8074 12.584C38.1568 12.2107 37.6448 11.6827 37.2714 11C36.8981 10.3067 36.7114 9.50667 36.7114 8.6C36.7114 7.69333 36.8928 6.89867 37.2554 6.216C37.6181 5.53333 38.1248 5.01067 38.7754 4.648C39.4368 4.27467 40.1941 4.088 41.0474 4.088C41.8794 4.088 42.6154 4.26933 43.2554 4.632C43.8954 4.99467 44.3861 5.496 44.7274 6.136C45.0794 6.76533 45.2554 7.48 45.2554 8.28ZM43.7514 7.976C43.7514 7.42133 43.6288 6.94667 43.3834 6.552C43.1381 6.14667 42.8021 5.84267 42.3754 5.64C41.9594 5.42667 41.4954 5.32 40.9834 5.32C40.2474 5.32 39.6181 5.55467 39.0954 6.024C38.5834 6.49333 38.2901 7.144 38.2154 7.976H43.7514ZM50.4413 11.656L53.1613 4.232H54.7133L51.2733 13H49.5773L46.1373 4.232H47.7053L50.4413 11.656ZM56.8981 2.808C56.6207 2.808 56.3861 2.712 56.1941 2.52C56.0021 2.328 55.9061 2.09333 55.9061 1.816C55.9061 1.53867 56.0021 1.304 56.1941 1.112C56.3861 0.919999 56.6207 0.823999 56.8981 0.823999C57.1647 0.823999 57.3887 0.919999 57.5701 1.112C57.7621 1.304 57.8581 1.53867 57.8581 1.816C57.8581 2.09333 57.7621 2.328 57.5701 2.52C57.3887 2.712 57.1647 2.808 56.8981 2.808ZM57.6021 4.232V13H56.1461V4.232H57.6021ZM59.5396 8.6C59.5396 7.69333 59.7209 6.904 60.0836 6.232C60.4462 5.54933 60.9476 5.02133 61.5876 4.648C62.2382 4.27467 62.9796 4.088 63.8116 4.088C64.8889 4.088 65.7742 4.34933 66.4676 4.872C67.1716 5.39467 67.6356 6.12 67.8596 7.048H66.2916C66.1422 6.51467 65.8489 6.09333 65.4116 5.784C64.9849 5.47467 64.4516 5.32 63.8116 5.32C62.9796 5.32 62.3076 5.608 61.7956 6.184C61.2836 6.74933 61.0276 7.55467 61.0276 8.6C61.0276 9.656 61.2836 10.472 61.7956 11.048C62.3076 11.624 62.9796 11.912 63.8116 11.912C64.4516 11.912 64.9849 11.7627 65.4116 11.464C65.8382 11.1653 66.1316 10.7387 66.2916 10.184H67.8596C67.6249 11.08 67.1556 11.8 66.4516 12.344C65.7476 12.8773 64.8676 13.144 63.8116 13.144C62.9796 13.144 62.2382 12.9573 61.5876 12.584C60.9476 12.2107 60.4462 11.6827 60.0836 11C59.7209 10.3173 59.5396 9.51733 59.5396 8.6ZM77.8023 8.28C77.8023 8.55733 77.7863 8.85067 77.7543 9.16H70.7463C70.7996 10.024 71.093 10.7013 71.6263 11.192C72.1703 11.672 72.8263 11.912 73.5943 11.912C74.2236 11.912 74.7463 11.768 75.1623 11.48C75.589 11.1813 75.8876 10.7867 76.0583 10.296H77.6263C77.3916 11.1387 76.9223 11.8267 76.2183 12.36C75.5143 12.8827 74.6396 13.144 73.5943 13.144C72.7623 13.144 72.0156 12.9573 71.3543 12.584C70.7036 12.2107 70.1916 11.6827 69.8183 11C69.445 10.3067 69.2583 9.50667 69.2583 8.6C69.2583 7.69333 69.4396 6.89867 69.8023 6.216C70.165 5.53333 70.6716 5.01067 71.3223 4.648C71.9836 4.27467 72.741 4.088 73.5943 4.088C74.4263 4.088 75.1623 4.26933 75.8023 4.632C76.4423 4.99467 76.933 5.496 77.2743 6.136C77.6263 6.76533 77.8023 7.48 77.8023 8.28ZM76.2983 7.976C76.2983 7.42133 76.1756 6.94667 75.9303 6.552C75.685 6.14667 75.349 5.84267 74.9223 5.64C74.5063 5.42667 74.0423 5.32 73.5303 5.32C72.7943 5.32 72.165 5.55467 71.6423 6.024C71.1303 6.49333 70.837 7.144 70.7623 7.976H76.2983ZM87.5578 5.432H85.7178V13H84.2618V5.432H83.1258V4.232H84.2618V3.608C84.2618 2.62667 84.5125 1.912 85.0138 1.464C85.5258 1.00533 86.3418 0.775999 87.4618 0.775999V1.992C86.8218 1.992 86.3685 2.12 86.1018 2.376C85.8458 2.62133 85.7178 3.032 85.7178 3.608V4.232H87.5578V5.432ZM93.0794 13.144C92.2581 13.144 91.5114 12.9573 90.8394 12.584C90.1781 12.2107 89.6554 11.6827 89.2714 11C88.8981 10.3067 88.7114 9.50667 88.7114 8.6C88.7114 7.704 88.9034 6.91467 89.2874 6.232C89.6821 5.53867 90.2154 5.01067 90.8874 4.648C91.5594 4.27467 92.3114 4.088 93.1434 4.088C93.9754 4.088 94.7274 4.27467 95.3994 4.648C96.0714 5.01067 96.5994 5.53333 96.9834 6.216C97.3781 6.89867 97.5754 7.69333 97.5754 8.6C97.5754 9.50667 97.3728 10.3067 96.9674 11C96.5728 11.6827 96.0341 12.2107 95.3514 12.584C94.6688 12.9573 93.9114 13.144 93.0794 13.144ZM93.0794 11.864C93.6021 11.864 94.0928 11.7413 94.5514 11.496C95.0101 11.2507 95.3781 10.8827 95.6554 10.392C95.9434 9.90133 96.0874 9.304 96.0874 8.6C96.0874 7.896 95.9488 7.29867 95.6714 6.808C95.3941 6.31733 95.0314 5.95467 94.5834 5.72C94.1354 5.47467 93.6501 5.352 93.1274 5.352C92.5941 5.352 92.1034 5.47467 91.6554 5.72C91.2181 5.95467 90.8661 6.31733 90.5994 6.808C90.3328 7.29867 90.1994 7.896 90.1994 8.6C90.1994 9.31467 90.3274 9.91733 90.5834 10.408C90.8501 10.8987 91.2021 11.2667 91.6394 11.512C92.0768 11.7467 92.5568 11.864 93.0794 11.864ZM107.266 4.232V13H105.81V11.704C105.532 12.152 105.143 12.504 104.642 12.76C104.151 13.0053 103.607 13.128 103.01 13.128C102.327 13.128 101.714 12.9893 101.17 12.712C100.626 12.424 100.194 11.9973 99.8738 11.432C99.5645 10.8667 99.4098 10.1787 99.4098 9.368V4.232H100.85V9.176C100.85 10.04 101.068 10.7067 101.506 11.176C101.943 11.6347 102.54 11.864 103.298 11.864C104.076 11.864 104.69 11.624 105.138 11.144C105.586 10.664 105.81 9.96533 105.81 9.048V4.232H107.266ZM113.996 4.072C115.063 4.072 115.927 4.39733 116.588 5.048C117.25 5.688 117.58 6.616 117.58 7.832V13H116.14V8.04C116.14 7.16533 115.922 6.49867 115.484 6.04C115.047 5.57067 114.45 5.336 113.692 5.336C112.924 5.336 112.311 5.576 111.852 6.056C111.404 6.536 111.18 7.23467 111.18 8.152V13H109.724V4.232H111.18V5.48C111.468 5.032 111.858 4.68533 112.348 4.44C112.85 4.19467 113.399 4.072 113.996 4.072ZM119.415 8.584C119.415 7.688 119.596 6.904 119.959 6.232C120.321 5.54933 120.817 5.02133 121.447 4.648C122.087 4.27467 122.801 4.088 123.591 4.088C124.273 4.088 124.908 4.248 125.495 4.568C126.081 4.87733 126.529 5.288 126.839 5.8V1.16H128.311V13H126.839V11.352C126.551 11.8747 126.124 12.3067 125.559 12.648C124.993 12.9787 124.332 13.144 123.575 13.144C122.796 13.144 122.087 12.952 121.447 12.568C120.817 12.184 120.321 11.6453 119.959 10.952C119.596 10.2587 119.415 9.46933 119.415 8.584ZM126.839 8.6C126.839 7.93867 126.705 7.36267 126.439 6.872C126.172 6.38133 125.809 6.008 125.351 5.752C124.903 5.48533 124.407 5.352 123.863 5.352C123.319 5.352 122.823 5.48 122.375 5.736C121.927 5.992 121.569 6.36533 121.303 6.856C121.036 7.34667 120.903 7.92267 120.903 8.584C120.903 9.256 121.036 9.84267 121.303 10.344C121.569 10.8347 121.927 11.2133 122.375 11.48C122.823 11.736 123.319 11.864 123.863 11.864C124.407 11.864 124.903 11.736 125.351 11.48C125.809 11.2133 126.172 10.8347 126.439 10.344C126.705 9.84267 126.839 9.26133 126.839 8.6Z" fill="#212121"/>
</svg>
