<svg width="165" height="15" viewBox="0 0 165 15" fill="none" xmlns="http://www.w3.org/2000/svg">
<path d="M1.4604 9.964H4.8764V11H0.186399V1.242H1.4604V9.964ZM13.2294 6.87C13.2294 7.11267 13.2154 7.36933 13.1874 7.64H7.05537C7.10203 8.396 7.3587 8.98867 7.82537 9.418C8.30137 9.838 8.87537 10.048 9.54737 10.048C10.098 10.048 10.5554 9.922 10.9194 9.67C11.2927 9.40867 11.554 9.06333 11.7034 8.634H13.0754C12.87 9.37133 12.4594 9.97333 11.8434 10.44C11.2274 10.8973 10.462 11.126 9.54737 11.126C8.81937 11.126 8.16603 10.9627 7.58737 10.636C7.01803 10.3093 6.57003 9.84733 6.24337 9.25C5.9167 8.64333 5.75337 7.94333 5.75337 7.15C5.75337 6.35667 5.91203 5.66133 6.22937 5.064C6.5467 4.46667 6.99003 4.00933 7.55937 3.692C8.13803 3.36533 8.8007 3.202 9.54737 3.202C10.2754 3.202 10.9194 3.36067 11.4794 3.678C12.0394 3.99533 12.4687 4.434 12.7674 4.994C13.0754 5.54467 13.2294 6.17 13.2294 6.87ZM11.9134 6.604C11.9134 6.11867 11.806 5.70333 11.5914 5.358C11.3767 5.00333 11.0827 4.73733 10.7094 4.56C10.3454 4.37333 9.93937 4.28 9.49137 4.28C8.84737 4.28 8.2967 4.48533 7.83937 4.896C7.39137 5.30667 7.1347 5.876 7.06937 6.604H11.9134ZM16.465 4.378V8.9C16.465 9.27333 16.5443 9.53933 16.703 9.698C16.8617 9.84733 17.137 9.922 17.529 9.922H18.467V11H17.319C16.6097 11 16.0777 10.8367 15.723 10.51C15.3683 10.1833 15.191 9.64667 15.191 8.9V4.378H14.197V3.328H15.191V1.396H16.465V3.328H18.467V4.378H16.465ZM20.2066 1.242H21.6206L20.2766 4.42H19.3806L20.2066 1.242ZM25.7891 11.126C25.2011 11.126 24.6738 11.028 24.2071 10.832C23.7405 10.6267 23.3718 10.3467 23.1011 9.992C22.8305 9.628 22.6811 9.21267 22.6531 8.746H23.9691C24.0065 9.12867 24.1838 9.44133 24.5011 9.684C24.8278 9.92667 25.2525 10.048 25.7751 10.048C26.2605 10.048 26.6431 9.94067 26.9231 9.726C27.2031 9.51133 27.3431 9.24067 27.3431 8.914C27.3431 8.578 27.1938 8.33067 26.8951 8.172C26.5965 8.004 26.1345 7.84067 25.5091 7.682C24.9398 7.53267 24.4731 7.38333 24.1091 7.234C23.7545 7.07533 23.4465 6.84667 23.1851 6.548C22.9331 6.24 22.8071 5.83867 22.8071 5.344C22.8071 4.952 22.9238 4.59267 23.1571 4.266C23.3905 3.93933 23.7218 3.68267 24.1511 3.496C24.5805 3.3 25.0705 3.202 25.6211 3.202C26.4705 3.202 27.1565 3.41667 27.6791 3.846C28.2018 4.27533 28.4818 4.86333 28.5191 5.61H27.2451C27.2171 5.20867 27.0538 4.88667 26.7551 4.644C26.4658 4.40133 26.0738 4.28 25.5791 4.28C25.1218 4.28 24.7578 4.378 24.4871 4.574C24.2165 4.77 24.0811 5.02667 24.0811 5.344C24.0811 5.596 24.1605 5.806 24.3191 5.974C24.4871 6.13267 24.6925 6.26333 24.9351 6.366C25.1871 6.45933 25.5325 6.56667 25.9711 6.688C26.5218 6.83733 26.9698 6.98667 27.3151 7.136C27.6605 7.276 27.9545 7.49067 28.1971 7.78C28.4491 8.06933 28.5798 8.44733 28.5891 8.914C28.5891 9.334 28.4725 9.712 28.2391 10.048C28.0058 10.384 27.6745 10.65 27.2451 10.846C26.8251 11.0327 26.3398 11.126 25.7891 11.126ZM36.836 11.126C36.248 11.126 35.7207 11.028 35.254 10.832C34.7873 10.6267 34.4187 10.3467 34.148 9.992C33.8773 9.628 33.728 9.21267 33.7 8.746H35.016C35.0533 9.12867 35.2307 9.44133 35.548 9.684C35.8747 9.92667 36.2993 10.048 36.822 10.048C37.3073 10.048 37.69 9.94067 37.97 9.726C38.25 9.51133 38.39 9.24067 38.39 8.914C38.39 8.578 38.2407 8.33067 37.942 8.172C37.6433 8.004 37.1813 7.84067 36.556 7.682C35.9867 7.53267 35.52 7.38333 35.156 7.234C34.8013 7.07533 34.4933 6.84667 34.232 6.548C33.98 6.24 33.854 5.83867 33.854 5.344C33.854 4.952 33.9707 4.59267 34.204 4.266C34.4373 3.93933 34.7687 3.68267 35.198 3.496C35.6273 3.3 36.1173 3.202 36.668 3.202C37.5173 3.202 38.2033 3.41667 38.726 3.846C39.2487 4.27533 39.5287 4.86333 39.566 5.61H38.292C38.264 5.20867 38.1007 4.88667 37.802 4.644C37.5127 4.40133 37.1207 4.28 36.626 4.28C36.1687 4.28 35.8047 4.378 35.534 4.574C35.2633 4.77 35.128 5.02667 35.128 5.344C35.128 5.596 35.2073 5.806 35.366 5.974C35.534 6.13267 35.7393 6.26333 35.982 6.366C36.234 6.45933 36.5793 6.56667 37.018 6.688C37.5687 6.83733 38.0167 6.98667 38.362 7.136C38.7073 7.276 39.0013 7.49067 39.244 7.78C39.496 8.06933 39.6267 8.44733 39.636 8.914C39.636 9.334 39.5193 9.712 39.286 10.048C39.0527 10.384 38.7213 10.65 38.292 10.846C37.872 11.0327 37.3867 11.126 36.836 11.126ZM42.9884 4.378V8.9C42.9884 9.27333 43.0678 9.53933 43.2264 9.698C43.3851 9.84733 43.6604 9.922 44.0524 9.922H44.9904V11H43.8424C43.1331 11 42.6011 10.8367 42.2464 10.51C41.8918 10.1833 41.7144 9.64667 41.7144 8.9V4.378H40.7204V3.328H41.7144V1.396H42.9884V3.328H44.9904V4.378H42.9884ZM46.0581 7.136C46.0581 6.352 46.2167 5.666 46.5341 5.078C46.8514 4.48067 47.2854 4.01867 47.8361 3.692C48.3961 3.36533 49.0167 3.202 49.6981 3.202C50.3701 3.202 50.9534 3.34667 51.4481 3.636C51.9427 3.92533 52.3114 4.28933 52.5541 4.728V3.328H53.8421V11H52.5541V9.572C52.3021 10.02 51.9241 10.3933 51.4201 10.692C50.9254 10.9813 50.3467 11.126 49.6841 11.126C49.0027 11.126 48.3867 10.958 47.8361 10.622C47.2854 10.286 46.8514 9.81467 46.5341 9.208C46.2167 8.60133 46.0581 7.91067 46.0581 7.136ZM52.5541 7.15C52.5541 6.57133 52.4374 6.06733 52.2041 5.638C51.9707 5.20867 51.6534 4.882 51.2521 4.658C50.8601 4.42467 50.4261 4.308 49.9501 4.308C49.4741 4.308 49.0401 4.42 48.6481 4.644C48.2561 4.868 47.9434 5.19467 47.7101 5.624C47.4767 6.05333 47.3601 6.55733 47.3601 7.136C47.3601 7.724 47.4767 8.23733 47.7101 8.676C47.9434 9.10533 48.2561 9.43667 48.6481 9.67C49.0401 9.894 49.4741 10.006 49.9501 10.006C50.4261 10.006 50.8601 9.894 51.2521 9.67C51.6534 9.43667 51.9707 9.10533 52.2041 8.676C52.4374 8.23733 52.5541 7.72867 52.5541 7.15ZM57.269 4.574C57.493 4.13533 57.8103 3.79467 58.221 3.552C58.641 3.30933 59.1497 3.188 59.747 3.188V4.504H59.411C57.983 4.504 57.269 5.27867 57.269 6.828V11H55.995V3.328H57.269V4.574ZM62.7716 4.378V8.9C62.7716 9.27333 62.851 9.53933 63.0096 9.698C63.1683 9.84733 63.4436 9.922 63.8356 9.922H64.7736V11H63.6256C62.9163 11 62.3843 10.8367 62.0296 10.51C61.675 10.1833 61.4976 9.64667 61.4976 8.9V4.378H60.5036V3.328H61.4976V1.396H62.7716V3.328H64.7736V4.378H62.7716ZM71.3237 9.964H74.7397V11H70.0497V1.242H71.3237V9.964ZM82.7006 3.328L78.0806 14.612H76.7646L78.2766 10.916L75.1826 3.328H76.5966L79.0046 9.544L81.3846 3.328H82.7006ZM93.2073 3.188C93.8047 3.188 94.3367 3.314 94.8033 3.566C95.27 3.80867 95.6387 4.17733 95.9093 4.672C96.18 5.16667 96.3153 5.76867 96.3153 6.478V11H95.0553V6.66C95.0553 5.89467 94.864 5.31133 94.4813 4.91C94.108 4.49933 93.5993 4.294 92.9553 4.294C92.2927 4.294 91.7653 4.50867 91.3733 4.938C90.9813 5.358 90.7853 5.96933 90.7853 6.772V11H89.5253V6.66C89.5253 5.89467 89.334 5.31133 88.9513 4.91C88.578 4.49933 88.0693 4.294 87.4253 4.294C86.7627 4.294 86.2353 4.50867 85.8433 4.938C85.4513 5.358 85.2553 5.96933 85.2553 6.772V11H83.9813V3.328H85.2553V4.434C85.5073 4.03267 85.8433 3.72467 86.2633 3.51C86.6927 3.29533 87.164 3.188 87.6773 3.188C88.3213 3.188 88.8907 3.33267 89.3853 3.622C89.88 3.91133 90.2487 4.336 90.4913 4.896C90.706 4.35467 91.0607 3.93467 91.5553 3.636C92.05 3.33733 92.6007 3.188 93.2073 3.188ZM99.6791 4.742C99.9311 4.30333 100.304 3.93933 100.799 3.65C101.303 3.35133 101.886 3.202 102.549 3.202C103.23 3.202 103.846 3.36533 104.397 3.692C104.957 4.01867 105.396 4.48067 105.713 5.078C106.03 5.666 106.189 6.352 106.189 7.136C106.189 7.91067 106.03 8.60133 105.713 9.208C105.396 9.81467 104.957 10.286 104.397 10.622C103.846 10.958 103.23 11.126 102.549 11.126C101.896 11.126 101.317 10.9813 100.813 10.692C100.318 10.3933 99.9405 10.0247 99.6791 9.586V14.64H98.4051V3.328H99.6791V4.742ZM104.887 7.136C104.887 6.55733 104.77 6.05333 104.537 5.624C104.304 5.19467 103.986 4.868 103.585 4.644C103.193 4.42 102.759 4.308 102.283 4.308C101.816 4.308 101.382 4.42467 100.981 4.658C100.589 4.882 100.272 5.21333 100.029 5.652C99.7958 6.08133 99.6791 6.58067 99.6791 7.15C99.6791 7.72867 99.7958 8.23733 100.029 8.676C100.272 9.10533 100.589 9.43667 100.981 9.67C101.382 9.894 101.816 10.006 102.283 10.006C102.759 10.006 103.193 9.894 103.585 9.67C103.986 9.43667 104.304 9.10533 104.537 8.676C104.77 8.23733 104.887 7.724 104.887 7.136ZM111.674 3.188C112.253 3.188 112.775 3.314 113.242 3.566C113.709 3.80867 114.073 4.17733 114.334 4.672C114.605 5.16667 114.74 5.76867 114.74 6.478V11H113.48V6.66C113.48 5.89467 113.289 5.31133 112.906 4.91C112.523 4.49933 112.001 4.294 111.338 4.294C110.666 4.294 110.129 4.504 109.728 4.924C109.336 5.344 109.14 5.95533 109.14 6.758V11H107.866V0.64H109.14V4.42C109.392 4.028 109.737 3.72467 110.176 3.51C110.624 3.29533 111.123 3.188 111.674 3.188ZM120.167 11.126C119.448 11.126 118.795 10.9627 118.207 10.636C117.628 10.3093 117.171 9.84733 116.835 9.25C116.508 8.64333 116.345 7.94333 116.345 7.15C116.345 6.366 116.513 5.67533 116.849 5.078C117.194 4.47133 117.661 4.00933 118.249 3.692C118.837 3.36533 119.495 3.202 120.223 3.202C120.951 3.202 121.609 3.36533 122.197 3.692C122.785 4.00933 123.247 4.46667 123.583 5.064C123.928 5.66133 124.101 6.35667 124.101 7.15C124.101 7.94333 123.924 8.64333 123.569 9.25C123.224 9.84733 122.752 10.3093 122.155 10.636C121.558 10.9627 120.895 11.126 120.167 11.126ZM120.167 10.006C120.624 10.006 121.054 9.89867 121.455 9.684C121.856 9.46933 122.178 9.14733 122.421 8.718C122.673 8.28867 122.799 7.766 122.799 7.15C122.799 6.534 122.678 6.01133 122.435 5.582C122.192 5.15267 121.875 4.83533 121.483 4.63C121.091 4.41533 120.666 4.308 120.209 4.308C119.742 4.308 119.313 4.41533 118.921 4.63C118.538 4.83533 118.23 5.15267 117.997 5.582C117.764 6.01133 117.647 6.534 117.647 7.15C117.647 7.77533 117.759 8.30267 117.983 8.732C118.216 9.16133 118.524 9.48333 118.907 9.698C119.29 9.90333 119.71 10.006 120.167 10.006ZM138.04 1.242L135.212 11H133.784L131.516 3.146L129.164 11L127.75 11.014L125.02 1.242H126.378L128.506 9.516L130.858 1.242H132.286L134.526 9.488L136.668 1.242H138.04ZM146.434 6.87C146.434 7.11267 146.42 7.36933 146.392 7.64H140.26C140.307 8.396 140.564 8.98867 141.03 9.418C141.506 9.838 142.08 10.048 142.752 10.048C143.303 10.048 143.76 9.922 144.124 9.67C144.498 9.40867 144.759 9.06333 144.908 8.634H146.28C146.075 9.37133 145.664 9.97333 145.048 10.44C144.432 10.8973 143.667 11.126 142.752 11.126C142.024 11.126 141.371 10.9627 140.792 10.636C140.223 10.3093 139.775 9.84733 139.448 9.25C139.122 8.64333 138.958 7.94333 138.958 7.15C138.958 6.35667 139.117 5.66133 139.434 5.064C139.752 4.46667 140.195 4.00933 140.764 3.692C141.343 3.36533 142.006 3.202 142.752 3.202C143.48 3.202 144.124 3.36067 144.684 3.678C145.244 3.99533 145.674 4.434 145.972 4.994C146.28 5.54467 146.434 6.17 146.434 6.87ZM145.118 6.604C145.118 6.11867 145.011 5.70333 144.796 5.358C144.582 5.00333 144.288 4.73733 143.914 4.56C143.55 4.37333 143.144 4.28 142.696 4.28C142.052 4.28 141.502 4.48533 141.044 4.896C140.596 5.30667 140.34 5.876 140.274 6.604H145.118ZM147.64 7.136C147.64 6.352 147.799 5.666 148.116 5.078C148.433 4.48067 148.867 4.01867 149.418 3.692C149.978 3.36533 150.599 3.202 151.28 3.202C151.952 3.202 152.535 3.34667 153.03 3.636C153.525 3.92533 153.893 4.28933 154.136 4.728V3.328H155.424V11H154.136V9.572C153.884 10.02 153.506 10.3933 153.002 10.692C152.507 10.9813 151.929 11.126 151.266 11.126C150.585 11.126 149.969 10.958 149.418 10.622C148.867 10.286 148.433 9.81467 148.116 9.208C147.799 8.60133 147.64 7.91067 147.64 7.136ZM154.136 7.15C154.136 6.57133 154.019 6.06733 153.786 5.638C153.553 5.20867 153.235 4.882 152.834 4.658C152.442 4.42467 152.008 4.308 151.532 4.308C151.056 4.308 150.622 4.42 150.23 4.644C149.838 4.868 149.525 5.19467 149.292 5.624C149.059 6.05333 148.942 6.55733 148.942 7.136C148.942 7.724 149.059 8.23733 149.292 8.676C149.525 9.10533 149.838 9.43667 150.23 9.67C150.622 9.894 151.056 10.006 151.532 10.006C152.008 10.006 152.442 9.894 152.834 9.67C153.235 9.43667 153.553 9.10533 153.786 8.676C154.019 8.23733 154.136 7.72867 154.136 7.15ZM158.851 4.574C159.075 4.13533 159.392 3.79467 159.803 3.552C160.223 3.30933 160.732 3.188 161.329 3.188V4.504H160.993C159.565 4.504 158.851 5.27867 158.851 6.828V11H157.577V3.328H158.851V4.574ZM164.452 1.242L164.298 8.242H163.234L163.08 1.242H164.452ZM163.822 11.084C163.579 11.084 163.374 11 163.206 10.832C163.038 10.664 162.954 10.4587 162.954 10.216C162.954 9.97333 163.038 9.768 163.206 9.6C163.374 9.432 163.579 9.348 163.822 9.348C164.055 9.348 164.251 9.432 164.41 9.6C164.578 9.768 164.662 9.97333 164.662 10.216C164.662 10.4587 164.578 10.664 164.41 10.832C164.251 11 164.055 11.084 163.822 11.084Z" fill="#757575"/>
</svg>
