<svg width="176" height="14" viewBox="0 0 176 14" fill="none" xmlns="http://www.w3.org/2000/svg">
<path d="M0.180188 7.416C0.180188 6.328 0.425521 5.352 0.916188 4.488C1.40685 3.61333 2.07352 2.93067 2.91619 2.44C3.76952 1.94933 4.71352 1.704 5.74819 1.704C6.96419 1.704 8.02552 1.99733 8.93219 2.584C9.83885 3.17067 10.5002 4.00267 10.9162 5.08H9.17219C8.86285 4.408 8.41485 3.89067 7.82819 3.528C7.25219 3.16533 6.55885 2.984 5.74819 2.984C4.96952 2.984 4.27085 3.16533 3.65219 3.528C3.03352 3.89067 2.54819 4.408 2.19619 5.08C1.84419 5.74133 1.66819 6.52 1.66819 7.416C1.66819 8.30133 1.84419 9.08 2.19619 9.752C2.54819 10.4133 3.03352 10.9253 3.65219 11.288C4.27085 11.6507 4.96952 11.832 5.74819 11.832C6.55885 11.832 7.25219 11.656 7.82819 11.304C8.41485 10.9413 8.86285 10.424 9.17219 9.752H10.9162C10.5002 10.8187 9.83885 11.6453 8.93219 12.232C8.02552 12.808 6.96419 13.096 5.74819 13.096C4.71352 13.096 3.76952 12.856 2.91619 12.376C2.07352 11.8853 1.40685 11.208 0.916188 10.344C0.425521 9.48 0.180188 8.504 0.180188 7.416ZM16.9076 13.144C16.0862 13.144 15.3396 12.9573 14.6676 12.584C14.0062 12.2107 13.4836 11.6827 13.0996 11C12.7262 10.3067 12.5396 9.50667 12.5396 8.6C12.5396 7.704 12.7316 6.91467 13.1156 6.232C13.5102 5.53867 14.0436 5.01067 14.7156 4.648C15.3876 4.27467 16.1396 4.088 16.9716 4.088C17.8036 4.088 18.5556 4.27467 19.2276 4.648C19.8996 5.01067 20.4276 5.53333 20.8116 6.216C21.2062 6.89867 21.4036 7.69333 21.4036 8.6C21.4036 9.50667 21.2009 10.3067 20.7956 11C20.4009 11.6827 19.8622 12.2107 19.1796 12.584C18.4969 12.9573 17.7396 13.144 16.9076 13.144ZM16.9076 11.864C17.4302 11.864 17.9209 11.7413 18.3796 11.496C18.8382 11.2507 19.2062 10.8827 19.4836 10.392C19.7716 9.90133 19.9156 9.304 19.9156 8.6C19.9156 7.896 19.7769 7.29867 19.4996 6.808C19.2222 6.31733 18.8596 5.95467 18.4116 5.72C17.9636 5.47467 17.4782 5.352 16.9556 5.352C16.4222 5.352 15.9316 5.47467 15.4836 5.72C15.0462 5.95467 14.6942 6.31733 14.4276 6.808C14.1609 7.29867 14.0276 7.896 14.0276 8.6C14.0276 9.31467 14.1556 9.91733 14.4116 10.408C14.6782 10.8987 15.0302 11.2667 15.4676 11.512C15.9049 11.7467 16.3849 11.864 16.9076 11.864ZM27.5899 4.072C28.6566 4.072 29.5206 4.39733 30.1819 5.048C30.8433 5.688 31.1739 6.616 31.1739 7.832V13H29.7339V8.04C29.7339 7.16533 29.5153 6.49867 29.0779 6.04C28.6406 5.57067 28.0433 5.336 27.2859 5.336C26.5179 5.336 25.9046 5.576 25.4459 6.056C24.9979 6.536 24.7739 7.23467 24.7739 8.152V13H23.3179V4.232H24.7739V5.48C25.0619 5.032 25.4513 4.68533 25.9419 4.44C26.4433 4.19467 26.9926 4.072 27.5899 4.072ZM37.1203 5.432H35.2803V13H33.8243V5.432H32.6883V4.232H33.8243V3.608C33.8243 2.62667 34.075 1.912 34.5763 1.464C35.0883 1.00533 35.9043 0.775999 37.0243 0.775999V1.992C36.3843 1.992 35.931 2.12 35.6643 2.376C35.4083 2.62133 35.2803 3.032 35.2803 3.608V4.232H37.1203V5.432ZM39.5699 2.808C39.2926 2.808 39.0579 2.712 38.8659 2.52C38.6739 2.328 38.5779 2.09333 38.5779 1.816C38.5779 1.53867 38.6739 1.304 38.8659 1.112C39.0579 0.919999 39.2926 0.823999 39.5699 0.823999C39.8366 0.823999 40.0606 0.919999 40.2419 1.112C40.4339 1.304 40.5299 1.53867 40.5299 1.816C40.5299 2.09333 40.4339 2.328 40.2419 2.52C40.0606 2.712 39.8366 2.808 39.5699 2.808ZM40.2739 4.232V13H38.8179V4.232H40.2739ZM44.2114 5.656C44.4674 5.15467 44.8301 4.76533 45.2994 4.488C45.7794 4.21067 46.3608 4.072 47.0434 4.072V5.576H46.6594C45.0274 5.576 44.2114 6.46133 44.2114 8.232V13H42.7554V4.232H44.2114V5.656ZM59.2682 4.072C59.9509 4.072 60.5589 4.216 61.0922 4.504C61.6255 4.78133 62.0469 5.20267 62.3562 5.768C62.6655 6.33333 62.8202 7.02133 62.8202 7.832V13H61.3802V8.04C61.3802 7.16533 61.1615 6.49867 60.7242 6.04C60.2975 5.57067 59.7162 5.336 58.9802 5.336C58.2229 5.336 57.6202 5.58133 57.1722 6.072C56.7242 6.552 56.5002 7.25067 56.5002 8.168V13H55.0602V8.04C55.0602 7.16533 54.8415 6.49867 54.4042 6.04C53.9775 5.57067 53.3962 5.336 52.6602 5.336C51.9029 5.336 51.3002 5.58133 50.8522 6.072C50.4042 6.552 50.1802 7.25067 50.1802 8.168V13H48.7242V4.232H50.1802V5.496C50.4682 5.03733 50.8522 4.68533 51.3322 4.44C51.8229 4.19467 52.3615 4.072 52.9482 4.072C53.6842 4.072 54.3349 4.23733 54.9002 4.568C55.4655 4.89867 55.8869 5.384 56.1642 6.024C56.4095 5.40533 56.8149 4.92533 57.3802 4.584C57.9455 4.24267 58.5749 4.072 59.2682 4.072ZM73.2982 13.144C72.4769 13.144 71.7302 12.9573 71.0582 12.584C70.3969 12.2107 69.8742 11.6827 69.4902 11C69.1169 10.3067 68.9302 9.50667 68.9302 8.6C68.9302 7.704 69.1222 6.91467 69.5062 6.232C69.9009 5.53867 70.4342 5.01067 71.1062 4.648C71.7782 4.27467 72.5302 4.088 73.3622 4.088C74.1942 4.088 74.9462 4.27467 75.6182 4.648C76.2902 5.01067 76.8182 5.53333 77.2022 6.216C77.5969 6.89867 77.7942 7.69333 77.7942 8.6C77.7942 9.50667 77.5915 10.3067 77.1862 11C76.7915 11.6827 76.2529 12.2107 75.5702 12.584C74.8875 12.9573 74.1302 13.144 73.2982 13.144ZM73.2982 11.864C73.8209 11.864 74.3115 11.7413 74.7702 11.496C75.2289 11.2507 75.5969 10.8827 75.8742 10.392C76.1622 9.90133 76.3062 9.304 76.3062 8.6C76.3062 7.896 76.1675 7.29867 75.8902 6.808C75.6129 6.31733 75.2502 5.95467 74.8022 5.72C74.3542 5.47467 73.8689 5.352 73.3462 5.352C72.8129 5.352 72.3222 5.47467 71.8742 5.72C71.4369 5.95467 71.0849 6.31733 70.8182 6.808C70.5515 7.29867 70.4182 7.896 70.4182 8.6C70.4182 9.31467 70.5462 9.91733 70.8022 10.408C71.0689 10.8987 71.4209 11.2667 71.8582 11.512C72.2955 11.7467 72.7755 11.864 73.2982 11.864ZM83.9806 4.072C85.0472 4.072 85.9112 4.39733 86.5726 5.048C87.2339 5.688 87.5646 6.616 87.5646 7.832V13H86.1246V8.04C86.1246 7.16533 85.9059 6.49867 85.4686 6.04C85.0312 5.57067 84.4339 5.336 83.6766 5.336C82.9086 5.336 82.2952 5.576 81.8366 6.056C81.3886 6.536 81.1646 7.23467 81.1646 8.152V13H79.7086V4.232H81.1646V5.48C81.4526 5.032 81.8419 4.68533 82.3326 4.44C82.8339 4.19467 83.3832 4.072 83.9806 4.072ZM95.9846 5.432V10.6C95.9846 11.0267 96.0752 11.3307 96.2566 11.512C96.4379 11.6827 96.7526 11.768 97.2006 11.768H98.2726V13H96.9606C96.1499 13 95.5419 12.8133 95.1366 12.44C94.7312 12.0667 94.5286 11.4533 94.5286 10.6V5.432H93.3926V4.232H94.5286V2.024H95.9846V4.232H98.2726V5.432H95.9846ZM104.389 4.072C105.05 4.072 105.647 4.216 106.181 4.504C106.714 4.78133 107.13 5.20267 107.429 5.768C107.738 6.33333 107.893 7.02133 107.893 7.832V13H106.453V8.04C106.453 7.16533 106.234 6.49867 105.797 6.04C105.359 5.57067 104.762 5.336 104.005 5.336C103.237 5.336 102.623 5.576 102.165 6.056C101.717 6.536 101.493 7.23467 101.493 8.152V13H100.037V1.16H101.493V5.48C101.781 5.032 102.175 4.68533 102.677 4.44C103.189 4.19467 103.759 4.072 104.389 4.072ZM118.271 8.28C118.271 8.55733 118.255 8.85067 118.223 9.16H111.215C111.268 10.024 111.562 10.7013 112.095 11.192C112.639 11.672 113.295 11.912 114.063 11.912C114.692 11.912 115.215 11.768 115.631 11.48C116.058 11.1813 116.356 10.7867 116.527 10.296H118.095C117.86 11.1387 117.391 11.8267 116.687 12.36C115.983 12.8827 115.108 13.144 114.063 13.144C113.231 13.144 112.484 12.9573 111.823 12.584C111.172 12.2107 110.66 11.6827 110.287 11C109.914 10.3067 109.727 9.50667 109.727 8.6C109.727 7.69333 109.908 6.89867 110.271 6.216C110.634 5.53333 111.14 5.01067 111.791 4.648C112.452 4.27467 113.21 4.088 114.063 4.088C114.895 4.088 115.631 4.26933 116.271 4.632C116.911 4.99467 117.402 5.496 117.743 6.136C118.095 6.76533 118.271 7.48 118.271 8.28ZM116.767 7.976C116.767 7.42133 116.644 6.94667 116.399 6.552C116.154 6.14667 115.818 5.84267 115.391 5.64C114.975 5.42667 114.511 5.32 113.999 5.32C113.263 5.32 112.634 5.55467 112.111 6.024C111.599 6.49333 111.306 7.144 111.231 7.976H116.767ZM123.915 8.584C123.915 7.688 124.096 6.904 124.459 6.232C124.821 5.54933 125.317 5.02133 125.947 4.648C126.587 4.27467 127.301 4.088 128.091 4.088C128.773 4.088 129.408 4.248 129.995 4.568C130.581 4.87733 131.029 5.288 131.339 5.8V1.16H132.811V13H131.339V11.352C131.051 11.8747 130.624 12.3067 130.059 12.648C129.493 12.9787 128.832 13.144 128.075 13.144C127.296 13.144 126.587 12.952 125.947 12.568C125.317 12.184 124.821 11.6453 124.459 10.952C124.096 10.2587 123.915 9.46933 123.915 8.584ZM131.339 8.6C131.339 7.93867 131.205 7.36267 130.939 6.872C130.672 6.38133 130.309 6.008 129.851 5.752C129.403 5.48533 128.907 5.352 128.363 5.352C127.819 5.352 127.323 5.48 126.875 5.736C126.427 5.992 126.069 6.36533 125.803 6.856C125.536 7.34667 125.403 7.92267 125.403 8.584C125.403 9.256 125.536 9.84267 125.803 10.344C126.069 10.8347 126.427 11.2133 126.875 11.48C127.323 11.736 127.819 11.864 128.363 11.864C128.907 11.864 129.403 11.736 129.851 11.48C130.309 11.2133 130.672 10.8347 130.939 10.344C131.205 9.84267 131.339 9.26133 131.339 8.6ZM143.271 8.28C143.271 8.55733 143.255 8.85067 143.223 9.16H136.215C136.268 10.024 136.562 10.7013 137.095 11.192C137.639 11.672 138.295 11.912 139.063 11.912C139.692 11.912 140.215 11.768 140.631 11.48C141.058 11.1813 141.356 10.7867 141.527 10.296H143.095C142.86 11.1387 142.391 11.8267 141.687 12.36C140.983 12.8827 140.108 13.144 139.063 13.144C138.231 13.144 137.484 12.9573 136.823 12.584C136.172 12.2107 135.66 11.6827 135.287 11C134.914 10.3067 134.727 9.50667 134.727 8.6C134.727 7.69333 134.908 6.89867 135.271 6.216C135.634 5.53333 136.14 5.01067 136.791 4.648C137.452 4.27467 138.21 4.088 139.063 4.088C139.895 4.088 140.631 4.26933 141.271 4.632C141.911 4.99467 142.402 5.496 142.743 6.136C143.095 6.76533 143.271 7.48 143.271 8.28ZM141.767 7.976C141.767 7.42133 141.644 6.94667 141.399 6.552C141.154 6.14667 140.818 5.84267 140.391 5.64C139.975 5.42667 139.511 5.32 138.999 5.32C138.263 5.32 137.634 5.55467 137.111 6.024C136.599 6.49333 136.306 7.144 136.231 7.976H141.767ZM148.457 11.656L151.177 4.232H152.729L149.289 13H147.593L144.153 4.232H145.721L148.457 11.656ZM154.914 2.808C154.636 2.808 154.402 2.712 154.21 2.52C154.018 2.328 153.922 2.09333 153.922 1.816C153.922 1.53867 154.018 1.304 154.21 1.112C154.402 0.919999 154.636 0.823999 154.914 0.823999C155.18 0.823999 155.404 0.919999 155.586 1.112C155.778 1.304 155.874 1.53867 155.874 1.816C155.874 2.09333 155.778 2.328 155.586 2.52C155.404 2.712 155.18 2.808 154.914 2.808ZM155.618 4.232V13H154.162V4.232H155.618ZM157.555 8.6C157.555 7.69333 157.737 6.904 158.099 6.232C158.462 5.54933 158.963 5.02133 159.603 4.648C160.254 4.27467 160.995 4.088 161.827 4.088C162.905 4.088 163.79 4.34933 164.483 4.872C165.187 5.39467 165.651 6.12 165.875 7.048H164.307C164.158 6.51467 163.865 6.09333 163.427 5.784C163.001 5.47467 162.467 5.32 161.827 5.32C160.995 5.32 160.323 5.608 159.811 6.184C159.299 6.74933 159.043 7.55467 159.043 8.6C159.043 9.656 159.299 10.472 159.811 11.048C160.323 11.624 160.995 11.912 161.827 11.912C162.467 11.912 163.001 11.7627 163.427 11.464C163.854 11.1653 164.147 10.7387 164.307 10.184H165.875C165.641 11.08 165.171 11.8 164.467 12.344C163.763 12.8773 162.883 13.144 161.827 13.144C160.995 13.144 160.254 12.9573 159.603 12.584C158.963 12.2107 158.462 11.6827 158.099 11C157.737 10.3173 157.555 9.51733 157.555 8.6ZM175.818 8.28C175.818 8.55733 175.802 8.85067 175.77 9.16H168.762C168.815 10.024 169.109 10.7013 169.642 11.192C170.186 11.672 170.842 11.912 171.61 11.912C172.239 11.912 172.762 11.768 173.178 11.48C173.605 11.1813 173.903 10.7867 174.074 10.296H175.642C175.407 11.1387 174.938 11.8267 174.234 12.36C173.53 12.8827 172.655 13.144 171.61 13.144C170.778 13.144 170.031 12.9573 169.37 12.584C168.719 12.2107 168.207 11.6827 167.834 11C167.461 10.3067 167.274 9.50667 167.274 8.6C167.274 7.69333 167.455 6.89867 167.818 6.216C168.181 5.53333 168.687 5.01067 169.338 4.648C169.999 4.27467 170.757 4.088 171.61 4.088C172.442 4.088 173.178 4.26933 173.818 4.632C174.458 4.99467 174.949 5.496 175.29 6.136C175.642 6.76533 175.818 7.48 175.818 8.28ZM174.314 7.976C174.314 7.42133 174.191 6.94667 173.946 6.552C173.701 6.14667 173.365 5.84267 172.938 5.64C172.522 5.42667 172.058 5.32 171.546 5.32C170.81 5.32 170.181 5.55467 169.658 6.024C169.146 6.49333 168.853 7.144 168.778 7.976H174.314Z" fill="#006E33"/>
</svg>
