<svg width="206" height="35" viewBox="0 0 206 35" fill="none" xmlns="http://www.w3.org/2000/svg">
<path d="M10.0219 1.312V11H8.7479V3.776L5.5279 11H4.6319L1.3979 3.762V11H0.123899V1.312H1.4959L5.0799 9.32L8.6639 1.312H10.0219ZM11.7065 7.136C11.7065 6.352 11.8652 5.666 12.1825 5.078C12.4998 4.48067 12.9338 4.01867 13.4845 3.692C14.0445 3.36533 14.6652 3.202 15.3465 3.202C16.0185 3.202 16.6018 3.34667 17.0965 3.636C17.5912 3.92533 17.9598 4.28933 18.2025 4.728V3.328H19.4905V11H18.2025V9.572C17.9505 10.02 17.5725 10.3933 17.0685 10.692C16.5738 10.9813 15.9952 11.126 15.3325 11.126C14.6512 11.126 14.0352 10.958 13.4845 10.622C12.9338 10.286 12.4998 9.81467 12.1825 9.208C11.8652 8.60133 11.7065 7.91067 11.7065 7.136ZM18.2025 7.15C18.2025 6.57133 18.0858 6.06733 17.8525 5.638C17.6192 5.20867 17.3018 4.882 16.9005 4.658C16.5085 4.42467 16.0745 4.308 15.5985 4.308C15.1225 4.308 14.6885 4.42 14.2965 4.644C13.9045 4.868 13.5918 5.19467 13.3585 5.624C13.1252 6.05333 13.0085 6.55733 13.0085 7.136C13.0085 7.724 13.1252 8.23733 13.3585 8.676C13.5918 9.10533 13.9045 9.43667 14.2965 9.67C14.6885 9.894 15.1225 10.006 15.5985 10.006C16.0745 10.006 16.5085 9.894 16.9005 9.67C17.3018 9.43667 17.6192 9.10533 17.8525 8.676C18.0858 8.23733 18.2025 7.72867 18.2025 7.15ZM25.9274 11L22.9174 7.612V11H21.6434V0.64H22.9174V6.73L25.8714 3.328H27.6494L24.0374 7.15L27.6634 11H25.9274ZM35.8485 6.87C35.8485 7.11267 35.8345 7.36933 35.8065 7.64H29.6745C29.7212 8.396 29.9778 8.98867 30.4445 9.418C30.9205 9.838 31.4945 10.048 32.1665 10.048C32.7172 10.048 33.1745 9.922 33.5385 9.67C33.9118 9.40867 34.1732 9.06333 34.3225 8.634H35.6945C35.4892 9.37133 35.0785 9.97333 34.4625 10.44C33.8465 10.8973 33.0812 11.126 32.1665 11.126C31.4385 11.126 30.7852 10.9627 30.2065 10.636C29.6372 10.3093 29.1892 9.84733 28.8625 9.25C28.5358 8.64333 28.3725 7.94333 28.3725 7.15C28.3725 6.35667 28.5312 5.66133 28.8485 5.064C29.1658 4.46667 29.6092 4.00933 30.1785 3.692C30.7572 3.36533 31.4198 3.202 32.1665 3.202C32.8945 3.202 33.5385 3.36067 34.0985 3.678C34.6585 3.99533 35.0878 4.434 35.3865 4.994C35.6945 5.54467 35.8485 6.17 35.8485 6.87ZM34.5325 6.604C34.5325 6.11867 34.4252 5.70333 34.2105 5.358C33.9958 5.00333 33.7018 4.73733 33.3285 4.56C32.9645 4.37333 32.5585 4.28 32.1105 4.28C31.4665 4.28 30.9158 4.48533 30.4585 4.896C30.0105 5.30667 29.7538 5.876 29.6885 6.604H34.5325ZM43.9786 11.126C43.3906 11.126 42.8632 11.028 42.3966 10.832C41.9299 10.6267 41.5612 10.3467 41.2906 9.992C41.0199 9.628 40.8706 9.21267 40.8426 8.746H42.1586C42.1959 9.12867 42.3732 9.44133 42.6906 9.684C43.0172 9.92667 43.4419 10.048 43.9646 10.048C44.4499 10.048 44.8326 9.94067 45.1126 9.726C45.3926 9.51133 45.5326 9.24067 45.5326 8.914C45.5326 8.578 45.3832 8.33067 45.0846 8.172C44.7859 8.004 44.3239 7.84067 43.6986 7.682C43.1292 7.53267 42.6626 7.38333 42.2986 7.234C41.9439 7.07533 41.6359 6.84667 41.3746 6.548C41.1226 6.24 40.9966 5.83867 40.9966 5.344C40.9966 4.952 41.1132 4.59267 41.3466 4.266C41.5799 3.93933 41.9112 3.68267 42.3406 3.496C42.7699 3.3 43.2599 3.202 43.8106 3.202C44.6599 3.202 45.3459 3.41667 45.8686 3.846C46.3912 4.27533 46.6712 4.86333 46.7086 5.61H45.4346C45.4066 5.20867 45.2432 4.88667 44.9446 4.644C44.6552 4.40133 44.2632 4.28 43.7686 4.28C43.3112 4.28 42.9472 4.378 42.6766 4.574C42.4059 4.77 42.2706 5.02667 42.2706 5.344C42.2706 5.596 42.3499 5.806 42.5086 5.974C42.6766 6.13267 42.8819 6.26333 43.1246 6.366C43.3766 6.45933 43.7219 6.56667 44.1606 6.688C44.7112 6.83733 45.1592 6.98667 45.5046 7.136C45.8499 7.276 46.1439 7.49067 46.3866 7.78C46.6386 8.06933 46.7692 8.44733 46.7786 8.914C46.7786 9.334 46.6619 9.712 46.4286 10.048C46.1952 10.384 45.8639 10.65 45.4346 10.846C45.0146 11.0327 44.5292 11.126 43.9786 11.126ZM55.381 3.328V11H54.107V9.866C53.8644 10.258 53.5237 10.566 53.085 10.79C52.6557 11.0047 52.1797 11.112 51.657 11.112C51.0597 11.112 50.523 10.9907 50.047 10.748C49.571 10.496 49.193 10.1227 48.913 9.628C48.6424 9.13333 48.507 8.53133 48.507 7.822V3.328H49.767V7.654C49.767 8.41 49.9584 8.99333 50.341 9.404C50.7237 9.80533 51.2464 10.006 51.909 10.006C52.5904 10.006 53.127 9.796 53.519 9.376C53.911 8.956 54.107 8.34467 54.107 7.542V3.328H55.381ZM58.8061 4.574C59.0301 4.13533 59.3474 3.79467 59.7581 3.552C60.1781 3.30933 60.6868 3.188 61.2841 3.188V4.504H60.9481C59.5201 4.504 58.8061 5.27867 58.8061 6.828V11H57.5321V3.328H58.8061V4.574ZM69.7548 6.87C69.7548 7.11267 69.7408 7.36933 69.7128 7.64H63.5808C63.6274 8.396 63.8841 8.98867 64.3508 9.418C64.8268 9.838 65.4008 10.048 66.0728 10.048C66.6234 10.048 67.0808 9.922 67.4448 9.67C67.8181 9.40867 68.0794 9.06333 68.2288 8.634H69.6008C69.3954 9.37133 68.9848 9.97333 68.3688 10.44C67.7528 10.8973 66.9874 11.126 66.0728 11.126C65.3448 11.126 64.6914 10.9627 64.1128 10.636C63.5434 10.3093 63.0954 9.84733 62.7688 9.25C62.4421 8.64333 62.2788 7.94333 62.2788 7.15C62.2788 6.35667 62.4374 5.66133 62.7548 5.064C63.0721 4.46667 63.5154 4.00933 64.0848 3.692C64.6634 3.36533 65.3261 3.202 66.0728 3.202C66.8008 3.202 67.4448 3.36067 68.0048 3.678C68.5648 3.99533 68.9941 4.434 69.2928 4.994C69.6008 5.54467 69.7548 6.17 69.7548 6.87ZM68.4388 6.604C68.4388 6.11867 68.3314 5.70333 68.1168 5.358C67.9021 5.00333 67.6081 4.73733 67.2348 4.56C66.8708 4.37333 66.4648 4.28 66.0168 4.28C65.3728 4.28 64.8221 4.48533 64.3648 4.896C63.9168 5.30667 63.6601 5.876 63.5948 6.604H68.4388ZM74.6928 7.136C74.6928 6.352 74.8515 5.666 75.1688 5.078C75.4862 4.48067 75.9202 4.01867 76.4708 3.692C77.0308 3.36533 77.6562 3.202 78.3468 3.202C78.9442 3.202 79.4995 3.342 80.0128 3.622C80.5262 3.89267 80.9182 4.252 81.1888 4.7V0.64H82.4768V11H81.1888V9.558C80.9368 10.0153 80.5635 10.3933 80.0688 10.692C79.5742 10.9813 78.9955 11.126 78.3328 11.126C77.6515 11.126 77.0308 10.958 76.4708 10.622C75.9202 10.286 75.4862 9.81467 75.1688 9.208C74.8515 8.60133 74.6928 7.91067 74.6928 7.136ZM81.1888 7.15C81.1888 6.57133 81.0722 6.06733 80.8388 5.638C80.6055 5.20867 80.2882 4.882 79.8868 4.658C79.4948 4.42467 79.0608 4.308 78.5848 4.308C78.1088 4.308 77.6748 4.42 77.2828 4.644C76.8908 4.868 76.5782 5.19467 76.3448 5.624C76.1115 6.05333 75.9948 6.55733 75.9948 7.136C75.9948 7.724 76.1115 8.23733 76.3448 8.676C76.5782 9.10533 76.8908 9.43667 77.2828 9.67C77.6748 9.894 78.1088 10.006 78.5848 10.006C79.0608 10.006 79.4948 9.894 79.8868 9.67C80.2882 9.43667 80.6055 9.10533 80.8388 8.676C81.0722 8.23733 81.1888 7.72867 81.1888 7.15ZM91.6298 6.87C91.6298 7.11267 91.6158 7.36933 91.5878 7.64H85.4558C85.5024 8.396 85.7591 8.98867 86.2258 9.418C86.7018 9.838 87.2758 10.048 87.9478 10.048C88.4984 10.048 88.9558 9.922 89.3198 9.67C89.6931 9.40867 89.9544 9.06333 90.1038 8.634H91.4758C91.2704 9.37133 90.8598 9.97333 90.2438 10.44C89.6278 10.8973 88.8624 11.126 87.9478 11.126C87.2198 11.126 86.5664 10.9627 85.9878 10.636C85.4184 10.3093 84.9704 9.84733 84.6438 9.25C84.3171 8.64333 84.1538 7.94333 84.1538 7.15C84.1538 6.35667 84.3124 5.66133 84.6298 5.064C84.9471 4.46667 85.3904 4.00933 85.9598 3.692C86.5384 3.36533 87.2011 3.202 87.9478 3.202C88.6758 3.202 89.3198 3.36067 89.8798 3.678C90.4398 3.99533 90.8691 4.434 91.1678 4.994C91.4758 5.54467 91.6298 6.17 91.6298 6.87ZM90.3138 6.604C90.3138 6.11867 90.2064 5.70333 89.9918 5.358C89.7771 5.00333 89.4831 4.73733 89.1098 4.56C88.7458 4.37333 88.3398 4.28 87.8918 4.28C87.2478 4.28 86.6971 4.48533 86.2398 4.896C85.7918 5.30667 85.5351 5.876 85.4698 6.604H90.3138ZM96.1674 9.824L98.5474 3.328H99.9054L96.8954 11H95.4114L92.4014 3.328H93.7734L96.1674 9.824ZM101.817 2.082C101.574 2.082 101.369 1.998 101.201 1.83C101.033 1.662 100.949 1.45667 100.949 1.214C100.949 0.971333 101.033 0.766 101.201 0.598C101.369 0.43 101.574 0.345999 101.817 0.345999C102.05 0.345999 102.246 0.43 102.405 0.598C102.573 0.766 102.657 0.971333 102.657 1.214C102.657 1.45667 102.573 1.662 102.405 1.83C102.246 1.998 102.05 2.082 101.817 2.082ZM102.433 3.328V11H101.159V3.328H102.433ZM104.128 7.15C104.128 6.35667 104.287 5.666 104.604 5.078C104.922 4.48067 105.36 4.01867 105.92 3.692C106.49 3.36533 107.138 3.202 107.866 3.202C108.809 3.202 109.584 3.43067 110.19 3.888C110.806 4.34533 111.212 4.98 111.408 5.792H110.036C109.906 5.32533 109.649 4.95667 109.266 4.686C108.893 4.41533 108.426 4.28 107.866 4.28C107.138 4.28 106.55 4.532 106.102 5.036C105.654 5.53067 105.43 6.23533 105.43 7.15C105.43 8.074 105.654 8.788 106.102 9.292C106.55 9.796 107.138 10.048 107.866 10.048C108.426 10.048 108.893 9.91733 109.266 9.656C109.64 9.39467 109.896 9.02133 110.036 8.536H111.408C111.203 9.32 110.792 9.95 110.176 10.426C109.56 10.8927 108.79 11.126 107.866 11.126C107.138 11.126 106.49 10.9627 105.92 10.636C105.36 10.3093 104.922 9.84733 104.604 9.25C104.287 8.65267 104.128 7.95267 104.128 7.15ZM120.108 6.87C120.108 7.11267 120.094 7.36933 120.066 7.64H113.934C113.981 8.396 114.238 8.98867 114.704 9.418C115.18 9.838 115.754 10.048 116.426 10.048C116.977 10.048 117.434 9.922 117.798 9.67C118.172 9.40867 118.433 9.06333 118.582 8.634H119.954C119.749 9.37133 119.338 9.97333 118.722 10.44C118.106 10.8973 117.341 11.126 116.426 11.126C115.698 11.126 115.045 10.9627 114.466 10.636C113.897 10.3093 113.449 9.84733 113.122 9.25C112.796 8.64333 112.632 7.94333 112.632 7.15C112.632 6.35667 112.791 5.66133 113.108 5.064C113.426 4.46667 113.869 4.00933 114.438 3.692C115.017 3.36533 115.68 3.202 116.426 3.202C117.154 3.202 117.798 3.36067 118.358 3.678C118.918 3.99533 119.348 4.434 119.646 4.994C119.954 5.54467 120.108 6.17 120.108 6.87ZM118.792 6.604C118.792 6.11867 118.685 5.70333 118.47 5.358C118.256 5.00333 117.962 4.73733 117.588 4.56C117.224 4.37333 116.818 4.28 116.37 4.28C115.726 4.28 115.176 4.48533 114.718 4.896C114.27 5.30667 114.014 5.876 113.948 6.604H118.792ZM126.18 2.082C125.938 2.082 125.732 1.998 125.564 1.83C125.396 1.662 125.312 1.45667 125.312 1.214C125.312 0.971333 125.396 0.766 125.564 0.598C125.732 0.43 125.938 0.345999 126.18 0.345999C126.414 0.345999 126.61 0.43 126.768 0.598C126.936 0.766 127.02 0.971333 127.02 1.214C127.02 1.45667 126.936 1.662 126.768 1.83C126.61 1.998 126.414 2.082 126.18 2.082ZM126.796 3.328V11H125.522V3.328H126.796ZM131.684 11.126C131.096 11.126 130.568 11.028 130.102 10.832C129.635 10.6267 129.266 10.3467 128.996 9.992C128.725 9.628 128.576 9.21267 128.548 8.746H129.864C129.901 9.12867 130.078 9.44133 130.396 9.684C130.722 9.92667 131.147 10.048 131.67 10.048C132.155 10.048 132.538 9.94067 132.818 9.726C133.098 9.51133 133.238 9.24067 133.238 8.914C133.238 8.578 133.088 8.33067 132.79 8.172C132.491 8.004 132.029 7.84067 131.404 7.682C130.834 7.53267 130.368 7.38333 130.004 7.234C129.649 7.07533 129.341 6.84667 129.08 6.548C128.828 6.24 128.702 5.83867 128.702 5.344C128.702 4.952 128.818 4.59267 129.052 4.266C129.285 3.93933 129.616 3.68267 130.046 3.496C130.475 3.3 130.965 3.202 131.516 3.202C132.365 3.202 133.051 3.41667 133.574 3.846C134.096 4.27533 134.376 4.86333 134.414 5.61H133.14C133.112 5.20867 132.948 4.88667 132.65 4.644C132.36 4.40133 131.968 4.28 131.474 4.28C131.016 4.28 130.652 4.378 130.382 4.574C130.111 4.77 129.976 5.02667 129.976 5.344C129.976 5.596 130.055 5.806 130.214 5.974C130.382 6.13267 130.587 6.26333 130.83 6.366C131.082 6.45933 131.427 6.56667 131.866 6.688C132.416 6.83733 132.864 6.98667 133.21 7.136C133.555 7.276 133.849 7.49067 134.092 7.78C134.344 8.06933 134.474 8.44733 134.484 8.914C134.484 9.334 134.367 9.712 134.134 10.048C133.9 10.384 133.569 10.65 133.14 10.846C132.72 11.0327 132.234 11.126 131.684 11.126ZM141.569 4.378V8.9C141.569 9.27333 141.648 9.53933 141.807 9.698C141.965 9.84733 142.241 9.922 142.633 9.922H143.571V11H142.423C141.713 11 141.181 10.8367 140.827 10.51C140.472 10.1833 140.295 9.64667 140.295 8.9V4.378H139.301V3.328H140.295V1.396H141.569V3.328H143.571V4.378H141.569ZM151.918 3.328V11H150.644V9.866C150.401 10.258 150.061 10.566 149.622 10.79C149.193 11.0047 148.717 11.112 148.194 11.112C147.597 11.112 147.06 10.9907 146.584 10.748C146.108 10.496 145.73 10.1227 145.45 9.628C145.179 9.13333 145.044 8.53133 145.044 7.822V3.328H146.304V7.654C146.304 8.41 146.495 8.99333 146.878 9.404C147.261 9.80533 147.783 10.006 148.446 10.006C149.127 10.006 149.664 9.796 150.056 9.376C150.448 8.956 150.644 8.34467 150.644 7.542V3.328H151.918ZM155.343 4.574C155.567 4.13533 155.885 3.79467 156.295 3.552C156.715 3.30933 157.224 3.188 157.821 3.188V4.504H157.485C156.057 4.504 155.343 5.27867 155.343 6.828V11H154.069V3.328H155.343V4.574ZM163.03 3.188C163.963 3.188 164.719 3.47267 165.298 4.042C165.877 4.602 166.166 5.414 166.166 6.478V11H164.906V6.66C164.906 5.89467 164.715 5.31133 164.332 4.91C163.949 4.49933 163.427 4.294 162.764 4.294C162.092 4.294 161.555 4.504 161.154 4.924C160.762 5.344 160.566 5.95533 160.566 6.758V11H159.292V3.328H160.566V4.42C160.818 4.028 161.159 3.72467 161.588 3.51C162.027 3.29533 162.507 3.188 163.03 3.188ZM175.247 6.87C175.247 7.11267 175.233 7.36933 175.205 7.64H169.073C169.12 8.396 169.376 8.98867 169.843 9.418C170.319 9.838 170.893 10.048 171.565 10.048C172.116 10.048 172.573 9.922 172.937 9.67C173.31 9.40867 173.572 9.06333 173.721 8.634H175.093C174.888 9.37133 174.477 9.97333 173.861 10.44C173.245 10.8973 172.48 11.126 171.565 11.126C170.837 11.126 170.184 10.9627 169.605 10.636C169.036 10.3093 168.588 9.84733 168.261 9.25C167.934 8.64333 167.771 7.94333 167.771 7.15C167.771 6.35667 167.93 5.66133 168.247 5.064C168.564 4.46667 169.008 4.00933 169.577 3.692C170.156 3.36533 170.818 3.202 171.565 3.202C172.293 3.202 172.937 3.36067 173.497 3.678C174.057 3.99533 174.486 4.434 174.785 4.994C175.093 5.54467 175.247 6.17 175.247 6.87ZM173.931 6.604C173.931 6.11867 173.824 5.70333 173.609 5.358C173.394 5.00333 173.1 4.73733 172.727 4.56C172.363 4.37333 171.957 4.28 171.509 4.28C170.865 4.28 170.314 4.48533 169.857 4.896C169.409 5.30667 169.152 5.876 169.087 6.604H173.931ZM176.453 7.136C176.453 6.352 176.611 5.666 176.929 5.078C177.246 4.48067 177.68 4.01867 178.231 3.692C178.791 3.36533 179.416 3.202 180.107 3.202C180.704 3.202 181.259 3.342 181.773 3.622C182.286 3.89267 182.678 4.252 182.949 4.7V0.64H184.237V11H182.949V9.558C182.697 10.0153 182.323 10.3933 181.829 10.692C181.334 10.9813 180.755 11.126 180.093 11.126C179.411 11.126 178.791 10.958 178.231 10.622C177.68 10.286 177.246 9.81467 176.929 9.208C176.611 8.60133 176.453 7.91067 176.453 7.136ZM182.949 7.15C182.949 6.57133 182.832 6.06733 182.599 5.638C182.365 5.20867 182.048 4.882 181.647 4.658C181.255 4.42467 180.821 4.308 180.345 4.308C179.869 4.308 179.435 4.42 179.043 4.644C178.651 4.868 178.338 5.19467 178.105 5.624C177.871 6.05333 177.755 6.55733 177.755 7.136C177.755 7.724 177.871 8.23733 178.105 8.676C178.338 9.10533 178.651 9.43667 179.043 9.67C179.435 9.894 179.869 10.006 180.345 10.006C180.821 10.006 181.255 9.894 181.647 9.67C182.048 9.43667 182.365 9.10533 182.599 8.676C182.832 8.23733 182.949 7.72867 182.949 7.15ZM193.468 11.126C192.749 11.126 192.096 10.9627 191.508 10.636C190.929 10.3093 190.472 9.84733 190.136 9.25C189.809 8.64333 189.646 7.94333 189.646 7.15C189.646 6.366 189.814 5.67533 190.15 5.078C190.495 4.47133 190.962 4.00933 191.55 3.692C192.138 3.36533 192.796 3.202 193.524 3.202C194.252 3.202 194.91 3.36533 195.498 3.692C196.086 4.00933 196.548 4.46667 196.884 5.064C197.229 5.66133 197.402 6.35667 197.402 7.15C197.402 7.94333 197.225 8.64333 196.87 9.25C196.525 9.84733 196.053 10.3093 195.456 10.636C194.859 10.9627 194.196 11.126 193.468 11.126ZM193.468 10.006C193.925 10.006 194.355 9.89867 194.756 9.684C195.157 9.46933 195.479 9.14733 195.722 8.718C195.974 8.28867 196.1 7.766 196.1 7.15C196.1 6.534 195.979 6.01133 195.736 5.582C195.493 5.15267 195.176 4.83533 194.784 4.63C194.392 4.41533 193.967 4.308 193.51 4.308C193.043 4.308 192.614 4.41533 192.222 4.63C191.839 4.83533 191.531 5.15267 191.298 5.582C191.065 6.01133 190.948 6.534 190.948 7.15C190.948 7.77533 191.06 8.30267 191.284 8.732C191.517 9.16133 191.825 9.48333 192.208 9.698C192.591 9.90333 193.011 10.006 193.468 10.006ZM202.815 3.188C203.748 3.188 204.504 3.47267 205.083 4.042C205.662 4.602 205.951 5.414 205.951 6.478V11H204.691V6.66C204.691 5.89467 204.5 5.31133 204.117 4.91C203.734 4.49933 203.212 4.294 202.549 4.294C201.877 4.294 201.34 4.504 200.939 4.924C200.547 5.344 200.351 5.95533 200.351 6.758V11H199.077V3.328H200.351V4.42C200.603 4.028 200.944 3.72467 201.373 3.51C201.812 3.29533 202.292 3.188 202.815 3.188ZM57.3706 27.136C57.3706 26.352 57.5292 25.666 57.8466 25.078C58.1639 24.4807 58.5979 24.0187 59.1486 23.692C59.7086 23.3653 60.3292 23.202 61.0106 23.202C61.6826 23.202 62.2659 23.3467 62.7606 23.636C63.2552 23.9253 63.6239 24.2893 63.8666 24.728V23.328H65.1546V31H63.8666V29.572C63.6146 30.02 63.2366 30.3933 62.7326 30.692C62.2379 30.9813 61.6592 31.126 60.9966 31.126C60.3152 31.126 59.6992 30.958 59.1486 30.622C58.5979 30.286 58.1639 29.8147 57.8466 29.208C57.5292 28.6013 57.3706 27.9107 57.3706 27.136ZM63.8666 27.15C63.8666 26.5713 63.7499 26.0673 63.5166 25.638C63.2832 25.2087 62.9659 24.882 62.5646 24.658C62.1726 24.4247 61.7386 24.308 61.2626 24.308C60.7866 24.308 60.3526 24.42 59.9606 24.644C59.5686 24.868 59.2559 25.1947 59.0226 25.624C58.7892 26.0533 58.6726 26.5573 58.6726 27.136C58.6726 27.724 58.7892 28.2373 59.0226 28.676C59.2559 29.1053 59.5686 29.4367 59.9606 29.67C60.3526 29.894 60.7866 30.006 61.2626 30.006C61.7386 30.006 62.1726 29.894 62.5646 29.67C62.9659 29.4367 63.2832 29.1053 63.5166 28.676C63.7499 28.2373 63.8666 27.7287 63.8666 27.15ZM71.0455 23.188C71.9788 23.188 72.7348 23.4727 73.3135 24.042C73.8922 24.602 74.1815 25.414 74.1815 26.478V31H72.9215V26.66C72.9215 25.8947 72.7302 25.3113 72.3475 24.91C71.9648 24.4993 71.4422 24.294 70.7795 24.294C70.1075 24.294 69.5708 24.504 69.1695 24.924C68.7775 25.344 68.5815 25.9553 68.5815 26.758V31H67.3075V23.328H68.5815V24.42C68.8335 24.028 69.1742 23.7247 69.6035 23.51C70.0422 23.2953 70.5228 23.188 71.0455 23.188ZM75.7866 27.136C75.7866 26.352 75.9452 25.666 76.2626 25.078C76.5799 24.4807 77.0139 24.0187 77.5646 23.692C78.1246 23.3653 78.7499 23.202 79.4406 23.202C80.0379 23.202 80.5932 23.342 81.1066 23.622C81.6199 23.8927 82.0119 24.252 82.2826 24.7V20.64H83.5706V31H82.2826V29.558C82.0306 30.0153 81.6572 30.3933 81.1626 30.692C80.6679 30.9813 80.0892 31.126 79.4266 31.126C78.7452 31.126 78.1246 30.958 77.5646 30.622C77.0139 30.286 76.5799 29.8147 76.2626 29.208C75.9452 28.6013 75.7866 27.9107 75.7866 27.136ZM82.2826 27.15C82.2826 26.5713 82.1659 26.0673 81.9326 25.638C81.6992 25.2087 81.3819 24.882 80.9806 24.658C80.5886 24.4247 80.1546 24.308 79.6786 24.308C79.2026 24.308 78.7686 24.42 78.3766 24.644C77.9846 24.868 77.6719 25.1947 77.4386 25.624C77.2052 26.0533 77.0886 26.5573 77.0886 27.136C77.0886 27.724 77.2052 28.2373 77.4386 28.676C77.6719 29.1053 77.9846 29.4367 78.3766 29.67C78.7686 29.894 79.2026 30.006 79.6786 30.006C80.1546 30.006 80.5886 29.894 80.9806 29.67C81.3819 29.4367 81.6992 29.1053 81.9326 28.676C82.1659 28.2373 82.2826 27.7287 82.2826 27.15ZM90.1139 22.082C89.8713 22.082 89.6659 21.998 89.4979 21.83C89.3299 21.662 89.2459 21.4567 89.2459 21.214C89.2459 20.9713 89.3299 20.766 89.4979 20.598C89.6659 20.43 89.8713 20.346 90.1139 20.346C90.3473 20.346 90.5433 20.43 90.7019 20.598C90.8699 20.766 90.9539 20.9713 90.9539 21.214C90.9539 21.4567 90.8699 21.662 90.7019 21.83C90.5433 21.998 90.3473 22.082 90.1139 22.082ZM90.7299 23.328V31H89.4559V23.328H90.7299ZM96.6392 23.188C97.5726 23.188 98.3286 23.4727 98.9072 24.042C99.4859 24.602 99.7752 25.414 99.7752 26.478V31H98.5152V26.66C98.5152 25.8947 98.3239 25.3113 97.9412 24.91C97.5586 24.4993 97.0359 24.294 96.3732 24.294C95.7012 24.294 95.1646 24.504 94.7632 24.924C94.3712 25.344 94.1752 25.9553 94.1752 26.758V31H92.9012V23.328H94.1752V24.42C94.4272 24.028 94.7679 23.7247 95.1972 23.51C95.6359 23.2953 96.1166 23.188 96.6392 23.188ZM106.863 24.574C107.087 24.1353 107.404 23.7947 107.815 23.552C108.235 23.3093 108.743 23.188 109.341 23.188V24.504H109.005C107.577 24.504 106.863 25.2787 106.863 26.828V31H105.589V23.328H106.863V24.574ZM110.335 27.136C110.335 26.352 110.494 25.666 110.811 25.078C111.129 24.4807 111.563 24.0187 112.113 23.692C112.673 23.3653 113.294 23.202 113.975 23.202C114.647 23.202 115.231 23.3467 115.725 23.636C116.22 23.9253 116.589 24.2893 116.831 24.728V23.328H118.119V31H116.831V29.572C116.579 30.02 116.201 30.3933 115.697 30.692C115.203 30.9813 114.624 31.126 113.961 31.126C113.28 31.126 112.664 30.958 112.113 30.622C111.563 30.286 111.129 29.8147 110.811 29.208C110.494 28.6013 110.335 27.9107 110.335 27.136ZM116.831 27.15C116.831 26.5713 116.715 26.0673 116.481 25.638C116.248 25.2087 115.931 24.882 115.529 24.658C115.137 24.4247 114.703 24.308 114.227 24.308C113.751 24.308 113.317 24.42 112.925 24.644C112.533 24.868 112.221 25.1947 111.987 25.624C111.754 26.0533 111.637 26.5573 111.637 27.136C111.637 27.724 111.754 28.2373 111.987 28.676C112.221 29.1053 112.533 29.4367 112.925 29.67C113.317 29.894 113.751 30.006 114.227 30.006C114.703 30.006 115.137 29.894 115.529 29.67C115.931 29.4367 116.248 29.1053 116.481 28.676C116.715 28.2373 116.831 27.7287 116.831 27.15ZM124.01 23.188C124.944 23.188 125.7 23.4727 126.278 24.042C126.857 24.602 127.146 25.414 127.146 26.478V31H125.886V26.66C125.886 25.8947 125.695 25.3113 125.312 24.91C124.93 24.4993 124.407 24.294 123.744 24.294C123.072 24.294 122.536 24.504 122.134 24.924C121.742 25.344 121.546 25.9553 121.546 26.758V31H120.272V23.328H121.546V24.42C121.798 24.028 122.139 23.7247 122.568 23.51C123.007 23.2953 123.488 23.188 124.01 23.188ZM132.391 23.202C133.054 23.202 133.633 23.3467 134.127 23.636C134.631 23.9253 135.005 24.2893 135.247 24.728V23.328H136.535V31.168C136.535 31.868 136.386 32.4887 136.087 33.03C135.789 33.5807 135.359 34.01 134.799 34.318C134.249 34.626 133.605 34.78 132.867 34.78C131.859 34.78 131.019 34.542 130.347 34.066C129.675 33.59 129.279 32.9413 129.157 32.12H130.417C130.557 32.5867 130.847 32.96 131.285 33.24C131.724 33.5293 132.251 33.674 132.867 33.674C133.567 33.674 134.137 33.4547 134.575 33.016C135.023 32.5773 135.247 31.9613 135.247 31.168V29.558C134.995 30.006 134.622 30.3793 134.127 30.678C133.633 30.9767 133.054 31.126 132.391 31.126C131.71 31.126 131.089 30.958 130.529 30.622C129.979 30.286 129.545 29.8147 129.227 29.208C128.91 28.6013 128.751 27.9107 128.751 27.136C128.751 26.352 128.91 25.666 129.227 25.078C129.545 24.4807 129.979 24.0187 130.529 23.692C131.089 23.3653 131.71 23.202 132.391 23.202ZM135.247 27.15C135.247 26.5713 135.131 26.0673 134.897 25.638C134.664 25.2087 134.347 24.882 133.945 24.658C133.553 24.4247 133.119 24.308 132.643 24.308C132.167 24.308 131.733 24.42 131.341 24.644C130.949 24.868 130.637 25.1947 130.403 25.624C130.17 26.0533 130.053 26.5573 130.053 27.136C130.053 27.724 130.17 28.2373 130.403 28.676C130.637 29.1053 130.949 29.4367 131.341 29.67C131.733 29.894 132.167 30.006 132.643 30.006C133.119 30.006 133.553 29.894 133.945 29.67C134.347 29.4367 134.664 29.1053 134.897 28.676C135.131 28.2373 135.247 27.7287 135.247 27.15ZM145.688 26.87C145.688 27.1127 145.674 27.3693 145.646 27.64H139.514C139.561 28.396 139.818 28.9887 140.284 29.418C140.76 29.838 141.334 30.048 142.006 30.048C142.557 30.048 143.014 29.922 143.378 29.67C143.752 29.4087 144.013 29.0633 144.162 28.634H145.534C145.329 29.3713 144.918 29.9733 144.302 30.44C143.686 30.8973 142.921 31.126 142.006 31.126C141.278 31.126 140.625 30.9627 140.046 30.636C139.477 30.3093 139.029 29.8473 138.702 29.25C138.376 28.6433 138.212 27.9433 138.212 27.15C138.212 26.3567 138.371 25.6613 138.688 25.064C139.006 24.4667 139.449 24.0093 140.018 23.692C140.597 23.3653 141.26 23.202 142.006 23.202C142.734 23.202 143.378 23.3607 143.938 23.678C144.498 23.9953 144.928 24.434 145.226 24.994C145.534 25.5447 145.688 26.17 145.688 26.87ZM144.372 26.604C144.372 26.1187 144.265 25.7033 144.05 25.358C143.836 25.0033 143.542 24.7373 143.168 24.56C142.804 24.3733 142.398 24.28 141.95 24.28C141.306 24.28 140.756 24.4853 140.298 24.896C139.85 25.3067 139.594 25.876 139.528 26.604H144.372ZM147.776 31.084C147.533 31.084 147.328 31 147.16 30.832C146.992 30.664 146.908 30.4587 146.908 30.216C146.908 29.9733 146.992 29.768 147.16 29.6C147.328 29.432 147.533 29.348 147.776 29.348C148.009 29.348 148.205 29.432 148.364 29.6C148.532 29.768 148.616 29.9733 148.616 30.216C148.616 30.4587 148.532 30.664 148.364 30.832C148.205 31 148.009 31.084 147.776 31.084Z" fill="#757575"/>
</svg>
