<svg width="280" height="128" viewBox="0 0 280 128" fill="none" xmlns="http://www.w3.org/2000/svg">
<rect width="280" height="128" rx="13" fill="#E0E0E0"/>
<mask id="mask0_293_2239" style="mask-type:alpha" maskUnits="userSpaceOnUse" x="126" y="50" width="28" height="28">
<path fill-rule="evenodd" clip-rule="evenodd" d="M126.667 50.6669H153.28V77.2667H126.667V50.6669Z" fill="white"/>
</mask>
<g mask="url(#mask0_293_2239)">
<path fill-rule="evenodd" clip-rule="evenodd" d="M134.201 52.6667C130.839 52.6667 128.667 54.9694 128.667 58.532V69.4014C128.667 72.9654 130.839 75.2667 134.201 75.2667H145.734C149.103 75.2667 151.281 72.9654 151.281 69.4014V58.532C151.281 54.9694 149.103 52.6667 145.734 52.6667H134.201ZM145.734 77.2667H134.201C129.694 77.2667 126.667 74.1054 126.667 69.4014V58.532C126.667 53.828 129.694 50.6667 134.201 50.6667H145.734C150.247 50.6667 153.281 53.828 153.281 58.532V69.4014C153.281 74.1054 150.247 77.2667 145.734 77.2667Z" fill="#BDBDBD"/>
<path fill-rule="evenodd" clip-rule="evenodd" d="M131.042 70.9072C130.794 70.9072 130.547 70.8166 130.354 70.6326C129.952 70.2539 129.936 69.6192 130.316 69.2206L132.354 67.0699C133.432 65.9246 135.252 65.8686 136.403 66.9486L137.68 68.2446C138.036 68.6046 138.615 68.6112 138.972 68.2592C139.107 68.1006 142.011 64.5739 142.011 64.5739C142.563 63.9046 143.342 63.4912 144.207 63.4059C145.074 63.3299 145.915 63.5819 146.586 64.1326C146.643 64.1792 146.695 64.2246 149.623 67.2312C150.008 67.6259 150.002 68.2592 149.606 68.6446C149.211 69.0326 148.576 69.0206 148.191 68.6259C148.191 68.6259 145.459 65.8219 145.264 65.6326C145.058 65.4632 144.726 65.3646 144.399 65.3966C144.067 65.4299 143.768 65.5886 143.556 65.8459C140.458 69.6046 140.42 69.6406 140.37 69.6899C139.226 70.8126 137.379 70.7939 136.255 69.6472C136.255 69.6472 135.015 68.3886 134.994 68.3632C134.686 68.0779 134.136 68.0966 133.807 68.4446L131.767 70.5952C131.57 70.8032 131.306 70.9072 131.042 70.9072Z" fill="#BDBDBD"/>
<path fill-rule="evenodd" clip-rule="evenodd" d="M135.41 58.8386C134.673 58.8386 134.073 59.4386 134.073 60.1772C134.073 60.9159 134.673 61.5172 135.411 61.5172C136.15 61.5172 136.751 60.9159 136.751 60.1772C136.751 59.4399 136.15 58.8399 135.41 58.8386ZM135.411 63.5172C133.57 63.5172 132.073 62.0186 132.073 60.1772C132.073 58.3359 133.57 56.8386 135.411 56.8386C137.254 56.8399 138.751 58.3386 138.751 60.1772C138.751 62.0186 137.253 63.5172 135.411 63.5172Z" fill="#BDBDBD"/>
</g>
</svg>
