<svg width="48" height="48" viewBox="0 0 48 48" fill="none" xmlns="http://www.w3.org/2000/svg">
<g clip-path="url(#clip0_250_3633)">
<rect width="48" height="48" rx="12" fill="white"/>
<path d="M26.8101 14.56C26.8101 12.67 30.4201 12.69 34.8701 12.69C39.3201 12.69 42.9301 12.67 42.9301 14.56C42.9301 16.45 39.3201 19.53 34.8701 19.53C30.4201 19.53 26.8101 16.45 26.8101 14.56Z" fill="#B5EED1"/>
<path d="M4.70007 14.56C4.70007 12.67 8.31007 12.69 12.7601 12.69C17.2101 12.69 20.8201 12.67 20.8201 14.56C20.8201 16.45 17.2101 19.53 12.7601 19.53C8.31007 19.53 4.70007 16.45 4.70007 14.56Z" fill="#B5EED1"/>
<path d="M24 42.55V54.64" stroke="#212121" stroke-width="0.5" stroke-miterlimit="10" stroke-linecap="round" stroke-linejoin="round"/>
<path d="M-8.81995 62.84C-8.16995 59.26 -6.83995 55.86 -5.86995 52.27C-4.85995 48.53 -4.34995 48.15 -3.95995 43.79C-3.10995 34.26 -1.38995 17.87 0.990053 15.5C2.31005 14.18 3.10005 13.71 6.19005 12.86C9.31005 11.99 12.2801 11.84 14.6801 9.37001C17.7901 6.17001 17.8801 3.41001 17.0801 -0.829987" stroke="#212121" stroke-width="0.5" stroke-miterlimit="10" stroke-linecap="round" stroke-linejoin="round"/>
<path d="M7.92002 62.99C9.00002 60.5 9.56002 57.81 9.44002 55.08C9.35002 53.2 9.14002 50.55 8.69002 46.84C8.69002 46.84 7.08002 34.51 5.93002 31.19C5.29002 36.06 3.68002 47.01 2.19002 51.03C1.01002 54.21 -0.409976 57.84 -1.13998 61.05C-1.27998 61.69 -1.43998 62.33 -1.59998 62.97" stroke="#212121" stroke-width="0.5" stroke-miterlimit="10" stroke-linecap="round" stroke-linejoin="round"/>
<path d="M49.09 62.84C48.93 62.2 48.78 61.56 48.63 60.92C47.91 57.71 47.13 54.21 45.95 51.03C44.33 46.66 43.79 36.03 43.23 31.19C43.23 31.19 39.58 37.78 38.89 46.92C38.67 49.88 38.23 53.19 38.47 55.27C38.62 56.61 39.78 61.58 40.3 62.8" stroke="#212121" stroke-width="0.5" stroke-miterlimit="10" stroke-linecap="round" stroke-linejoin="round"/>
<path d="M31.7701 -0.869995C30.7201 3.32 30.9301 6.7 33.9601 9.45C36.5001 11.75 37.9301 12.01 41.0501 12.88C44.1401 13.74 46.1501 14.7 47.4701 16.02C49.8501 18.39 51.1101 34.26 51.9601 43.79C52.3501 48.15 52.2901 48.37 53.8701 52.27C55.2601 55.72 56.1801 59.26 56.8201 62.84" stroke="#212121" stroke-width="0.5" stroke-miterlimit="10" stroke-linecap="round" stroke-linejoin="round"/>
<path d="M18.3801 23.97C18.3801 23.97 18.6601 34.11 14.7201 34.11" stroke="#212121" stroke-width="0.5" stroke-miterlimit="10" stroke-linecap="round" stroke-linejoin="round"/>
<path d="M29.6201 23.97C29.6201 23.97 29.3401 34.11 33.2801 34.11" stroke="#212121" stroke-width="0.5" stroke-miterlimit="10" stroke-linecap="round" stroke-linejoin="round"/>
</g>
<rect x="0.5" y="0.5" width="47" height="47" rx="11.5" stroke="#EEEEEE"/>
<defs>
<clipPath id="clip0_250_3633">
<rect width="48" height="48" rx="12" fill="white"/>
</clipPath>
</defs>
</svg>
