<svg width="48" height="48" viewBox="0 0 48 48" fill="none" xmlns="http://www.w3.org/2000/svg">
<g clip-path="url(#clip0_631_9200)">
<rect width="48" height="48" rx="12" fill="#E9F2F4"/>
<path d="M26.8096 14.56C26.8096 12.67 30.4196 12.6899 34.8696 12.6899C39.3196 12.6899 42.9296 12.67 42.9296 14.56C42.9296 16.45 39.3196 19.53 34.8696 19.53C30.4196 19.53 26.8096 16.45 26.8096 14.56Z" fill="#ABE2EC"/>
<path d="M4.69922 14.56C4.69922 12.67 8.30922 12.6899 12.7592 12.6899C17.2092 12.6899 20.8192 12.67 20.8192 14.56C20.8192 16.45 17.2092 19.53 12.7592 19.53C8.30922 19.53 4.69922 16.45 4.69922 14.56Z" fill="#ABE2EC"/>
<path d="M24 42.55V54.64" stroke="#00365C" stroke-width="0.5" stroke-miterlimit="10" stroke-linecap="round" stroke-linejoin="round"/>
<path d="M-8.82031 62.84C-8.17031 59.26 -6.84031 55.86 -5.87031 52.27C-4.86031 48.53 -4.35031 48.15 -3.96031 43.79C-3.11031 34.26 -1.39031 17.87 0.989687 15.5C2.30969 14.18 3.09969 13.71 6.18969 12.86C9.30969 11.99 12.2797 11.84 14.6797 9.37004C17.7897 6.17004 17.8797 3.41004 17.0797 -0.829956" stroke="#00365C" stroke-width="0.5" stroke-miterlimit="10" stroke-linecap="round" stroke-linejoin="round"/>
<path d="M7.91941 62.9901C8.99941 60.5001 9.55941 57.8101 9.43941 55.0801C9.34941 53.2001 9.13941 50.5501 8.68941 46.8401C8.68941 46.8401 7.07941 34.5101 5.92941 31.1901C5.28941 36.0601 3.67941 47.0101 2.18941 51.0301C1.00941 54.2101 -0.410586 57.8401 -1.14059 61.0501C-1.28059 61.6901 -1.44059 62.3301 -1.60059 62.9701" stroke="#00365C" stroke-width="0.5" stroke-miterlimit="10" stroke-linecap="round" stroke-linejoin="round"/>
<path d="M49.09 62.8401C48.93 62.2001 48.78 61.5601 48.63 60.9201C47.91 57.7101 47.13 54.2101 45.95 51.0301C44.33 46.6601 43.79 36.0301 43.23 31.1901C43.23 31.1901 39.58 37.7801 38.89 46.9201C38.67 49.8801 38.23 53.1901 38.47 55.2701C38.62 56.6101 39.78 61.5801 40.3 62.8001" stroke="#00365C" stroke-width="0.5" stroke-miterlimit="10" stroke-linecap="round" stroke-linejoin="round"/>
<path d="M31.7701 -0.869995C30.7201 3.32 30.9301 6.7 33.9601 9.45C36.5001 11.75 37.9301 12.01 41.0501 12.88C44.1401 13.74 46.1501 14.7 47.4701 16.02C49.8501 18.39 51.1101 34.26 51.9601 43.79C52.3501 48.15 52.2901 48.37 53.8701 52.27C55.2601 55.72 56.1801 59.26 56.8201 62.84" stroke="#00365C" stroke-width="0.5" stroke-miterlimit="10" stroke-linecap="round" stroke-linejoin="round"/>
<path d="M18.3797 23.97C18.3797 23.97 18.6597 34.11 14.7197 34.11" stroke="#00365C" stroke-width="0.5" stroke-miterlimit="10" stroke-linecap="round" stroke-linejoin="round"/>
<path d="M29.6196 23.97C29.6196 23.97 29.3396 34.11 33.2796 34.11" stroke="#00365C" stroke-width="0.5" stroke-miterlimit="10" stroke-linecap="round" stroke-linejoin="round"/>
</g>
<defs>
<clipPath id="clip0_631_9200">
<rect width="48" height="48" rx="12" fill="white"/>
</clipPath>
</defs>
</svg>
