<svg width="216" height="35" viewBox="0 0 216 35" fill="none" xmlns="http://www.w3.org/2000/svg">
<g clip-path="url(#clip0_434_6107)">
<path d="M215.356 9.15274C214.383 8.58183 212.679 8.32861 211.546 8.32861C206.284 8.32861 202.79 12.2651 202.79 17.4723V24.871C202.79 26.3627 205.371 26.3627 205.371 24.871V17.4723C205.371 13.6923 207.705 10.9299 211.546 10.9299C213.026 10.9299 214.068 11.5054 214.79 11.5054C215.062 11.4959 215.323 11.397 215.534 11.2237C215.745 11.0504 215.894 10.8123 215.958 10.5457C216.022 10.279 215.998 9.99858 215.89 9.74708C215.781 9.49557 215.593 9.28684 215.356 9.15274Z" fill="#757575"/>
<path d="M178.595 15.6354C178.241 13.5591 177.17 11.6757 175.572 10.318C173.974 8.96023 171.951 8.21558 169.861 8.21558C167.771 8.21558 165.748 8.96023 164.15 10.318C162.552 11.6757 161.481 13.5591 161.128 15.6354C161.039 16.1386 160.993 16.6484 160.99 17.1593C160.99 17.3619 160.99 17.5553 161.018 17.7533V17.8223C161.156 19.7322 161.901 21.5465 163.14 22.9975C164.38 24.4484 166.05 25.459 167.904 25.8801C169.757 26.3012 171.696 26.1105 173.433 25.336C175.171 24.5616 176.615 23.2445 177.553 21.5792C177.662 21.3921 177.719 21.1792 177.719 20.9623C177.719 20.7454 177.662 20.5325 177.553 20.3453C177.45 20.1628 177.3 20.0113 177.119 19.9061C176.939 19.801 176.734 19.746 176.525 19.7468H176.439C176.223 19.7492 176.011 19.8087 175.825 19.9194C175.639 20.0301 175.485 20.1881 175.379 20.3776C174.709 21.5436 173.694 22.4687 172.475 23.0229C171.257 23.5771 169.897 23.7325 168.586 23.4673C167.275 23.2021 166.08 22.5296 165.168 21.5443C164.257 20.559 163.674 19.3105 163.503 17.9743H177.023C177.254 17.9747 177.482 17.9257 177.693 17.8304C177.903 17.7351 178.091 17.5957 178.244 17.4215C178.397 17.2473 178.512 17.0422 178.58 16.82C178.648 16.5978 178.669 16.3635 178.64 16.1326C178.645 15.9623 178.622 15.7965 178.595 15.6354ZM163.699 15.4881C164.07 14.1265 164.875 12.9254 165.989 12.0693C167.103 11.2133 168.465 10.7496 169.866 10.7496C171.266 10.7496 172.629 11.2133 173.743 12.0693C174.857 12.9254 175.661 14.1265 176.032 15.4881H163.699Z" fill="#757575"/>
<path d="M197.875 8.48076C197.53 8.48075 197.199 8.61822 196.955 8.86317C196.71 9.10812 196.571 9.44068 196.569 9.78831V11.0913C195.365 9.80624 193.807 8.915 192.095 8.53294C190.383 8.15089 188.597 8.2956 186.967 8.94835C185.338 9.6011 183.941 10.7318 182.956 12.1941C181.972 13.6564 181.445 15.383 181.445 17.1502C181.445 18.9174 181.972 20.6439 182.956 22.1062C183.941 23.5685 185.338 24.6993 186.967 25.352C188.597 26.0048 190.383 26.1495 192.095 25.7674C193.807 25.3854 195.365 24.4941 196.569 23.2091V24.5213C196.569 24.8705 196.706 25.2054 196.951 25.4524C197.196 25.6993 197.529 25.838 197.875 25.838C198.222 25.838 198.554 25.6993 198.799 25.4524C199.044 25.2054 199.182 24.8705 199.182 24.5213V9.78831C199.179 9.44068 199.04 9.10812 198.796 8.86317C198.551 8.61822 198.22 8.48075 197.875 8.48076V8.48076ZM190.22 23.3518C189.004 23.3555 187.815 22.9955 186.802 22.3175C185.789 21.6395 184.999 20.6739 184.531 19.543C184.063 18.4121 183.939 17.1666 184.173 15.9643C184.408 14.762 184.991 13.6569 185.849 12.7889C186.707 11.9208 187.801 11.3288 188.993 11.0879C190.185 10.8469 191.421 10.9678 192.545 11.4353C193.669 11.9027 194.63 12.6957 195.306 13.7138C195.983 14.7319 196.344 15.9295 196.345 17.1548C196.345 18.7944 195.7 20.3671 194.552 21.5287C193.404 22.6902 191.846 23.3458 190.22 23.3518V23.3518Z" fill="#757575"/>
<path d="M117.903 7.79932C116.066 7.79932 114.271 8.34839 112.743 9.37709C111.216 10.4058 110.026 11.8679 109.323 13.5785C108.62 15.2891 108.437 17.1713 108.795 18.9871C109.154 20.8029 110.039 22.4707 111.338 23.7795C112.637 25.0884 114.292 25.9795 116.094 26.3401C117.896 26.7007 119.763 26.5147 121.46 25.8056C123.157 25.0964 124.607 23.896 125.626 22.3562C126.646 20.8163 127.19 19.0062 127.189 17.1547C127.186 14.6739 126.206 12.2957 124.465 10.5419C122.724 8.78805 120.364 7.80175 117.903 7.79932ZM117.903 22.8177C116.793 22.8177 115.708 22.486 114.785 21.8644C113.862 21.2429 113.142 20.3594 112.717 19.3258C112.292 18.2921 112.18 17.1546 112.397 16.0571C112.613 14.9597 113.147 13.9514 113.932 13.1599C114.716 12.3684 115.716 11.8291 116.805 11.6103C117.894 11.3914 119.022 11.5028 120.048 11.9304C121.074 12.3579 121.951 13.0825 122.568 14.0124C123.186 14.9423 123.516 16.0358 123.517 17.1547C123.517 18.6559 122.925 20.0956 121.873 21.1575C120.82 22.2193 119.392 22.8165 117.903 22.8177V22.8177Z" fill="#757575"/>
<path d="M14.7447 24.1483C14.7527 23.9144 14.714 23.6812 14.6309 23.4625C14.5478 23.2439 14.422 23.0444 14.261 22.8756C14.1 22.7069 13.907 22.5725 13.6936 22.4803C13.4801 22.3881 13.2504 22.34 13.0181 22.3389C12.7576 22.3253 12.4985 22.3843 12.269 22.5093C11.4734 22.8631 10.6126 23.0435 9.74305 23.0387C7.13943 23.0387 3.64053 21.4734 3.64053 17.0535V1.63451C3.64053 0.566369 2.72698 0.00927734 1.81343 0.00927734C0.899879 0.00927734 -0.0136719 0.566369 -0.0136719 1.63451V17.0627C-0.0136719 23.6925 5.25752 26.7312 9.72935 26.7312C11.1326 26.7576 12.5227 26.455 13.7901 25.8472C14.0945 25.6866 14.3464 25.4409 14.5158 25.1396C14.6851 24.8382 14.7646 24.4941 14.7447 24.1483V24.1483Z" fill="#757575"/>
<path d="M30.2294 8.40702C29.8146 8.23898 29.3531 8.23006 28.9322 8.38193C28.5113 8.53381 28.1603 8.83594 27.9456 9.23115L23.4555 19.8527L19.0065 9.32783C18.9327 9.12299 18.818 8.93559 18.6695 8.7772C18.521 8.61882 18.3419 8.49283 18.1432 8.40702C17.9055 8.31478 17.6516 8.27251 17.3971 8.28281C17.1425 8.2931 16.8928 8.35574 16.6632 8.46688C16.438 8.5391 16.2303 8.65825 16.0538 8.81662C15.8772 8.97498 15.7356 9.169 15.6383 9.38609C15.5409 9.60318 15.49 9.83848 15.4887 10.0767C15.4874 10.3149 15.5359 10.5508 15.6309 10.7689L21.3543 24.2311C21.432 24.4309 21.432 24.6529 21.3543 24.8527L20.2215 27.5184C19.1755 29.9724 17.3666 31.326 15.133 31.326C14.2852 31.3113 13.4486 31.1283 12.671 30.7873C12.4529 30.7073 12.2211 30.6724 11.9893 30.6848C11.7576 30.6971 11.5307 30.7564 11.3222 30.8591C11.1137 30.9618 10.9279 31.1058 10.7759 31.2826C10.6238 31.4593 10.5087 31.6651 10.4374 31.8877C10.2588 32.3059 10.2454 32.7771 10.3999 33.205C10.5544 33.6328 10.8652 33.9851 11.2687 34.1897C12.4792 34.7102 13.7804 34.9826 15.0965 34.9908C18.8283 34.9908 21.9892 32.7348 23.556 28.9503L31.2389 10.6676C31.3216 10.4525 31.3611 10.223 31.355 9.99243C31.3489 9.76184 31.2974 9.53477 31.2035 9.32442C31.1095 9.11407 30.975 8.92465 30.8078 8.76715C30.6406 8.60966 30.444 8.48725 30.2294 8.40702V8.40702Z" fill="#757575"/>
<path d="M74.3173 7.71631C72.2199 7.71727 70.1846 8.43461 68.5437 9.7513C68.5031 9.26287 68.2717 8.8107 67.9003 8.49425C67.529 8.17781 67.0481 8.02301 66.5635 8.06391C66.079 8.10482 65.6304 8.33808 65.3164 8.71237C65.0025 9.08667 64.8489 9.57134 64.8895 10.0598V32.9281C64.8895 33.4196 65.0832 33.8909 65.4279 34.2385C65.7727 34.586 66.2404 34.7812 66.728 34.7812C67.2156 34.7812 67.6832 34.586 68.028 34.2385C68.3728 33.8909 68.5665 33.4196 68.5665 32.9281V24.4198C69.7288 25.343 71.0933 25.9727 72.5461 26.2564C73.9989 26.5401 75.4979 26.4695 76.9182 26.0506C78.3384 25.6317 79.6387 24.8765 80.7106 23.8482C81.7825 22.8198 82.5949 21.548 83.0801 20.1389C83.5652 18.7297 83.709 17.2241 83.4996 15.7475C83.2901 14.2709 82.7334 12.8663 81.8759 11.6506C81.0184 10.435 79.885 9.44363 78.5701 8.75924C77.2553 8.07485 75.7971 7.71726 74.3173 7.71631V7.71631ZM79.9311 17.0763C79.9311 18.1955 79.6018 19.2895 78.985 20.22C78.3681 21.1505 77.4914 21.8757 76.4656 22.304C75.4398 22.7323 74.3111 22.8443 73.2221 22.626C72.1331 22.4077 71.1329 21.8688 70.3478 21.0774C69.5627 20.2861 69.028 19.2779 68.8114 18.1802C68.5948 17.0826 68.706 15.9449 69.1309 14.911C69.5557 13.877 70.2753 12.9933 71.1985 12.3716C72.1216 11.7498 73.207 11.418 74.3173 11.418C75.8054 11.4204 77.2319 12.0173 78.2842 13.078C79.3364 14.1386 79.9287 15.5764 79.9311 17.0763V17.0763Z" fill="#757575"/>
<path d="M96.4572 7.48626C94.4242 7.46978 92.4439 8.1373 90.8297 9.38313V1.8509C90.8297 1.36247 90.6372 0.894047 90.2946 0.548676C89.9519 0.203305 89.4872 0.00927734 89.0026 0.00927734C88.5181 0.00927734 88.0533 0.203305 87.7107 0.548676C87.368 0.894047 87.1755 1.36247 87.1755 1.8509V25.4421C87.1755 25.9305 87.368 26.3989 87.7107 26.7443C88.0533 27.0897 88.5181 27.2837 89.0026 27.2837C89.4872 27.2837 89.9519 27.0897 90.2946 26.7443C90.6372 26.3989 90.8297 25.9305 90.8297 25.4421V16.8095C90.8297 15.3088 91.4212 13.8695 92.474 12.8084C93.5268 11.7472 94.9546 11.1511 96.4435 11.1511C97.9324 11.1511 99.3603 11.7472 100.413 12.8084C101.466 13.8695 102.057 15.3088 102.057 16.8095V25.4421C102.057 25.9305 102.25 26.3989 102.592 26.7443C102.935 27.0897 103.4 27.2837 103.884 27.2837C104.369 27.2837 104.834 27.0897 105.176 26.7443C105.519 26.3989 105.711 25.9305 105.711 25.4421V16.8279C105.704 14.355 104.727 11.9852 102.994 10.2353C101.26 8.48533 98.9106 7.49718 96.4572 7.48626Z" fill="#757575"/>
<path d="M53.5616 7.88218C52.4926 7.88192 51.4363 8.11467 50.4649 8.56447C49.4936 9.01426 48.6302 9.67046 47.9341 10.4881C46.7857 9.13929 45.1979 8.24729 43.4557 7.9722C41.7136 7.69712 39.9312 8.05697 38.4286 8.98715C38.3048 8.55518 38.0284 8.1838 37.6517 7.94303C37.2749 7.70226 36.8238 7.60873 36.3834 7.68008C35.9429 7.75142 35.5436 7.98272 35.2607 8.33035C34.9778 8.67799 34.8308 9.11794 34.8475 9.56726V25.442C34.8475 25.9347 35.0417 26.4073 35.3873 26.7556C35.7329 27.104 36.2017 27.2998 36.6906 27.2998C37.1794 27.2998 37.6482 27.104 37.9938 26.7556C38.3395 26.4073 38.5336 25.9347 38.5336 25.442V15.3868C38.516 14.8765 38.6005 14.368 38.7821 13.8913C38.9636 13.4147 39.2386 12.9798 39.5904 12.6126C39.9423 12.2453 40.3639 11.9533 40.8302 11.7538C41.2965 11.5543 41.7978 11.4515 42.3043 11.4515C42.8109 11.4515 43.3122 11.5543 43.7785 11.7538C44.2447 11.9533 44.6664 12.2453 45.0182 12.6126C45.3701 12.9798 45.645 13.4147 45.8266 13.8913C46.0081 14.368 46.0926 14.8765 46.075 15.3868V25.442C46.0987 25.9223 46.3046 26.3751 46.6502 26.7066C46.9958 27.0381 47.4547 27.223 47.9318 27.223C48.4089 27.223 48.8678 27.0381 49.2134 26.7066C49.559 26.3751 49.765 25.9223 49.7886 25.442V15.3868C49.7886 14.3782 50.1861 13.4109 50.8937 12.6977C51.6012 11.9845 52.5609 11.5838 53.5616 11.5838C54.5622 11.5838 55.5219 11.9845 56.2295 12.6977C56.937 13.4109 57.3345 14.3782 57.3345 15.3868V25.442C57.3345 25.9305 57.527 26.3989 57.8697 26.7443C58.2123 27.0896 58.6771 27.2837 59.1616 27.2837C59.6462 27.2837 60.1109 27.0896 60.4536 26.7443C60.7962 26.3989 60.9887 25.9305 60.9887 25.442V15.3868C60.9863 13.4004 60.2036 11.4957 58.8118 10.0894C57.42 8.68307 55.5323 7.88948 53.5616 7.88218V7.88218Z" fill="#757575"/>
<path d="M158.122 2.27444C157.773 2.27309 157.435 2.39701 157.169 2.62399C156.903 2.85096 156.726 3.16613 156.669 3.51293L153.344 21.4135C153.157 22.5921 152.613 23.1676 151.677 23.1676C150.855 23.1676 150.279 22.5277 150.051 21.3767L146.396 3.85824C146.31 3.41454 146.073 3.01496 145.726 2.72775C145.38 2.44055 144.945 2.28354 144.496 2.28354C144.048 2.28354 143.613 2.44055 143.266 2.72775C142.92 3.01496 142.683 3.41454 142.596 3.85824L138.942 21.3767C138.709 22.5461 138.147 23.1676 137.316 23.1676C136.402 23.1676 135.836 22.5921 135.649 21.4135L132.323 3.51293C132.289 3.32067 132.217 3.13713 132.112 2.9728C132.007 2.80847 131.871 2.66658 131.712 2.5552C131.553 2.44383 131.373 2.36518 131.184 2.32372C130.994 2.28226 130.799 2.27881 130.608 2.31358C130.417 2.34834 130.235 2.42064 130.072 2.52633C129.909 2.63203 129.768 2.76906 129.658 2.92959C129.547 3.09013 129.469 3.27103 129.428 3.46196C129.387 3.6529 129.384 3.85013 129.418 4.0424L133.241 22.2698C133.575 24.0194 134.84 26.059 137.316 26.059C139.791 26.059 141.016 24.1023 141.395 22.2698L144.455 7.32969L144.56 7.89599L147.598 22.2698C147.977 24.1115 149.247 26.059 151.677 26.059C154.107 26.059 155.422 24.0194 155.756 22.2698L159.574 4.0424C159.616 3.82684 159.61 3.60457 159.557 3.39166C159.503 3.17876 159.403 2.98055 159.264 2.81136C159.125 2.64217 158.95 2.50623 158.753 2.41337C158.555 2.32051 158.34 2.27306 158.122 2.27444V2.27444Z" fill="#757575"/>
</g>
<defs>
<clipPath id="clip0_434_6107">
<rect width="216" height="35" fill="white"/>
</clipPath>
</defs>
</svg>
