<svg width="24" height="24" viewBox="0 0 24 24" fill="none" xmlns="http://www.w3.org/2000/svg">
<path fill-rule="evenodd" clip-rule="evenodd" d="M11.4213 1.38278C12.1349 1.0503 12.8873 1.38198 13.4409 1.84145L13.4421 1.84252L17.1087 4.89953C17.1087 4.89957 17.1086 4.89949 17.1087 4.89953C17.9746 5.62125 17.989 6.86326 17.1789 7.61397L13.4773 11.1162C13.1764 11.4009 12.7017 11.3878 12.4171 11.0869C12.1324 10.786 12.1455 10.3113 12.4464 10.0266L16.1583 6.51462C16.249 6.43103 16.2741 6.34461 16.2727 6.27927C16.2714 6.21526 16.2441 6.13163 16.1484 6.05186L12.4829 2.99567C12.4827 2.99551 12.483 2.99584 12.4829 2.99567C12.3008 2.84469 12.1653 2.78156 12.0874 2.75979C12.0769 2.75685 12.0679 2.75476 12.0605 2.7533C12.0571 2.75949 12.0534 2.76699 12.0493 2.776C12.0167 2.84848 11.9785 2.99132 11.9785 3.22809V7.71428C11.9785 8.12849 11.6427 8.46428 11.2285 8.46428C10.8143 8.46428 10.4785 8.12849 10.4785 7.71428V3.22809C10.4785 2.50746 10.7056 1.71622 11.4213 1.38278ZM12.0321 2.74996C12.0305 2.7502 12.0296 2.75022 12.0296 2.75017L12.0321 2.74996Z" fill="#212121"/>
<path fill-rule="evenodd" clip-rule="evenodd" d="M11.5156 11.7833C11.7958 11.8994 11.9786 12.1728 11.9786 12.4762V20.7714C11.9786 21.0082 12.0167 21.151 12.0494 21.2235C12.0534 21.2325 12.0572 21.24 12.0605 21.2462C12.068 21.2447 12.0769 21.2427 12.0874 21.2397C12.1654 21.2179 12.3006 21.1552 12.4829 21.0038L12.4992 20.9907L16.823 17.6007C17.1489 17.3451 17.6204 17.4022 17.8759 17.7282C18.1315 18.0542 18.0744 18.5256 17.7485 18.7812L13.4324 22.1651C12.8796 22.6209 12.1313 22.9475 11.4214 22.6167C10.7057 22.2833 10.4786 21.492 10.4786 20.7714V14.2869L5.43512 19.3303C5.14222 19.6232 4.66735 19.6232 4.37446 19.3303C4.08156 19.0374 4.08156 18.5626 4.37445 18.2697L10.6982 11.9459C10.9127 11.7314 11.2353 11.6672 11.5156 11.7833ZM12.0296 21.2493C12.0297 21.2493 12.0305 21.2493 12.0322 21.2495L12.0296 21.2493ZM12.0759 21.2702C12.0771 21.2713 12.0777 21.2719 12.0777 21.272C12.0776 21.272 12.077 21.2715 12.0759 21.2702Z" fill="#212121"/>
<path fill-rule="evenodd" clip-rule="evenodd" d="M2.44714 4.35036C2.72703 4.04502 3.20146 4.02439 3.5068 4.30429L20.6496 20.0186C20.955 20.2984 20.9756 20.7729 20.6957 21.0782C20.4158 21.3836 19.9414 21.4042 19.636 21.1243L2.49321 5.41002C2.18787 5.13012 2.16724 4.6557 2.44714 4.35036Z" fill="#212121"/>
</svg>
