<svg width="20" height="20" viewBox="0 0 20 20" fill="none" xmlns="http://www.w3.org/2000/svg">
<path fill-rule="evenodd" clip-rule="evenodd" d="M1.875 5C1.875 4.65482 2.15482 4.375 2.5 4.375H17.5C17.8452 4.375 18.125 4.65482 18.125 5C18.125 5.34518 17.8452 5.625 17.5 5.625H2.5C2.15482 5.625 1.875 5.34518 1.875 5Z" fill="#BB0000"/>
<path fill-rule="evenodd" clip-rule="evenodd" d="M8.33341 2.29199C8.0471 2.29199 7.77855 2.40034 7.58537 2.58386C7.39328 2.76635 7.29175 3.00681 7.29175 3.25033V4.83366C7.29175 5.17884 7.01193 5.45866 6.66675 5.45866C6.32157 5.45866 6.04175 5.17884 6.04175 4.83366V3.25033C6.04175 2.65399 6.29141 2.08899 6.72444 1.67762C7.15638 1.26727 7.73568 1.04199 8.33341 1.04199H11.6667C12.2645 1.04199 12.8438 1.26727 13.2757 1.67762C13.7088 2.08899 13.9584 2.65399 13.9584 3.25033V4.83366C13.9584 5.17884 13.6786 5.45866 13.3334 5.45866C12.9882 5.45866 12.7084 5.17884 12.7084 4.83366V3.25033C12.7084 3.00681 12.6069 2.76635 12.4148 2.58386C12.2216 2.40034 11.9531 2.29199 11.6667 2.29199H8.33341ZM4.16675 4.37533C4.51193 4.37533 4.79175 4.65515 4.79175 5.00033V15.917C4.79175 16.1605 4.89328 16.401 5.08537 16.5835C5.27855 16.767 5.5471 16.8753 5.83341 16.8753H14.1667C14.4531 16.8753 14.7216 16.767 14.9148 16.5835C15.1069 16.401 15.2084 16.1605 15.2084 15.917V5.00033C15.2084 4.65515 15.4882 4.37533 15.8334 4.37533C16.1786 4.37533 16.4584 4.65515 16.4584 5.00033V15.917C16.4584 16.5133 16.2088 17.0783 15.7757 17.4897C15.3438 17.9 14.7645 18.1253 14.1667 18.1253H5.83341C5.23568 18.1253 4.65638 17.9 4.22443 17.4897C3.7914 17.0783 3.54175 16.5133 3.54175 15.917V5.00033C3.54175 4.65515 3.82157 4.37533 4.16675 4.37533Z" fill="#BB0000"/>
<path fill-rule="evenodd" clip-rule="evenodd" d="M8.33325 8.54199C8.67843 8.54199 8.95825 8.82181 8.95825 9.16699V12.5003C8.95825 12.8455 8.67843 13.1253 8.33325 13.1253C7.98807 13.1253 7.70825 12.8455 7.70825 12.5003V9.16699C7.70825 8.82181 7.98807 8.54199 8.33325 8.54199Z" fill="#BB0000"/>
<path fill-rule="evenodd" clip-rule="evenodd" d="M11.6667 8.54199C12.0119 8.54199 12.2917 8.82181 12.2917 9.16699V12.5003C12.2917 12.8455 12.0119 13.1253 11.6667 13.1253C11.3216 13.1253 11.0417 12.8455 11.0417 12.5003V9.16699C11.0417 8.82181 11.3216 8.54199 11.6667 8.54199Z" fill="#BB0000"/>
</svg>
