<svg width="24" height="24" viewBox="0 0 24 24" fill="none" xmlns="http://www.w3.org/2000/svg">
<path fill-rule="evenodd" clip-rule="evenodd" d="M12 2.75C6.89137 2.75 2.75 6.89137 2.75 12C2.75 17.1086 6.89137 21.25 12 21.25C17.1086 21.25 21.25 17.1086 21.25 12C21.25 6.89137 17.1086 2.75 12 2.75ZM1.25 12C1.25 6.06294 6.06294 1.25 12 1.25C17.9371 1.25 22.75 6.06294 22.75 12C22.75 17.9371 17.9371 22.75 12 22.75C6.06294 22.75 1.25 17.9371 1.25 12Z" fill="#212121"/>
<path fill-rule="evenodd" clip-rule="evenodd" d="M12.3004 7.778C11.7767 7.68817 11.2381 7.78658 10.78 8.05582C10.3219 8.32505 9.97388 8.74772 9.79755 9.24897C9.66009 9.63971 9.23191 9.84504 8.84117 9.70758C8.45042 9.57013 8.24509 9.14194 8.38255 8.7512C8.67643 7.91579 9.25649 7.21133 10.02 6.76262C10.7835 6.3139 11.6812 6.14987 12.554 6.29959C13.4269 6.44931 14.2186 6.90311 14.7889 7.58061C15.3591 8.25795 15.6712 9.11518 15.67 10.0005C15.6698 11.3984 14.6313 12.344 13.8361 12.8741C13.4156 13.1544 13.0005 13.3615 12.6934 13.4979C12.5388 13.5667 12.4089 13.6187 12.316 13.6541C12.2694 13.6718 12.2319 13.6855 12.205 13.695L12.1727 13.7063L12.1628 13.7097L12.1594 13.7109L12.1582 13.7113C12.158 13.7113 12.1572 13.7116 11.92 13.0001L12.1572 13.7116C11.7643 13.8426 11.3395 13.6302 11.2085 13.2373C11.0777 12.8447 11.2895 12.4204 11.6817 12.289C11.6819 12.2889 11.6815 12.289 11.6817 12.289L11.6846 12.288L11.7025 12.2817C11.7195 12.2756 11.7465 12.2659 11.782 12.2523C11.853 12.2253 11.9575 12.1835 12.0842 12.1272C12.3396 12.0137 12.6745 11.8457 13.004 11.626C13.7087 11.1562 14.17 10.6019 14.17 10.0001L14.17 9.99897C14.1708 9.46761 13.9836 8.95311 13.6414 8.54661C13.2992 8.14011 12.8241 7.86783 12.3004 7.778Z" fill="#212121"/>
<path fill-rule="evenodd" clip-rule="evenodd" d="M11.25 17C11.25 16.5858 11.5858 16.25 12 16.25H12.01C12.4242 16.25 12.76 16.5858 12.76 17C12.76 17.4142 12.4242 17.75 12.01 17.75H12C11.5858 17.75 11.25 17.4142 11.25 17Z" fill="#212121"/>
</svg>
