<svg width="24" height="24" viewBox="0 0 24 24" fill="none" xmlns="http://www.w3.org/2000/svg">
<path fill-rule="evenodd" clip-rule="evenodd" d="M12 8.25C12.4142 8.25 12.75 8.58579 12.75 9V19C12.75 19.4142 12.4142 19.75 12 19.75C11.5858 19.75 11.25 19.4142 11.25 19V9C11.25 8.58579 11.5858 8.25 12 8.25Z" fill="#424242"/>
<path fill-rule="evenodd" clip-rule="evenodd" d="M18 3.25C18.4142 3.25 18.75 3.58579 18.75 4V19C18.75 19.4142 18.4142 19.75 18 19.75C17.5858 19.75 17.25 19.4142 17.25 19V4C17.25 3.58579 17.5858 3.25 18 3.25Z" fill="#424242"/>
<path fill-rule="evenodd" clip-rule="evenodd" d="M6 13.25C6.41421 13.25 6.75 13.5858 6.75 14V19C6.75 19.4142 6.41421 19.75 6 19.75C5.58579 19.75 5.25 19.4142 5.25 19V14C5.25 13.5858 5.58579 13.25 6 13.25Z" fill="#424242"/>
</svg>
