<svg width="24" height="24" viewBox="0 0 24 24" fill="none" xmlns="http://www.w3.org/2000/svg">
<path d="M23.25 12C23.25 18.2132 18.2132 23.25 12 23.25C5.7868 23.25 0.75 18.2132 0.75 12C0.75 5.7868 5.7868 0.75 12 0.75C18.2132 0.75 23.25 5.7868 23.25 12Z" fill="white" stroke="#BB0000" stroke-width="1.5"/>
<path fill-rule="evenodd" clip-rule="evenodd" d="M12.5 5.5C12.5 5.22386 12.2761 5 12 5C11.7239 5 11.5 5.22386 11.5 5.5V12.1667C11.5 12.4428 11.7239 12.6667 12 12.6667C12.2761 12.6667 12.5 12.4428 12.5 12.1667V5.5ZM8.11028 8.23251C8.30551 8.03721 8.30546 7.72063 8.11017 7.5254C7.91487 7.33017 7.59829 7.33022 7.40306 7.52552C6.49423 8.43464 5.87538 9.59284 5.62474 10.8537C5.37411 12.1145 5.50296 13.4213 5.99499 14.6089C6.48702 15.7965 7.32014 16.8115 8.38902 17.5257C9.45789 18.2398 10.7145 18.621 12 18.621C13.2855 18.621 14.5421 18.2398 15.611 17.5257C16.6799 16.8115 17.513 15.7965 18.005 14.6089C18.4971 13.4213 18.6259 12.1145 18.3753 10.8537C18.1246 9.59284 17.5058 8.43464 16.597 7.52552C16.4017 7.33022 16.0851 7.33017 15.8898 7.5254C15.6945 7.72063 15.6945 8.03721 15.8897 8.23251C16.6587 9.00177 17.1824 9.98178 17.3945 11.0486C17.6065 12.1155 17.4975 13.2212 17.0812 14.2261C16.6648 15.231 15.9599 16.0899 15.0555 16.6942C14.151 17.2984 13.0877 17.621 12 17.621C10.9123 17.621 9.84899 17.2984 8.94455 16.6942C8.04012 16.0899 7.33517 15.231 6.91884 14.2261C6.5025 13.2212 6.39348 12.1155 6.60555 11.0486C6.81763 9.98178 7.34127 9.00177 8.11028 8.23251Z" fill="#BB0000"/>
</svg>
