<svg width="32" height="32" viewBox="0 0 32 32" fill="none" xmlns="http://www.w3.org/2000/svg">
<circle opacity="0.2" cx="16" cy="16" r="16" fill="#32D3A1"/>
<path fill-rule="evenodd" clip-rule="evenodd" d="M11.8818 6.04444C11.8818 5.6517 11.5634 5.33331 11.1706 5.33331C10.7779 5.33331 10.4595 5.6517 10.4595 6.04444V8.88896C10.4595 9.28171 10.7779 9.60009 11.1706 9.60009C11.5634 9.60009 11.8818 9.28171 11.8818 8.88896V6.04444ZM6.66663 12.6816C6.66663 12.2889 6.98501 11.9705 7.37776 11.9705H22.5483H22.5485H23.4965C24.691 11.9705 25.8366 12.445 26.6812 13.2897C27.5258 14.1343 28.0003 15.2799 28.0003 16.4743C28.0003 17.6688 27.5258 18.8144 26.6812 19.659C25.8366 20.5036 24.691 20.9782 23.4965 20.9782H23.2596V21.2152C23.2596 22.4097 22.7851 23.5553 21.9405 24.3999C21.0959 25.2445 19.9503 25.719 18.7558 25.719H11.1704C9.97596 25.719 8.83039 25.2445 7.98576 24.3999C7.14113 23.5553 6.66663 22.4097 6.66663 21.2152V12.6816ZM23.2596 19.5559V13.3928H23.4965C24.3138 13.3928 25.0976 13.7174 25.6755 14.2953C26.2534 14.8733 26.5781 15.6571 26.5781 16.4743C26.5781 17.2916 26.2534 18.0754 25.6755 18.6533C25.0976 19.2312 24.3138 19.5559 23.4965 19.5559H23.2596ZM14.9629 5.33331C15.3557 5.33331 15.6741 5.6517 15.6741 6.04444V8.88896C15.6741 9.28171 15.3557 9.60009 14.9629 9.60009C14.5702 9.60009 14.2518 9.28171 14.2518 8.88896V6.04444C14.2518 5.6517 14.5702 5.33331 14.9629 5.33331ZM19.4676 6.04444C19.4676 5.6517 19.1492 5.33331 18.7564 5.33331C18.3637 5.33331 18.0453 5.6517 18.0453 6.04444V8.88896C18.0453 9.28171 18.3637 9.60009 18.7564 9.60009C19.1492 9.60009 19.4676 9.28171 19.4676 8.88896V6.04444Z" fill="#32D3A1"/>
</svg>
