<svg width="20" height="18" viewBox="0 0 20 18" fill="none" xmlns="http://www.w3.org/2000/svg">
<path fill-rule="evenodd" clip-rule="evenodd" d="M8.58514 1.6756C9.6647 1.41015 10.788 1.44605 11.8523 1.7806C12.9171 2.11529 13.8934 2.73981 14.6873 3.6029C14.6926 3.60866 14.698 3.61434 14.7034 3.61994L17.7907 6.77245H14.8182C14.3663 6.77245 14 7.09627 14 7.49572C14 7.89517 14.3663 8.21899 14.8182 8.21899H19.1818C19.6337 8.21899 20 7.89517 20 7.49572V2.94226C20 2.54281 19.6337 2.21899 19.1818 2.21899C18.7299 2.21899 18.3636 2.54281 18.3636 2.94226V5.21359L15.7832 2.57863C14.8197 1.53409 13.6234 0.76495 12.3021 0.349626C10.9766 -0.0670179 9.57386 -0.112187 8.22698 0.218982C6.88052 0.550051 5.63975 1.24484 4.61816 2.23157C3.59695 3.21793 2.82761 4.46398 2.37614 5.8504C2.24789 6.24426 2.4632 6.66752 2.85706 6.79577C3.25092 6.92402 3.67417 6.70871 3.80242 6.31485C4.18087 5.15267 4.82201 4.12011 5.66025 3.31048C6.49812 2.5012 7.50517 1.94114 8.58514 1.6756ZM1.63636 12.2136V14.469C1.63636 14.8832 1.27005 15.219 0.818182 15.219C0.366312 15.219 0 14.8832 0 14.469V9.96899C0 9.55478 0.366312 9.21899 0.818182 9.21899H5.18182C5.63369 9.21899 6 9.55478 6 9.96899C6 10.3832 5.63369 10.719 5.18182 10.719H2.2722L5.36785 13.88C5.37333 13.8856 5.37872 13.8913 5.38402 13.8971C6.17785 14.7602 7.15424 15.3847 8.21902 15.7194C9.28333 16.0539 10.4066 16.0898 11.4862 15.8244C12.5661 15.5588 13.5732 14.9988 14.411 14.1895C15.2493 13.3799 15.8904 12.3473 16.2689 11.1851C16.3971 10.7913 16.8204 10.576 17.2142 10.7042C17.6081 10.8325 17.8234 11.2557 17.6952 11.6496C17.2437 13.036 16.4743 14.2821 15.4531 15.2684C14.4315 16.2551 13.1908 16.9499 11.8443 17.281C10.4974 17.6122 9.09472 17.567 7.76923 17.1504C6.44793 16.735 5.25159 15.9659 4.28813 14.9214L1.63636 12.2136Z" fill="#ED711A"/>
</svg>
