<svg width="32" height="32" viewBox="0 0 32 32" fill="none" xmlns="http://www.w3.org/2000/svg">
<path d="M16 32C24.8366 32 32 24.8366 32 16C32 7.16344 24.8366 0 16 0C7.16345 0 0 7.16344 0 16C0 24.8366 7.16345 32 16 32Z" fill="#CAEDFB"/>
<path d="M16 4.47102V3.1783C16 3.07429 15.9121 3 15.8241 3C15.7362 3 15.6482 3.08915 15.6482 3.1783V20.7266L7 21.4398C7 21.4398 7.14659 21.4993 7.26385 21.6033C7.36646 21.6924 7.48372 21.7964 7.60098 21.9153C7.71825 22.0342 7.85017 22.1679 7.96743 22.3016C7.99675 22.3314 8.02606 22.3611 8.04072 22.3908C8.05538 22.4057 8.07004 22.4205 8.08469 22.4502C8.11401 22.4799 8.14333 22.5097 8.15798 22.5394C8.15798 22.5394 8.1873 22.5691 8.20196 22.584C8.23127 22.6137 8.26059 22.6434 8.27525 22.6731C8.27525 22.6731 8.28991 22.688 8.30456 22.7028C8.33388 22.7325 8.34854 22.7623 8.37785 22.7771C8.37785 22.7771 8.39251 22.792 8.40717 22.8068C8.45114 22.8663 8.49512 22.9108 8.52443 22.9406L8.58307 23H20.6319L23.93 20.7117L24.4723 20.3403L25 19.9688L23.3876 20.1025H23.1678C23.1678 20.1174 22.6107 20.162 22.6107 20.162L15.9853 20.6969V19.8945L24.2085 19.107L15.9853 4.47102H16Z" fill="#6D69D1"/>
<path d="M15 6.00002V19.6177L10 20L15 6.00002Z" fill="#6D69D1"/>
<path d="M20.5358 25H9.46408C9.20769 25 8.99984 25.2239 8.99984 25.5C8.99984 25.7761 9.20769 26 9.46408 26H20.5358C20.7921 26 21 25.7761 21 25.5C21 25.2239 20.7921 25 20.5358 25Z" fill="#74B9D5"/>
<path d="M16.5323 27H11.4677C11.2094 27 11 27.2239 11 27.5C11 27.7761 11.2094 28 11.4677 28H16.5323C16.7906 28 17 27.7761 17 27.5C17 27.2239 16.7906 27 16.5323 27Z" fill="#74B9D5"/>
</svg>
