<svg width="32" height="32" viewBox="0 0 32 32" fill="none" xmlns="http://www.w3.org/2000/svg">
<path d="M16 32C24.8366 32 32 24.8366 32 16C32 7.16345 24.8366 0 16 0C7.16345 0 0 7.16345 0 16C0 24.8366 7.16345 32 16 32Z" fill="#007DA7"/>
<path d="M16.0894 7.06402L18.7853 12.4929C18.7853 12.5271 18.8368 12.5441 18.8711 12.5441L24.8983 13.4148C24.9841 13.4148 25.0185 13.5343 24.9498 13.5855L20.5883 17.8194C20.5711 17.8364 20.5539 17.8706 20.5539 17.9047L21.5842 23.8799C21.5842 23.9653 21.5155 24.0336 21.4297 23.9824L16.0378 21.1655C16.0035 21.1655 15.9692 21.1655 15.9348 21.1655L10.543 23.9824C10.4743 24.0165 10.3713 23.9653 10.3885 23.8799L11.4187 17.9047C11.4187 17.8706 11.4187 17.8364 11.3844 17.8194L7.02287 13.5855C6.95418 13.5172 6.98852 13.4148 7.07438 13.4148L13.1015 12.5441C13.1359 12.5441 13.1702 12.51 13.1874 12.4929L15.8833 7.06402C15.9176 6.97866 16.0378 6.97866 16.0722 7.06402H16.0894Z" fill="#54DCEF"/>
<path d="M15.7972 8.90792L13.771 12.8003C13.6508 13.0393 13.4104 13.193 13.1528 13.2101L8.70544 13.6198C8.6711 13.6198 8.6711 13.671 8.70544 13.671L13.7445 14.1661C14.0879 14.1661 14.3798 13.9783 14.5 13.671L15.8316 8.94205C15.8316 8.90791 15.7972 8.89084 15.7801 8.92498L15.7972 8.90792Z" fill="#DAF9FF"/>
<path d="M10.578 22.8899L10.4062 23.863C10.4062 23.9484 10.4921 24.0166 10.5608 23.9825L15.9354 21.1656C15.9698 21.1656 16.0041 21.1656 16.0385 21.1656L21.4131 23.9825C21.499 24.0166 21.5848 23.9484 21.5676 23.863L20.5374 17.9049C20.5374 17.8707 20.5374 17.8366 20.5717 17.8024L24.9161 13.5856C24.9848 13.5174 24.9504 13.4149 24.8474 13.3979L22.6323 13.0735C19.6101 18.4682 14.9738 21.3022 10.5436 22.8728L10.578 22.8899Z" fill="#0FC4DD"/>
<path d="M21.9648 6L22.1055 6.35232C22.2563 6.74734 22.4874 7.06762 22.7588 7.28114L23 7.47332L22.7688 7.67615C22.5075 7.90035 22.2965 8.23131 22.1558 8.63701L22.0352 9L21.8945 8.64769C21.7437 8.25268 21.5126 7.93238 21.2412 7.71886L21 7.5267L21.2312 7.32385C21.4925 7.09965 21.7035 6.76869 21.8442 6.36299L21.9648 6Z" fill="#ABE2EC"/>
<path d="M24.9692 9L25.1077 9.23898C25.2615 9.50314 25.4769 9.71698 25.7538 9.85534L26 9.98113L25.7692 10.1195C25.5077 10.2704 25.2923 10.4969 25.1538 10.761L25.0308 11L24.8923 10.761C24.7385 10.4969 24.5231 10.283 24.2462 10.1447L24 10.0189L24.2308 9.88051C24.4923 9.72956 24.7077 9.50314 24.8462 9.23898L24.9692 9Z" fill="#ABE2EC"/>
<path d="M6.98095 21L7.11429 21.3545C7.26667 21.75 7.48571 22.0636 7.7619 22.2818L8 22.4727L7.7619 22.6773C7.49524 22.9091 7.28571 23.2364 7.14286 23.6454L7.01905 24L6.88571 23.6454C6.73333 23.25 6.51429 22.9364 6.2381 22.7182L6 22.5273L6.2381 22.3227C6.50476 22.0909 6.71429 21.7636 6.85714 21.3545L6.98095 21Z" fill="#ABE2EC"/>
</svg>
