<svg width="24" height="24" viewBox="0 0 24 24" fill="none" xmlns="http://www.w3.org/2000/svg">
<path fill-rule="evenodd" clip-rule="evenodd" d="M2.25 6C2.25 5.58579 2.58579 5.25 3 5.25H21C21.4142 5.25 21.75 5.58579 21.75 6C21.75 6.41421 21.4142 6.75 21 6.75H3C2.58579 6.75 2.25 6.41421 2.25 6Z" fill="#212121"/>
<path fill-rule="evenodd" clip-rule="evenodd" d="M10 2.75C9.65642 2.75 9.33416 2.88002 9.10235 3.10025C8.87184 3.31923 8.75 3.60778 8.75 3.9V5.8C8.75 6.21421 8.41421 6.55 8 6.55C7.58579 6.55 7.25 6.21421 7.25 5.8V3.9C7.25 3.1844 7.54959 2.5064 8.06922 2.01275C8.58755 1.52033 9.28271 1.25 10 1.25H14C14.7173 1.25 15.4124 1.52033 15.9308 2.01275C16.4504 2.5064 16.75 3.1844 16.75 3.9V5.8C16.75 6.21421 16.4142 6.55 16 6.55C15.5858 6.55 15.25 6.21421 15.25 5.8V3.9C15.25 3.60778 15.1282 3.31923 14.8977 3.10025C14.6658 2.88002 14.3436 2.75 14 2.75H10ZM5 5.25C5.41421 5.25 5.75 5.58579 5.75 6V19.1C5.75 19.3922 5.87184 19.6808 6.10235 19.8998C6.33416 20.12 6.65642 20.25 7 20.25H17C17.3436 20.25 17.6658 20.12 17.8977 19.8998C18.1282 19.6808 18.25 19.3922 18.25 19.1V6C18.25 5.58579 18.5858 5.25 19 5.25C19.4142 5.25 19.75 5.58579 19.75 6V19.1C19.75 19.8156 19.4504 20.4936 18.9308 20.9873C18.4124 21.4797 17.7173 21.75 17 21.75H7C6.28271 21.75 5.58755 21.4797 5.06922 20.9873C4.54959 20.4936 4.25 19.8156 4.25 19.1V6C4.25 5.58579 4.58579 5.25 5 5.25Z" fill="#212121"/>
<path fill-rule="evenodd" clip-rule="evenodd" d="M10 10.25C10.4142 10.25 10.75 10.5858 10.75 11V15C10.75 15.4142 10.4142 15.75 10 15.75C9.58579 15.75 9.25 15.4142 9.25 15V11C9.25 10.5858 9.58579 10.25 10 10.25Z" fill="#212121"/>
<path fill-rule="evenodd" clip-rule="evenodd" d="M14 10.25C14.4142 10.25 14.75 10.5858 14.75 11V15C14.75 15.4142 14.4142 15.75 14 15.75C13.5858 15.75 13.25 15.4142 13.25 15V11C13.25 10.5858 13.5858 10.25 14 10.25Z" fill="#212121"/>
</svg>
