<svg width="32" height="32" viewBox="0 0 32 32" fill="none" xmlns="http://www.w3.org/2000/svg">
<circle opacity="0.16" cx="16" cy="16" r="16" fill="#F8C81C"/>
<path fill-rule="evenodd" clip-rule="evenodd" d="M6.6667 11.3111C7.10853 11.3111 7.4667 11.6693 7.4667 12.1111V19.8889C7.4667 20.3307 7.10853 20.6889 6.6667 20.6889C6.22487 20.6889 5.8667 20.3307 5.8667 19.8889V12.1111C5.8667 11.6693 6.22487 11.3111 6.6667 11.3111Z" fill="#F8C81C"/>
<path fill-rule="evenodd" clip-rule="evenodd" d="M11.3333 8.71851C11.7752 8.71851 12.1333 9.07668 12.1333 9.51851V22.4815C12.1333 22.9233 11.7752 23.2815 11.3333 23.2815C10.8915 23.2815 10.5333 22.9233 10.5333 22.4815V9.51851C10.5333 9.07668 10.8915 8.71851 11.3333 8.71851Z" fill="#F8C81C"/>
<path fill-rule="evenodd" clip-rule="evenodd" d="M16.0001 6.12592C16.4419 6.12592 16.8001 6.48409 16.8001 6.92592V25.0741C16.8001 25.5159 16.4419 25.8741 16.0001 25.8741C15.5582 25.8741 15.2001 25.5159 15.2001 25.0741V6.92592C15.2001 6.48409 15.5582 6.12592 16.0001 6.12592Z" fill="#F8C81C"/>
<path fill-rule="evenodd" clip-rule="evenodd" d="M20.6667 8.71851C21.1085 8.71851 21.4667 9.07668 21.4667 9.51851V22.4815C21.4667 22.9233 21.1085 23.2815 20.6667 23.2815C20.2249 23.2815 19.8667 22.9233 19.8667 22.4815V9.51851C19.8667 9.07668 20.2249 8.71851 20.6667 8.71851Z" fill="#F8C81C"/>
<path fill-rule="evenodd" clip-rule="evenodd" d="M25.3333 11.3111C25.7752 11.3111 26.1333 11.6693 26.1333 12.1111V19.8889C26.1333 20.3307 25.7752 20.6889 25.3333 20.6889C24.8915 20.6889 24.5333 20.3307 24.5333 19.8889V12.1111C24.5333 11.6693 24.8915 11.3111 25.3333 11.3111Z" fill="#F8C81C"/>
</svg>
