<svg width="32" height="32" viewBox="0 0 32 32" fill="none" xmlns="http://www.w3.org/2000/svg">
<path d="M16 32C24.8366 32 32 24.8366 32 16C32 7.16344 24.8366 0 16 0C7.16344 0 0 7.16344 0 16C0 24.8366 7.16344 32 16 32Z" fill="#FFF8A8"/>
<mask id="mask0_631_9244" style="mask-type:alpha" maskUnits="userSpaceOnUse" x="0" y="0" width="32" height="32">
<path d="M16 32C24.8366 32 32 24.8366 32 16C32 7.16344 24.8366 0 16 0C7.16345 0 0 7.16344 0 16C0 24.8366 7.16345 32 16 32Z" fill="#FFF8A8"/>
</mask>
<g mask="url(#mask0_631_9244)">
<path d="M16.2009 20.5207C16.2009 20.5207 15.7253 36.8047 26.7103 50.7953" stroke="#ED711A" stroke-miterlimit="10"/>
<path d="M16.7665 28.9135C16.7665 28.9135 16.3954 24.0617 11.4314 24.2046C11.4314 24.2046 11.6925 28.836 16.7665 28.9135Z" fill="#EC711A"/>
<path d="M21.9142 22.3144C21.9142 22.3144 17.0195 22.4456 16.4394 27.1389C16.4394 27.1389 21.0884 27.0994 21.9142 22.3144Z" fill="#EC711A"/>
<path d="M17.355 20.268C17.355 20.268 24.5581 15.6085 24.7398 13.5575C24.9285 11.5331 23.2957 12.2564 23.2957 12.2564C23.2957 12.2564 24.2054 10.9539 23.4329 9.63437C23.1707 9.17678 22.3605 8.76232 21.6241 9.18131L16.3739 20.1965L17.355 20.268Z" fill="#FFA837"/>
<path d="M14.8595 20.136C14.8595 20.136 7.11632 16.7589 6.33391 13.6604C5.22554 9.30928 9.64376 9.69225 9.64376 9.69225L14.8707 20.1331L14.8595 20.136Z" fill="#FFA837"/>
<path d="M15.289 20.094C15.289 20.094 7.21961 6.54741 14.9613 6.58111C23.4894 6.6192 16.6664 20.0839 16.6664 20.0839L15.289 20.094Z" fill="#FFA837"/>
<path d="M12.4224 10.0418C12.3653 11.7425 13.5232 13.2664 15.014 13.4636C16.5049 13.6609 17.7472 12.446 17.8044 10.7452C17.8461 9.39686 17.1185 8.10933 16.067 7.58877C15.0155 7.06822 15.536 9.02268 15.2414 8.98787C14.8731 8.94436 14.8387 7.21175 14.1658 7.4147C13.1766 7.72783 12.47 8.76156 12.4302 10.0259L12.4224 10.0418Z" fill="#EC711A"/>
<path d="M9.79992 7.36666C12.2273 5.99663 12.9616 10.2361 12.9616 10.2361C12.9616 10.2361 14.1513 9.55038 14.8295 10.7393C15.9982 12.762 15.8148 20.0128 15.8148 20.0128L14.3284 20.107C14.3284 20.107 11.4095 17.4391 9.65157 13.5634C8.45602 10.9348 8.26627 8.23942 9.80331 7.37971L9.79992 7.36666Z" fill="#FFC443"/>
<path d="M15.8987 20.0082L17.2789 20.0915C17.2789 20.0915 18.9989 17.8028 20.3167 14.8766C21.5394 12.175 22.1585 9.2878 21.0624 8.1172C19.4023 6.32263 18.0677 8.13997 17.8411 9.81173C17.8411 9.81173 16.0789 8.71453 15.651 10.8383C15.2155 12.9783 15.8841 19.9977 15.8841 19.9977L15.8987 20.0082Z" fill="#FFC443"/>
<path d="M14.1474 19.9176C14.1474 19.9176 16.0542 19.1839 18.0716 19.7929C18.0716 19.7929 18.2693 22.3463 16.1302 22.5754C16.1302 22.5754 14.0514 22.5091 14.1474 19.9176Z" fill="#EC711A"/>
</g>
</svg>
